SplineFontDB: 3.0
FontName: Exo-ThinItalic
FullName: Exo Thin Italic
FamilyName: Exo
Weight: Thin
Copyright: Copyright (c) 2011 Natanael Gama (exo@ndiscovered.com), with Reserved Font Name "Exo"
Version: 1.00
ItalicAngle: 0
UnderlinePosition: -100
UnderlineWidth: 50
Ascent: 800
Descent: 200
sfntRevision: 0x00010000
LayerCount: 2
Layer: 0 1 "Back"  1
Layer: 1 1 "Fore"  0
XUID: [1021 192 351125693 10553232]
FSType: 0
OS2Version: 4
OS2_WeightWidthSlopeOnly: 0
OS2_UseTypoMetrics: 1
CreationTime: 1265665101
ModificationTime: 1328305027
PfmFamily: 17
TTFWeight: 100
TTFWidth: 5
LineGap: 0
VLineGap: 0
Panose: 2 0 2 3 0 0 0 0 0 0
OS2TypoAscent: 202
OS2TypoAOffset: 1
OS2TypoDescent: -127
OS2TypoDOffset: 1
OS2TypoLinegap: 0
OS2WinAscent: 0
OS2WinAOffset: 1
OS2WinDescent: 52
OS2WinDOffset: 1
HheadAscent: 0
HheadAOffset: 1
HheadDescent: -52
HheadDOffset: 1
OS2SubXSize: 650
OS2SubYSize: 700
OS2SubXOff: 0
OS2SubYOff: 140
OS2SupXSize: 650
OS2SupYSize: 700
OS2SupXOff: 0
OS2SupYOff: 480
OS2StrikeYSize: 49
OS2StrikeYPos: 258
OS2Vendor: 'PfEd'
OS2CodePages: 20000093.00000000
OS2UnicodeRanges: a00000ef.4000204b.00000000.00000000
Lookup: 4 0 0 "'ordn' Ordinals lookup 0"  {"'ordn' Ordinals lookup 0 subtable"  } ['ordn' ('DFLT' <'dflt' > 'grek' <'dflt' > 'latn' <'dflt' > ) ]
Lookup: 1 0 0 "'smcp' Lowercase to Small Capitals lookup 1"  {"'smcp' Lowercase to Small Capitals lookup 1 subtable"  } ['smcp' ('DFLT' <'dflt' > 'grek' <'dflt' > 'latn' <'FRA ' 'dflt' > ) ]
Lookup: 1 0 0 "'c2sc' Capitals to Small Capitals in Latin lookup 2"  {"'c2sc' Capitals to Small Capitals in Latin lookup 2 subtable"  } ['c2sc' ('latn' <'dflt' > ) ]
Lookup: 4 0 0 "'dlig' Discretionary Ligatures lookup 3"  {"'dlig' Discretionary Ligatures lookup 3 subtable"  } ['dlig' ('DFLT' <'dflt' > 'grek' <'dflt' > 'latn' <'dflt' > ) ]
Lookup: 4 0 1 "'liga' Standard Ligatures lookup 4"  {"'liga' Standard Ligatures lookup 4 subtable"  } ['liga' ('DFLT' <'dflt' > 'grek' <'dflt' > 'latn' <'FRA ' 'dflt' > ) ]

StartChar: .notdef
Encoding: 0 -1 0
AltUni2: 000000.ffffffff.0
Width: 758
Flags: W
LayerCount: 2
Fore
SplineSet
100 0 m 1,0,-1
 100 531 l 1,1,-1
 658 531 l 1,2,-1
 658 0 l 1,3,-1
 100 0 l 1,0,-1
114 22 m 1,4,-1
 370 266 l 1,5,-1
 114 507 l 1,6,-1
 114 22 l 1,4,-1
124 518 m 1,7,-1
 381 276 l 1,8,-1
 635 518 l 1,9,-1
 124 518 l 1,7,-1
127 13 m 1,10,-1
 634 13 l 1,11,-1
 381 256 l 1,12,-1
 127 13 l 1,10,-1
392 266 m 1,13,-1
 644 25 l 1,14,-1
 644 506 l 1,15,-1
 392 266 l 1,13,-1
EndSplineSet
EndChar

StartChar: exclam
Encoding: 33 33 4
Width: 236
GlyphClass: 2
Flags: W
LayerCount: 2
Fore
SplineSet
108 86 m 2,0,-1
 119 86 l 2,1,2
 131 86 131 86 129 74 c 2,3,-1
 119 12 l 2,4,5
 117 0 117 0 105 0 c 2,6,-1
 94 0 l 2,7,8
 82 0 82 0 84 12 c 2,9,-1
 94 74 l 2,10,11
 96 86 96 86 108 86 c 2,0,-1
124 196 m 1,12,-1
 204 731 l 1,13,-1
 226 731 l 1,14,-1
 136 196 l 1,15,-1
 124 196 l 1,12,-1
EndSplineSet
Substitution2: "'smcp' Lowercase to Small Capitals lookup 1 subtable" exclam.smcp
EndChar

StartChar: quotedbl
Encoding: 34 34 5
Width: 287
GlyphClass: 2
Flags: W
LayerCount: 2
Fore
SplineSet
108 531 m 1,0,-1
 122 665 l 1,1,-1
 133 732 l 1,2,-1
 158 732 l 1,3,-1
 147 665 l 1,4,-1
 120 531 l 1,5,-1
 108 531 l 1,0,-1
208 531 m 1,6,-1
 222 665 l 1,7,-1
 233 732 l 1,8,-1
 258 732 l 1,9,-1
 247 665 l 1,10,-1
 220 531 l 1,11,-1
 208 531 l 1,6,-1
EndSplineSet
Substitution2: "'smcp' Lowercase to Small Capitals lookup 1 subtable" quotedbl.smcp
EndChar

StartChar: numbersign
Encoding: 35 35 6
Width: 631
GlyphClass: 2
Flags: W
LayerCount: 2
Fore
SplineSet
56 250 m 1,0,-1
 60 262 l 1,1,-1
 239 262 l 1,2,-1
 303 467 l 1,3,-1
 124 467 l 1,4,-1
 129 479 l 1,5,-1
 307 479 l 1,6,-1
 388 732 l 1,7,-1
 400 732 l 1,8,-1
 319 479 l 1,9,-1
 505 479 l 1,10,-1
 585 732 l 1,11,-1
 597 732 l 1,12,-1
 517 479 l 1,13,-1
 694 479 l 1,14,-1
 690 467 l 1,15,-1
 512 467 l 1,16,-1
 448 261 l 1,17,-1
 625 261 l 1,18,-1
 621 249 l 1,19,-1
 444 249 l 1,20,-1
 365 0 l 1,21,-1
 353 0 l 1,22,-1
 432 249 l 1,23,-1
 246 250 l 1,24,-1
 167 0 l 1,25,-1
 155 0 l 1,26,-1
 234 250 l 1,27,-1
 56 250 l 1,0,-1
251 262 m 1,28,-1
 436 261 l 1,29,-1
 500 467 l 1,30,-1
 315 467 l 1,31,-1
 251 262 l 1,28,-1
EndSplineSet
Substitution2: "'smcp' Lowercase to Small Capitals lookup 1 subtable" numbersign.smcp
EndChar

StartChar: dollar
Encoding: 36 36 7
Width: 574
GlyphClass: 2
Flags: W
LayerCount: 2
Fore
SplineSet
306 16 m 0,0,1
 389 16 389 16 438 45.5 c 128,-1,2
 487 75 487 75 499 156 c 2,3,-1
 509 224 l 2,4,5
 512 244 512 244 512 260 c 0,6,7
 512 300 512 300 494 320 c 1,8,9
 467 347 467 347 391 347 c 2,10,-1
 289 347 l 2,11,12
 200 347 200 347 166 381 c 0,13,14
 135 412 135 412 135 449 c 0,15,16
 135 459 135 459 139 494 c 1,17,-1
 150 560 l 1,18,19
 166 664 166 664 222 701 c 128,-1,20
 278 738 278 738 387 738 c 1,21,-1
 400 824 l 1,22,-1
 418 824 l 1,23,-1
 405 737 l 1,24,25
 493 732 493 732 580 719 c 1,26,-1
 578 706 l 1,27,-1
 386 715 l 2,28,29
 376 715 376 715 366 715 c 0,30,31
 286 715 286 715 237.5 684.5 c 128,-1,32
 189 654 189 654 174 560 c 2,33,-1
 163 494 l 2,34,35
 160 476 160 476 160 462 c 0,36,37
 160 417 160 417 189 394 c 128,-1,38
 218 371 218 371 291 371 c 2,39,-1
 395 371 l 2,40,41
 487 371 487 371 516 332 c 0,42,43
 536 305 536 305 536 261 c 0,44,45
 536 243 536 243 533 224 c 2,46,-1
 523 156 l 1,47,48
 503 36 503 36 410 6 c 1,49,50
 362 -8 362 -8 304 -8 c 0,51,52
 296 -8 296 -8 287 -8 c 1,53,-1
 274 -88 l 1,54,-1
 256 -88 l 1,55,-1
 269 -7 l 1,56,57
 127 -2 127 -2 80 7 c 1,58,-1
 82 22 l 1,59,60
 146 16 146 16 306 16 c 0,0,1
EndSplineSet
Substitution2: "'smcp' Lowercase to Small Capitals lookup 1 subtable" dollar.smcp
EndChar

StartChar: percent
Encoding: 37 37 8
Width: 985
GlyphClass: 2
Flags: W
LayerCount: 2
Fore
SplineSet
284 732 m 2,0,-1
 385 732 l 2,1,2
 456 732 456 732 480 702 c 0,3,4
 496 682 496 682 496 654.5 c 128,-1,5
 496 627 496 627 493 607 c 2,6,-1
 472 474 l 2,7,8
 462 407 462 407 430.5 378 c 128,-1,9
 399 349 399 349 326 349 c 2,10,-1
 225 349 l 2,11,12
 153 349 153 349 129 378 c 0,13,14
 112 399 112 399 112 427 c 128,-1,15
 112 455 112 455 115 474 c 2,16,-1
 136 607 l 2,17,18
 146 673 146 673 178.5 702.5 c 128,-1,19
 211 732 211 732 284 732 c 2,0,-1
130 474 m 2,20,21
 127 454 127 454 127 429 c 0,22,23
 127 364 127 364 225 364 c 2,24,-1
 326 364 l 2,25,26
 387 364 387 364 417 387 c 128,-1,27
 447 410 447 410 457 474 c 2,28,-1
 478 607 l 2,29,30
 481 626 481 626 481 650.5 c 128,-1,31
 481 675 481 675 467 692 c 0,32,33
 447 717 447 717 384 717 c 2,34,-1
 283 717 l 2,35,36
 221 717 221 717 191 694 c 128,-1,37
 161 671 161 671 151 607 c 2,38,-1
 130 474 l 2,20,21
225 0 m 1,39,-1
 779 732 l 1,40,-1
 800 732 l 1,41,-1
 246 0 l 1,42,-1
 225 0 l 1,39,-1
712 386 m 2,43,-1
 813 386 l 2,44,45
 885 386 885 386 909 356 c 0,46,47
 926 336 926 336 926 308 c 128,-1,48
 926 280 926 280 923 261 c 2,49,-1
 902 128 l 2,50,51
 892 61 892 61 860 32 c 128,-1,52
 828 3 828 3 755 3 c 2,53,-1
 654 3 l 2,54,55
 583 3 583 3 559 32 c 0,56,57
 542 53 542 53 542 81 c 128,-1,58
 542 109 542 109 545 128 c 2,59,-1
 566 261 l 2,60,61
 576 328 576 328 607.5 357 c 128,-1,62
 639 386 639 386 712 386 c 2,43,-1
560 128 m 2,63,64
 557 108 557 108 557 83 c 0,65,66
 557 18 557 18 654 18 c 2,67,-1
 755 18 l 2,68,69
 816 18 816 18 846.5 41 c 128,-1,70
 877 64 877 64 887 128 c 2,71,-1
 908 261 l 2,72,73
 911 279 911 279 911 304 c 0,74,75
 911 371 911 371 813 371 c 2,76,-1
 712 371 l 2,77,78
 650 371 650 371 620.5 348 c 128,-1,79
 591 325 591 325 581 261 c 2,80,-1
 560 128 l 2,63,64
EndSplineSet
Substitution2: "'smcp' Lowercase to Small Capitals lookup 1 subtable" percent.smcp
EndChar

StartChar: ampersand
Encoding: 38 38 9
Width: 688
GlyphClass: 2
Flags: W
LayerCount: 2
Fore
SplineSet
63 181 m 0,0,1
 63 207 63 207 71 234 c 0,2,3
 95 308 95 308 172 366 c 2,4,-1
 269 439 l 1,5,-1
 220 524 l 2,6,7
 191 573 191 573 191 611 c 0,8,9
 191 661 191 661 223 688.5 c 128,-1,10
 255 716 255 716 294.5 725 c 128,-1,11
 334 734 334 734 404 734 c 128,-1,12
 474 734 474 734 587 724 c 1,13,-1
 585 710 l 1,14,-1
 372 710 l 2,15,16
 271 710 271 710 232 666 c 1,17,18
 215 645 215 645 215 614 c 128,-1,19
 215 583 215 583 238 538 c 1,20,-1
 465 144 l 1,21,-1
 647 295 l 1,22,-1
 654 287 l 1,23,-1
 572 203 l 1,24,-1
 478 125 l 1,25,-1
 552 0 l 1,26,-1
 528 0 l 1,27,-1
 460 111 l 1,28,-1
 378 44 l 2,29,30
 319 -4 319 -4 246 -4 c 0,31,32
 209 -4 209 -4 174 10 c 0,33,34
 122 31 122 31 91 82 c 1,35,36
 63 132 63 132 63 181 c 0,0,1
249 18 m 0,37,38
 308 18 308 18 361 60 c 2,39,-1
 447 130 l 1,40,-1
 281 419 l 1,41,-1
 192 353 l 1,42,43
 85 272 85 272 85 181 c 0,44,45
 85 139 85 139 109 97 c 0,46,47
 156 18 156 18 249 18 c 0,37,38
EndSplineSet
AlternateSubs2: "'salt' Stylistic Alternatives in Latin lookup 16 subtable" ampersand.salt
Substitution2: "'smcp' Lowercase to Small Capitals lookup 1 subtable" ampersand.smcp
EndChar

StartChar: quotesingle
Encoding: 39 39 10
Width: 132
GlyphClass: 2
Flags: W
LayerCount: 2
Fore
SplineSet
90 531 m 1,0,-1
 104 665 l 1,1,-1
 115 732 l 1,2,-1
 140 732 l 1,3,-1
 129 665 l 1,4,-1
 102 531 l 1,5,-1
 90 531 l 1,0,-1
EndSplineSet
Substitution2: "'smcp' Lowercase to Small Capitals lookup 1 subtable" quotesingle.smcp
EndChar

StartChar: parenleft
Encoding: 40 40 11
Width: 275
GlyphClass: 2
Flags: W
LayerCount: 2
Fore
SplineSet
191 546.5 m 128,-1,1
 160 462 160 462 148.5 387 c 128,-1,2
 137 312 137 312 137 271 c 128,-1,3
 137 230 137 230 139 182.5 c 128,-1,4
 141 135 141 135 155 68 c 0,5,6
 180 -50 180 -50 214 -123 c 1,7,-1
 226 -150 l 1,8,-1
 200 -150 l 1,9,10
 195 -141 195 -141 180 -104 c 128,-1,11
 165 -67 165 -67 155 -34 c 0,12,13
 114 98 114 98 114 239 c 0,14,15
 114 482 114 482 230 700 c 1,16,17
 301 831 301 831 348 892 c 1,18,-1
 369 920 l 1,19,-1
 394 920 l 1,20,21
 386 909 386 909 372 890 c 128,-1,22
 358 871 358 871 320.5 811 c 128,-1,23
 283 751 283 751 252.5 691 c 128,-1,0
 222 631 222 631 191 546.5 c 128,-1,1
EndSplineSet
Substitution2: "'case' Case-Sensitive Forms lookup 18 subtable" parenleft.alt
Substitution2: "'c2sc' Capitals to Small Capitals in Latin lookup 2 subtable" parenleft.smcp
Substitution2: "'smcp' Lowercase to Small Capitals lookup 1 subtable" parenleft.smcp
EndChar

StartChar: parenright
Encoding: 41 41 12
Width: 276
GlyphClass: 2
Flags: W
LayerCount: 2
Fore
SplineSet
189.5 214.5 m 128,-1,1
 221 302 221 302 232 376 c 128,-1,2
 243 450 243 450 243 489.5 c 128,-1,3
 243 529 243 529 241 576 c 128,-1,4
 239 623 239 623 225 692 c 0,5,6
 201 810 201 810 168 890 c 2,7,-1
 156 920 l 1,8,-1
 181 920 l 1,9,10
 183 914 183 914 187.5 904 c 128,-1,11
 192 894 192 894 203.5 861.5 c 128,-1,12
 215 829 215 829 224 794 c 0,13,14
 266 645 266 645 266 509 c 0,15,16
 266 363 266 363 212 206 c 0,17,18
 182 119 182 119 149 58 c 0,19,20
 79 -74 79 -74 35 -126 c 2,21,-1
 15 -150 l 1,22,-1
 -13 -150 l 1,23,-1
 9 -122 l 2,24,25
 23 -105 23 -105 59.5 -48 c 128,-1,26
 96 9 96 9 127 68 c 128,-1,0
 158 127 158 127 189.5 214.5 c 128,-1,1
EndSplineSet
Substitution2: "'case' Case-Sensitive Forms lookup 18 subtable" parenright.alt
Substitution2: "'c2sc' Capitals to Small Capitals in Latin lookup 2 subtable" parenright.smcp
Substitution2: "'smcp' Lowercase to Small Capitals lookup 1 subtable" parenright.smcp
EndChar

StartChar: asterisk
Encoding: 42 42 13
Width: 483
GlyphClass: 2
Flags: W
LayerCount: 2
Fore
SplineSet
139 592 m 1,0,-1
 141 606 l 1,1,-1
 284 610 l 1,2,-1
 281 586 l 1,3,-1
 139 592 l 1,0,-1
191 409 m 1,4,-1
 245 543 l 1,5,-1
 270 539 l 1,6,-1
 203 405 l 1,7,-1
 191 409 l 1,4,-1
295 495 m 1,8,-1
 311 518 l 1,9,-1
 416 435 l 1,10,-1
 406 424 l 1,11,-1
 295 495 l 1,8,-1
298 723 m 1,12,-1
 312 727 l 1,13,-1
 359 604 l 1,14,-1
 334 593 l 1,15,-1
 298 723 l 1,12,-1
348 552 m 1,16,-1
 473 635 l 1,17,-1
 480 623 l 1,18,-1
 363 533 l 1,19,-1
 348 552 l 1,16,-1
EndSplineSet
Substitution2: "'smcp' Lowercase to Small Capitals lookup 1 subtable" asterisk.smcp
EndChar

StartChar: plus
Encoding: 43 43 14
Width: 524
GlyphClass: 2
Flags: W
LayerCount: 2
Fore
SplineSet
100 344 m 1,0,-1
 104 368 l 1,1,-1
 285 368 l 1,2,-1
 313 549 l 1,3,-1
 337 549 l 1,4,-1
 309 368 l 1,5,-1
 490 368 l 1,6,-1
 486 344 l 1,7,-1
 305 344 l 1,8,-1
 276 163 l 1,9,-1
 252 163 l 1,10,-1
 281 344 l 1,11,-1
 100 344 l 1,0,-1
EndSplineSet
EndChar

StartChar: comma
Encoding: 44 44 15
Width: 171
GlyphClass: 2
Flags: W
LayerCount: 2
Fore
SplineSet
81 0 m 2,0,1
 69 0 69 0 71 13 c 2,2,-1
 81 75 l 2,3,4
 83 88 83 88 95 88 c 2,5,-1
 105 88 l 2,6,7
 117 88 117 88 115 75 c 2,8,-1
 97 -37 l 2,9,10
 93 -65 93 -65 71 -69 c 0,11,12
 69 -69 69 -69 67 -69 c 128,-1,13
 65 -69 65 -69 60 -68 c 1,14,-1
 61 -62 l 1,15,16
 77 -62 77 -62 80 -47 c 2,17,-1
 87 0 l 1,18,-1
 81 0 l 2,0,1
EndSplineSet
EndChar

StartChar: hyphen
Encoding: 45 45 16
Width: 331
GlyphClass: 2
Flags: W
LayerCount: 2
Fore
SplineSet
60 278 m 1,0,-1
 64 302 l 1,1,-1
 348 302 l 1,2,-1
 344 278 l 1,3,-1
 60 278 l 1,0,-1
EndSplineSet
Substitution2: "'case' Case-Sensitive Forms lookup 18 subtable" hyphen.alt
Substitution2: "'c2sc' Capitals to Small Capitals in Latin lookup 2 subtable" hyphen.smcp
Substitution2: "'smcp' Lowercase to Small Capitals lookup 1 subtable" hyphen.smcp
EndChar

StartChar: period
Encoding: 46 46 17
Width: 172
GlyphClass: 2
Flags: W
LayerCount: 2
Fore
SplineSet
95 86 m 2,0,-1
 106 86 l 2,1,2
 118 86 118 86 116 74 c 2,3,-1
 106 12 l 2,4,5
 104 0 104 0 92 0 c 2,6,-1
 81 0 l 2,7,8
 69 0 69 0 71 12 c 2,9,-1
 81 74 l 2,10,11
 83 86 83 86 95 86 c 2,0,-1
EndSplineSet
EndChar

StartChar: slash
Encoding: 47 47 18
Width: 291
GlyphClass: 2
Flags: W
LayerCount: 2
Fore
SplineSet
8 -72 m 1,0,-1
 422 770 l 1,1,-1
 444 770 l 1,2,-1
 30 -72 l 1,3,-1
 8 -72 l 1,0,-1
EndSplineSet
Substitution2: "'numr' Numerators in Latin lookup 13 subtable" fraction
Substitution2: "'frac' Diagonal Fractions lookup 6 subtable" fraction
EndChar

StartChar: zero
Encoding: 48 48 19
Width: 649
GlyphClass: 2
Flags: W
LayerCount: 2
Fore
SplineSet
383 732 m 2,0,-1
 517 732 l 2,1,2
 604 732 604 732 637 688 c 0,3,4
 662 655 662 655 662 605 c 0,5,6
 662 588 662 588 659 570 c 2,7,-1
 594 162 l 2,8,9
 568 0 568 0 401 0 c 2,10,-1
 267 0 l 2,11,12
 192 0 192 0 150 39 c 0,13,14
 118 69 118 69 118 125 c 0,15,16
 118 142 118 142 121 162 c 2,17,-1
 186 570 l 2,18,19
 198 648 198 648 253 690 c 128,-1,20
 308 732 308 732 383 732 c 2,0,-1
143 132 m 0,21,22
 143 86 143 86 172.5 55 c 128,-1,23
 202 24 202 24 271 24 c 2,24,-1
 405 24 l 2,25,26
 549 24 549 24 570 162 c 2,27,-1
 635 570 l 2,28,29
 638 588 638 588 638 603 c 0,30,31
 638 708 638 708 513 708 c 2,32,-1
 379 708 l 2,33,34
 311 708 311 708 265.5 671.5 c 128,-1,35
 220 635 220 635 210 570 c 2,36,-1
 145 162 l 2,37,38
 143 146 143 146 143 132 c 0,21,22
EndSplineSet
Substitution2: "'dnom' Denominators in Latin lookup 19 subtable" zero.denominator
Substitution2: "'sups' Superscript lookup 17 subtable" zerosuperior
Substitution2: "'onum' Oldstyle Figures in Latin lookup 15 subtable" zero.oldstyle
Substitution2: "'tnum' Tabular Numbers in Latin lookup 14 subtable" zero.tnum
Substitution2: "'numr' Numerators in Latin lookup 13 subtable" zero.numerator
Substitution2: "'zero' Slashed Zero lookup 12 subtable" uni0338
Substitution2: "'sinf' Scientific Inferiors lookup 11 subtable" zeroinferior
Substitution2: "'frac' Diagonal Fractions lookup 5 subtable" zero.numerator
Substitution2: "'smcp' Lowercase to Small Capitals lookup 1 subtable" zero.smcp
EndChar

StartChar: one
Encoding: 49 49 20
Width: 406
GlyphClass: 2
Flags: W
LayerCount: 2
Fore
SplineSet
134 625 m 1,0,-1
 138 640 l 1,1,2
 182 640 182 640 239.5 663 c 128,-1,3
 297 686 297 686 332 709 c 2,4,-1
 367 732 l 1,5,-1
 389 732 l 1,6,-1
 275 0 l 1,7,-1
 251 0 l 1,8,-1
 363 702 l 1,9,10
 324 676 324 676 260.5 650.5 c 128,-1,11
 197 625 197 625 134 625 c 1,0,-1
EndSplineSet
Substitution2: "'dnom' Denominators in Latin lookup 19 subtable" one.denominator
Substitution2: "'sups' Superscript lookup 17 subtable" onesuperior
Substitution2: "'onum' Oldstyle Figures in Latin lookup 15 subtable" one.oldstyle
Substitution2: "'tnum' Tabular Numbers in Latin lookup 14 subtable" one.tnum
Substitution2: "'numr' Numerators in Latin lookup 13 subtable" one.numerator
Substitution2: "'sinf' Scientific Inferiors lookup 11 subtable" oneinferior
Substitution2: "'frac' Diagonal Fractions lookup 5 subtable" one.numerator
Substitution2: "'smcp' Lowercase to Small Capitals lookup 1 subtable" one.smcp
EndChar

StartChar: two
Encoding: 50 50 21
Width: 574
GlyphClass: 2
Flags: W
LayerCount: 2
Fore
SplineSet
580 587 m 0,0,1
 580 646 580 646 552 675 c 0,2,3
 513 717 513 717 422 717 c 2,4,-1
 154 717 l 1,5,-1
 156 732 l 1,6,7
 237 742 237 742 432 742 c 0,8,9
 538 742 538 742 578 686 c 0,10,11
 606 646 606 646 606 585 c 0,12,13
 606 560 606 560 601 530 c 0,14,15
 571 352 571 352 92 24 c 1,16,-1
 521 24 l 1,17,-1
 517 0 l 1,18,-1
 47 0 l 1,19,-1
 51 23 l 1,20,21
 66 30 66 30 158 99 c 128,-1,22
 250 168 250 168 275.5 189 c 128,-1,23
 301 210 301 210 343 244.5 c 128,-1,24
 385 279 385 279 411 304.5 c 128,-1,25
 437 330 437 330 469.5 363.5 c 128,-1,26
 502 397 502 397 521 424 c 0,27,28
 568 489 568 489 574 525.5 c 128,-1,29
 580 562 580 562 580 587 c 0,0,1
EndSplineSet
Substitution2: "'dnom' Denominators in Latin lookup 19 subtable" two.denominator
Substitution2: "'sups' Superscript lookup 17 subtable" twosuperior
Substitution2: "'onum' Oldstyle Figures in Latin lookup 15 subtable" two.oldstyle
Substitution2: "'tnum' Tabular Numbers in Latin lookup 14 subtable" two.tnum
Substitution2: "'numr' Numerators in Latin lookup 13 subtable" two.numerator
Substitution2: "'sinf' Scientific Inferiors lookup 11 subtable" twoinferior
Substitution2: "'frac' Diagonal Fractions lookup 5 subtable" two.numerator
Substitution2: "'smcp' Lowercase to Small Capitals lookup 1 subtable" two.smcp
EndChar

StartChar: three
Encoding: 51 51 22
Width: 579
GlyphClass: 2
Flags: W
LayerCount: 2
Fore
SplineSet
315 18 m 2,0,1
 467 18 467 18 491 166 c 1,2,-1
 500 225 l 2,3,4
 502 237 502 237 502 253 c 128,-1,5
 502 269 502 269 493 290.5 c 128,-1,6
 484 312 484 312 462 326 c 0,7,8
 421 350 421 350 369 352 c 2,9,-1
 157 359 l 1,10,-1
 159 373 l 1,11,-1
 373 379 l 2,12,13
 437 380 437 380 487.5 412 c 128,-1,14
 538 444 538 444 547 504 c 2,15,-1
 557 573 l 2,16,17
 560 590 560 590 560 604 c 0,18,19
 560 651 560 651 528.5 680.5 c 128,-1,20
 497 710 497 710 431 710 c 2,21,-1
 145 710 l 1,22,-1
 147 724 l 1,23,24
 207 735 207 735 299 735 c 128,-1,25
 391 735 391 735 439 734 c 0,26,27
 524 733 524 733 558 688 c 0,28,29
 584 654 584 654 584 605 c 0,30,31
 584 588 584 588 581 569 c 2,32,-1
 571 500 l 1,33,34
 558 420 558 420 487 383 c 0,35,36
 458 368 458 368 429 365 c 1,37,38
 466 359 466 359 497 327.5 c 128,-1,39
 528 296 528 296 528 249 c 0,40,41
 528 235 528 235 526 220 c 2,42,-1
 517 161 l 2,43,44
 491 -7 491 -7 313 -7 c 0,45,46
 91 -7 91 -7 39 4 c 1,47,-1
 42 18 l 1,48,-1
 315 18 l 2,0,1
EndSplineSet
Substitution2: "'dnom' Denominators in Latin lookup 19 subtable" three.denominator
Substitution2: "'sups' Superscript lookup 17 subtable" threesuperior
Substitution2: "'onum' Oldstyle Figures in Latin lookup 15 subtable" three.oldstyle
Substitution2: "'tnum' Tabular Numbers in Latin lookup 14 subtable" three.tnum
Substitution2: "'numr' Numerators in Latin lookup 13 subtable" three.numerator
Substitution2: "'sinf' Scientific Inferiors lookup 11 subtable" threeinferior
Substitution2: "'frac' Diagonal Fractions lookup 5 subtable" three.numerator
Substitution2: "'smcp' Lowercase to Small Capitals lookup 1 subtable" three.smcp
EndChar

StartChar: four
Encoding: 52 52 23
Width: 572
GlyphClass: 2
Flags: W
LayerCount: 2
Fore
SplineSet
55 237 m 1,0,-1
 440 732 l 1,1,-1
 467 732 l 1,2,-1
 84 236 l 1,3,-1
 462 236 l 1,4,-1
 499 472 l 1,5,-1
 521 547 l 1,6,-1
 535 547 l 1,7,-1
 486 236 l 1,8,-1
 576 236 l 1,9,-1
 574 222 l 1,10,-1
 482 212 l 1,11,-1
 449 2 l 1,12,-1
 425 2 l 1,13,-1
 458 212 l 1,14,-1
 63 212 l 1,15,-1
 55 237 l 1,0,-1
EndSplineSet
Substitution2: "'dnom' Denominators in Latin lookup 19 subtable" four.denominator
Substitution2: "'sups' Superscript lookup 17 subtable" foursuperior
Substitution2: "'onum' Oldstyle Figures in Latin lookup 15 subtable" four.oldstyle
Substitution2: "'tnum' Tabular Numbers in Latin lookup 14 subtable" four.tnum
Substitution2: "'numr' Numerators in Latin lookup 13 subtable" four.numerator
Substitution2: "'sinf' Scientific Inferiors lookup 11 subtable" fourinferior
Substitution2: "'frac' Diagonal Fractions lookup 5 subtable" four.numerator
Substitution2: "'smcp' Lowercase to Small Capitals lookup 1 subtable" four.smcp
EndChar

StartChar: five
Encoding: 53 53 24
Width: 627
GlyphClass: 2
Flags: W
LayerCount: 2
Fore
SplineSet
378 20 m 2,0,1
 436 20 436 20 486.5 59 c 128,-1,2
 537 98 537 98 548 168 c 2,3,-1
 563 263 l 2,4,5
 566 284 566 284 566 302 c 0,6,7
 566 407 566 407 451 407 c 2,8,-1
 298 407 l 2,9,10
 247 407 247 407 201 369 c 128,-1,11
 155 331 155 331 148 282 c 1,12,-1
 124 282 l 1,13,-1
 217 732 l 1,14,-1
 640 732 l 1,15,-1
 636 708 l 1,16,-1
 236 708 l 1,17,-1
 165 365 l 1,18,19
 174 377 174 377 187.5 389.5 c 128,-1,20
 201 402 201 402 232 416.5 c 128,-1,21
 263 431 263 431 298 431 c 2,22,-1
 450 431 l 2,23,24
 534 431 534 431 566 386 c 1,25,26
 590 354 590 354 590 304 c 0,27,28
 590 286 590 286 587 265 c 2,29,-1
 571 166 l 2,30,31
 563 118 563 118 541 82.5 c 128,-1,32
 519 47 519 47 490 30 c 0,33,34
 434 -4 434 -4 381 -4 c 0,35,36
 149 -4 149 -4 79 6 c 1,37,-1
 81 20 l 1,38,-1
 378 20 l 2,0,1
EndSplineSet
Substitution2: "'dnom' Denominators in Latin lookup 19 subtable" five.denominator
Substitution2: "'sups' Superscript lookup 17 subtable" fivesuperior
Substitution2: "'onum' Oldstyle Figures in Latin lookup 15 subtable" five.oldstyle
Substitution2: "'tnum' Tabular Numbers in Latin lookup 14 subtable" five.tnum
Substitution2: "'numr' Numerators in Latin lookup 13 subtable" five.numerator
Substitution2: "'sinf' Scientific Inferiors lookup 11 subtable" fiveinferior
Substitution2: "'frac' Diagonal Fractions lookup 5 subtable" five.numerator
Substitution2: "'smcp' Lowercase to Small Capitals lookup 1 subtable" five.smcp
EndChar

StartChar: six
Encoding: 54 54 25
Width: 635
GlyphClass: 2
Flags: W
LayerCount: 2
Fore
SplineSet
352 738 m 0,0,1
 545 738 545 738 622 729 c 1,2,-1
 620 714 l 1,3,-1
 354 714 l 2,4,5
 309 714 309 714 271.5 681 c 128,-1,6
 234 648 234 648 210 595 c 0,7,8
 166 498 166 498 149 394 c 1,9,10
 245 405 245 405 425 405 c 0,11,12
 519 405 519 405 551 366 c 0,13,14
 575 337 575 337 575 292 c 0,15,16
 575 276 575 276 572 259 c 2,17,-1
 554 148 l 2,18,19
 541 67 541 67 499.5 33 c 128,-1,20
 458 -1 458 -1 384 -1 c 2,21,-1
 260 -1 l 2,22,23
 217 -1 217 -1 186 16.5 c 128,-1,24
 155 34 155 34 133 78 c 0,25,26
 110 124 110 124 110 200.5 c 128,-1,27
 110 277 110 277 124 384 c 1,28,29
 153 566 153 566 214.5 652 c 128,-1,30
 276 738 276 738 352 738 c 0,0,1
133 223 m 0,31,32
 133 23 133 23 259 23 c 2,33,-1
 378 23 l 2,34,35
 509 23 509 23 529 146 c 2,36,-1
 546 252 l 2,37,38
 549 273 549 273 549 290 c 0,39,40
 549 334 549 334 523.5 357 c 128,-1,41
 498 380 498 380 429 380 c 2,42,-1
 147 380 l 1,43,44
 133 290 133 290 133 223 c 0,31,32
EndSplineSet
Substitution2: "'dnom' Denominators in Latin lookup 19 subtable" six.denominator
Substitution2: "'sups' Superscript lookup 17 subtable" sixsuperior
Substitution2: "'onum' Oldstyle Figures in Latin lookup 15 subtable" six.oldstyle
Substitution2: "'tnum' Tabular Numbers in Latin lookup 14 subtable" six.tnum
Substitution2: "'numr' Numerators in Latin lookup 13 subtable" six.numerator
Substitution2: "'sinf' Scientific Inferiors lookup 11 subtable" sixinferior
Substitution2: "'frac' Diagonal Fractions lookup 5 subtable" six.numerator
Substitution2: "'smcp' Lowercase to Small Capitals lookup 1 subtable" six.smcp
EndChar

StartChar: seven
Encoding: 55 55 26
Width: 540
GlyphClass: 2
Flags: W
LayerCount: 2
Fore
SplineSet
134 708 m 1,0,-1
 138 732 l 1,1,-1
 576 732 l 1,2,-1
 588 709 l 1,3,-1
 238 0 l 1,4,-1
 210 0 l 1,5,-1
 560 708 l 1,6,-1
 134 708 l 1,0,-1
EndSplineSet
Substitution2: "'dnom' Denominators in Latin lookup 19 subtable" seven.denominator
Substitution2: "'sups' Superscript lookup 17 subtable" sevensuperior
Substitution2: "'onum' Oldstyle Figures in Latin lookup 15 subtable" seven.oldstyle
Substitution2: "'tnum' Tabular Numbers in Latin lookup 14 subtable" seven.tnum
Substitution2: "'numr' Numerators in Latin lookup 13 subtable" seven.numerator
Substitution2: "'sinf' Scientific Inferiors lookup 11 subtable" seveninferior
Substitution2: "'frac' Diagonal Fractions lookup 5 subtable" seven.numerator
Substitution2: "'smcp' Lowercase to Small Capitals lookup 1 subtable" seven.smcp
EndChar

StartChar: eight
Encoding: 56 56 27
Width: 644
GlyphClass: 2
Flags: W
LayerCount: 2
Fore
SplineSet
118 114 m 1,0,-1
 121 154 l 1,1,-1
 136 253 l 2,2,3
 144 305 144 305 181.5 335.5 c 128,-1,4
 219 366 219 366 254 366 c 1,5,6
 172 380 172 380 172 469 c 0,7,8
 172 486 172 486 175 506 c 2,9,-1
 185 571 l 2,10,11
 200 665 200 665 248.5 701 c 128,-1,12
 297 737 297 737 382 737 c 2,13,-1
 498 737 l 2,14,15
 643 737 643 737 643 605 c 0,16,17
 643 583 643 583 639 557 c 2,18,-1
 629 492 l 2,19,20
 622 450 622 450 590.5 416.5 c 128,-1,21
 559 383 559 383 518 380 c 1,22,23
 592 358 592 358 592 282 c 0,24,25
 592 268 592 268 590 252 c 2,26,-1
 575 154 l 1,27,28
 558 50 558 50 480 17 c 0,29,30
 440 0 440 0 394 0 c 2,31,-1
 279 0 l 2,32,33
 230 0 230 0 196 12 c 128,-1,34
 162 24 162 24 148 42 c 0,35,36
 118 80 118 80 118 114 c 1,0,-1
143 124 m 0,37,38
 143 79 143 79 178 51.5 c 128,-1,39
 213 24 213 24 283 24 c 2,40,-1
 391 24 l 2,41,42
 445 24 445 24 491.5 54.5 c 128,-1,43
 538 85 538 85 548 151 c 2,44,-1
 565 256 l 2,45,46
 568 272 568 272 568 287 c 0,47,48
 568 335 568 335 533 349 c 0,49,50
 511 358 511 358 496 360 c 128,-1,51
 481 362 481 362 454 362 c 2,52,-1
 321 362 l 2,53,54
 273 362 273 362 222 336 c 128,-1,55
 171 310 171 310 162 256 c 2,56,-1
 145 151 l 2,57,58
 143 137 143 137 143 124 c 0,37,38
198 494 m 2,59,60
 196 479 196 479 196 463.5 c 128,-1,61
 196 448 196 448 202.5 429.5 c 128,-1,62
 209 411 209 411 230 401 c 0,63,64
 264 385 264 385 322 385 c 2,65,-1
 451 385 l 2,66,67
 518 385 518 385 558 419 c 128,-1,68
 598 453 598 453 604 494 c 2,69,-1
 615 562 l 2,70,71
 618 585 618 585 618 604 c 0,72,73
 618 652 618 652 596 678 c 0,74,75
 566 713 566 713 494 713 c 2,76,-1
 380 713 l 2,77,78
 299 713 299 713 259 677 c 128,-1,79
 219 641 219 641 208 562 c 2,80,-1
 198 494 l 2,59,60
EndSplineSet
Substitution2: "'dnom' Denominators in Latin lookup 19 subtable" eight.denominator
Substitution2: "'sups' Superscript lookup 17 subtable" eightsuperior
Substitution2: "'onum' Oldstyle Figures in Latin lookup 15 subtable" eight.oldstyle
Substitution2: "'tnum' Tabular Numbers in Latin lookup 14 subtable" eight.tnum
Substitution2: "'numr' Numerators in Latin lookup 13 subtable" eight.numerator
Substitution2: "'sinf' Scientific Inferiors lookup 11 subtable" eightinferior
Substitution2: "'frac' Diagonal Fractions lookup 5 subtable" eight.numerator
Substitution2: "'smcp' Lowercase to Small Capitals lookup 1 subtable" eight.smcp
EndChar

StartChar: nine
Encoding: 57 57 28
Width: 636
GlyphClass: 2
Flags: W
LayerCount: 2
Fore
SplineSet
368 18 m 2,0,1
 414 18 414 18 451.5 51 c 128,-1,2
 489 84 489 84 513 138 c 0,3,4
 556 234 556 234 573 338 c 1,5,6
 477 327 477 327 290 327 c 0,7,8
 197 327 197 327 168 368 c 0,9,10
 147 397 147 397 147 442 c 0,11,12
 147 459 147 459 150 478 c 2,13,-1
 168 589 l 2,14,15
 181 668 181 668 228 700.5 c 128,-1,16
 275 733 275 733 352 733 c 2,17,-1
 468 733 l 2,18,19
 614 733 614 733 614 507 c 0,20,21
 614 435 614 435 599 339 c 0,22,23
 570 158 570 158 508.5 76 c 128,-1,24
 447 -6 447 -6 371 -6 c 0,25,26
 177 -6 177 -6 100 3 c 1,27,-1
 102 18 l 1,28,-1
 368 18 l 2,0,1
174 473 m 2,29,30
 171 455 171 455 171 439 c 128,-1,31
 171 423 171 423 176.5 404 c 128,-1,32
 182 385 182 385 202 373 c 0,33,34
 236 352 236 352 298 352 c 2,35,-1
 575 352 l 1,36,37
 590 444 590 444 590 512 c 0,38,39
 590 709 590 709 468 709 c 2,40,-1
 348 709 l 2,41,42
 210 709 210 709 191 586 c 2,43,-1
 174 473 l 2,29,30
EndSplineSet
Substitution2: "'dnom' Denominators in Latin lookup 19 subtable" nine.denominator
Substitution2: "'sups' Superscript lookup 17 subtable" ninesuperior
Substitution2: "'onum' Oldstyle Figures in Latin lookup 15 subtable" nine.oldstyle
Substitution2: "'tnum' Tabular Numbers in Latin lookup 14 subtable" nine.tnum
Substitution2: "'numr' Numerators in Latin lookup 13 subtable" nine.numerator
Substitution2: "'sinf' Scientific Inferiors lookup 11 subtable" nineinferior
Substitution2: "'frac' Diagonal Fractions lookup 5 subtable" nine.numerator
Substitution2: "'smcp' Lowercase to Small Capitals lookup 1 subtable" nine.smcp
EndChar

StartChar: colon
Encoding: 58 58 29
Width: 177
GlyphClass: 2
Flags: W
LayerCount: 2
Fore
SplineSet
100 86 m 2,0,-1
 111 86 l 2,1,2
 123 86 123 86 121 74 c 2,3,-1
 111 12 l 2,4,5
 109 0 109 0 97 0 c 2,6,-1
 86 0 l 2,7,8
 74 0 74 0 76 12 c 2,9,-1
 86 74 l 2,10,11
 88 86 88 86 100 86 c 2,0,-1
165 530 m 2,12,-1
 176 530 l 2,13,14
 188 530 188 530 186 518 c 2,15,-1
 176 455 l 2,16,17
 174 444 174 444 162 444 c 2,18,-1
 151 444 l 2,19,20
 139 444 139 444 141 455 c 2,21,-1
 151 518 l 2,22,23
 153 530 153 530 165 530 c 2,12,-1
EndSplineSet
EndChar

StartChar: semicolon
Encoding: 59 59 30
Width: 172
GlyphClass: 2
Flags: W
LayerCount: 2
Fore
SplineSet
81 0 m 2,0,1
 69 0 69 0 71 13 c 2,2,-1
 81 75 l 2,3,4
 83 88 83 88 95 88 c 2,5,-1
 105 88 l 2,6,7
 117 88 117 88 115 75 c 2,8,-1
 97 -37 l 2,9,10
 93 -65 93 -65 71 -69 c 0,11,12
 69 -69 69 -69 67 -69 c 128,-1,13
 65 -69 65 -69 60 -68 c 1,14,-1
 61 -62 l 1,15,16
 77 -62 77 -62 80 -47 c 2,17,-1
 87 0 l 1,18,-1
 81 0 l 2,0,1
165 530 m 2,19,-1
 176 530 l 2,20,21
 188 530 188 530 186 518 c 2,22,-1
 176 455 l 2,23,24
 174 444 174 444 162 444 c 2,25,-1
 151 444 l 2,26,27
 139 444 139 444 141 455 c 2,28,-1
 151 518 l 2,29,30
 153 530 153 530 165 530 c 2,19,-1
EndSplineSet
EndChar

StartChar: less
Encoding: 60 60 31
Width: 472
GlyphClass: 2
Flags: W
LayerCount: 2
Fore
SplineSet
99 345 m 1,0,-1
 102 365 l 1,1,-1
 478 557 l 1,2,-1
 473 531 l 1,3,-1
 129 354 l 1,4,-1
 415 165 l 1,5,-1
 412 141 l 1,6,-1
 99 345 l 1,0,-1
EndSplineSet
EndChar

StartChar: equal
Encoding: 61 61 32
Width: 462
GlyphClass: 2
Flags: W
LayerCount: 2
Fore
SplineSet
53 212 m 1,0,-1
 57 236 l 1,1,-1
 484 236 l 1,2,-1
 480 212 l 1,3,-1
 53 212 l 1,0,-1
94 471 m 1,4,-1
 98 495 l 1,5,-1
 525 495 l 1,6,-1
 521 471 l 1,7,-1
 94 471 l 1,4,-1
EndSplineSet
EndChar

StartChar: greater
Encoding: 62 62 33
Width: 473
GlyphClass: 2
Flags: W
LayerCount: 2
Fore
SplineSet
72 141 m 1,0,-1
 76 168 l 1,1,-1
 424 357 l 1,2,-1
 134 534 l 1,3,-1
 138 557 l 1,4,-1
 452 365 l 1,5,-1
 449 345 l 1,6,-1
 72 141 l 1,0,-1
EndSplineSet
EndChar

StartChar: question
Encoding: 63 63 34
Width: 543
GlyphClass: 2
Flags: W
LayerCount: 2
Fore
SplineSet
380 739 m 0,0,1
 488 739 488 739 526 694 c 0,2,3
 554 660 554 660 554 602 c 0,4,5
 554 580 554 580 550 554 c 2,6,-1
 535 453 l 1,7,8
 519 353 519 353 452 318 c 0,9,10
 404 293 404 293 318 293 c 0,11,12
 284 293 284 293 243 297 c 1,13,-1
 227 195 l 1,14,-1
 201 195 l 1,15,-1
 220 317 l 1,16,-1
 322 317 l 2,17,18
 404 317 404 317 451 348.5 c 128,-1,19
 498 380 498 380 510 453 c 2,20,-1
 526 554 l 2,21,22
 529 577 529 577 529 597 c 0,23,24
 529 651 529 651 504 678 c 0,25,26
 468 715 468 715 374 715 c 2,27,-1
 125 715 l 1,28,-1
 127 729 l 1,29,30
 215 739 215 739 375 739 c 0,31,32
 377 739 377 739 380 739 c 0,0,1
195 86 m 2,33,-1
 206 86 l 2,34,35
 218 86 218 86 216 74 c 2,36,-1
 206 12 l 2,37,38
 204 0 204 0 192 0 c 2,39,-1
 181 0 l 2,40,41
 169 0 169 0 171 12 c 2,42,-1
 181 74 l 2,43,44
 183 86 183 86 195 86 c 2,33,-1
EndSplineSet
Substitution2: "'smcp' Lowercase to Small Capitals lookup 1 subtable" question.smcp
EndChar

StartChar: at
Encoding: 64 64 35
Width: 901
GlyphClass: 2
Flags: W
LayerCount: 2
Fore
SplineSet
350 699 m 2,0,-1
 725 699 l 2,1,2
 807 699 807 699 842 653 c 0,3,4
 868 619 868 619 868 564 c 0,5,6
 868 544 868 544 865 521 c 2,7,-1
 812 167 l 2,8,9
 808 134 808 134 794 101 c 128,-1,10
 780 68 780 68 763.5 50 c 128,-1,11
 747 32 747 32 715.5 17.5 c 128,-1,12
 684 3 684 3 643 3 c 2,13,-1
 614 3 l 1,14,-1
 616 63 l 1,15,16
 593 38 593 38 529 18 c 0,17,18
 462 -4 462 -4 404 -4 c 0,19,20
 316 -4 316 -4 276 55 c 0,21,22
 249 94 249 94 249 172 c 0,23,24
 249 217 249 217 258 275 c 0,25,26
 297 527 297 527 473 544 c 0,27,28
 490 546 490 546 521.5 546 c 128,-1,29
 553 546 553 546 608 531.5 c 128,-1,30
 663 517 663 517 700 482 c 1,31,-1
 633 26 l 1,32,33
 767 26 767 26 788 167 c 2,34,-1
 841 521 l 2,35,36
 845 546 845 546 845 566 c 0,37,38
 845 616 845 616 822 640 c 1,39,40
 791 675 791 675 724 675 c 2,41,-1
 350 675 l 2,42,43
 193 675 193 675 169 521 c 2,44,-1
 88 9 l 2,45,46
 85 -10 85 -10 85 -27 c 0,47,48
 85 -79 85 -79 113 -112 c 0,49,50
 150 -155 150 -155 217 -155 c 2,51,-1
 601 -155 l 1,52,-1
 599 -169 l 1,53,54
 549 -179 549 -179 309 -179 c 2,55,-1
 211 -179 l 2,56,57
 134 -179 134 -179 92 -126 c 1,58,59
 61 -85 61 -85 61 -28 c 0,60,61
 61 -10 61 -10 64 9 c 2,62,-1
 145 521 l 2,63,64
 174 699 174 699 350 699 c 2,0,-1
280 254 m 1,65,66
 274 216 274 216 274 192 c 128,-1,67
 274 168 274 168 277.5 140 c 128,-1,68
 281 112 281 112 290 86 c 128,-1,69
 299 60 299 60 318 46 c 0,70,71
 353 20 353 20 402 20 c 0,72,73
 406 20 406 20 410 20 c 0,74,75
 537 20 537 20 617 80 c 1,76,-1
 676 479 l 1,77,78
 600 519 600 519 497 519 c 0,79,80
 490 519 490 519 483 519 c 0,81,82
 312 513 312 513 280 254 c 1,65,66
EndSplineSet
Substitution2: "'case' Case-Sensitive Forms lookup 18 subtable" at.alt
Substitution2: "'smcp' Lowercase to Small Capitals lookup 1 subtable" at.smcp
EndChar

StartChar: A
Encoding: 65 65 36
Width: 643
GlyphClass: 2
Flags: W
LayerCount: 2
Fore
SplineSet
45 0 m 1,0,-1
 435 732 l 1,1,-1
 469 732 l 1,2,-1
 615 0 l 1,3,-1
 591 0 l 1,4,-1
 540 253 l 1,5,-1
 207 253 l 1,6,-1
 73 0 l 1,7,-1
 45 0 l 1,0,-1
220 277 m 1,8,-1
 535 277 l 1,9,-1
 449 709 l 1,10,-1
 220 277 l 1,8,-1
EndSplineSet
Substitution2: "'c2sc' Capitals to Small Capitals in Latin lookup 2 subtable" a.smcp
EndChar

StartChar: B
Encoding: 66 66 37
Width: 590
GlyphClass: 2
Flags: W
LayerCount: 2
Fore
SplineSet
449 732 m 2,0,1
 554 732 554 732 590 688 c 0,2,3
 615 656 615 656 615 603 c 0,4,5
 615 505 615 505 553 440 c 0,6,7
 506 390 506 390 455 384 c 1,8,9
 497 374 497 374 529 329.5 c 128,-1,10
 561 285 561 285 561 233 c 0,11,12
 561 216 561 216 558 197 c 0,13,14
 527 0 527 0 333 0 c 2,15,-1
 80 0 l 1,16,-1
 196 732 l 1,17,-1
 449 732 l 2,0,1
337 25 m 2,18,19
 506 25 506 25 535 204 c 0,20,21
 537 218 537 218 537 232 c 0,22,23
 537 283 537 283 500 327 c 128,-1,24
 463 371 463 371 397 371 c 0,25,26
 395 371 395 371 392 371 c 2,27,-1
 163 371 l 1,28,-1
 108 25 l 1,29,-1
 337 25 l 2,18,19
396 395 m 2,30,31
 466 395 466 395 518.5 438.5 c 128,-1,32
 571 482 571 482 586 555 c 0,33,34
 592 583 592 583 592 606 c 0,35,36
 592 652 592 652 568 674 c 0,37,38
 533 708 533 708 445 708 c 2,39,-1
 216 708 l 1,40,-1
 167 395 l 1,41,-1
 396 395 l 2,30,31
EndSplineSet
Substitution2: "'c2sc' Capitals to Small Capitals in Latin lookup 2 subtable" b.smcp
EndChar

StartChar: C
Encoding: 67 67 38
Width: 564
GlyphClass: 2
Flags: W
LayerCount: 2
Fore
SplineSet
290 716.5 m 128,-1,1
 342 740 342 740 422.5 740 c 128,-1,2
 503 740 503 740 629 716 c 1,3,-1
 627 702 l 1,4,5
 613 704 613 704 600.5 705 c 128,-1,6
 588 706 588 706 572 707.5 c 128,-1,7
 556 709 556 709 536.5 710.5 c 128,-1,8
 517 712 517 712 497 713 c 0,9,10
 437 716 437 716 415 716 c 0,11,12
 337 716 337 716 287 688 c 0,13,14
 183 628 183 628 141 366 c 0,15,16
 130 296 130 296 130 241 c 0,17,18
 130 18 130 18 306 18 c 0,19,20
 400 18 400 18 490 27 c 2,21,-1
 520 30 l 1,22,-1
 518 16 l 1,23,24
 396 -6 396 -6 301 -6 c 0,25,26
 105 -6 105 -6 105 240 c 0,27,28
 105 301 105 301 118.5 385 c 128,-1,29
 132 469 132 469 151 531 c 128,-1,30
 170 593 170 593 204 643 c 128,-1,0
 238 693 238 693 290 716.5 c 128,-1,1
EndSplineSet
Substitution2: "'c2sc' Capitals to Small Capitals in Latin lookup 2 subtable" c.smcp
EndChar

StartChar: D
Encoding: 68 68 39
Width: 658
GlyphClass: 2
Flags: W
LayerCount: 2
Fore
SplineSet
448 732 m 2,0,1
 513 732 513 732 558 706.5 c 128,-1,2
 603 681 603 681 625 642 c 0,3,4
 662 578 662 578 662 477 c 0,5,6
 662 426 662 426 648.5 352.5 c 128,-1,7
 635 279 635 279 611 218 c 128,-1,8
 587 157 587 157 550.5 106.5 c 128,-1,9
 514 56 514 56 460 28 c 128,-1,10
 406 0 406 0 339 0 c 2,11,-1
 80 0 l 1,12,-1
 196 732 l 1,13,-1
 448 732 l 2,0,1
339 24 m 2,14,15
 404 24 404 24 456.5 55.5 c 128,-1,16
 509 87 509 87 542 140 c 0,17,18
 606 241 606 241 626 364 c 0,19,20
 637 430 637 430 637 482 c 0,21,22
 637 570 637 570 607 623 c 0,23,24
 559 708 559 708 443 708 c 2,25,-1
 216 708 l 1,26,-1
 108 24 l 1,27,-1
 339 24 l 2,14,15
EndSplineSet
Substitution2: "'c2sc' Capitals to Small Capitals in Latin lookup 2 subtable" d.smcp
EndChar

StartChar: E
Encoding: 69 69 40
Width: 561
GlyphClass: 2
Flags: W
LayerCount: 2
Fore
SplineSet
313 732 m 0,0,1
 317 732 317 732 320 732 c 2,2,-1
 616 722 l 1,3,-1
 614 708 l 1,4,-1
 317 708 l 2,5,6
 215 708 215 708 198 602 c 2,7,-1
 162 375 l 1,8,-1
 520 370 l 1,9,-1
 518 356 l 1,10,-1
 158 351 l 1,11,-1
 122 123 l 2,12,13
 119 106 119 106 119 93 c 0,14,15
 119 56 119 56 142.5 38.5 c 128,-1,16
 166 21 166 21 218 21 c 2,17,-1
 505 21 l 1,18,-1
 503 7 l 1,19,-1
 214 -3 l 2,20,21
 210 -3 210 -3 206 -3 c 0,22,23
 95 -3 95 -3 95 91 c 0,24,25
 95 108 95 108 98 128 c 2,26,-1
 174 607 l 2,27,28
 185 675 185 675 224 703.5 c 128,-1,29
 263 732 263 732 313 732 c 0,0,1
EndSplineSet
Substitution2: "'c2sc' Capitals to Small Capitals in Latin lookup 2 subtable" e.smcp
EndChar

StartChar: F
Encoding: 70 70 41
Width: 555
GlyphClass: 2
Flags: W
LayerCount: 2
Fore
SplineSet
313 732 m 0,0,1
 317 732 317 732 321 732 c 2,2,-1
 617 722 l 1,3,-1
 615 708 l 1,4,-1
 316 708 l 2,5,6
 265 708 265 708 236.5 683 c 128,-1,7
 208 658 208 658 199 602 c 2,8,-1
 163 375 l 1,9,-1
 522 370 l 1,10,-1
 519 356 l 1,11,-1
 160 351 l 1,12,-1
 104 0 l 1,13,-1
 80 0 l 1,14,-1
 174 598 l 2,15,16
 186 677 186 677 223 704.5 c 128,-1,17
 260 732 260 732 313 732 c 0,0,1
EndSplineSet
Substitution2: "'c2sc' Capitals to Small Capitals in Latin lookup 2 subtable" f.smcp
EndChar

StartChar: G
Encoding: 71 71 42
Width: 640
GlyphClass: 2
Flags: W
LayerCount: 2
Fore
SplineSet
300 720.5 m 128,-1,1
 344 740 344 740 392.5 740 c 128,-1,2
 441 740 441 740 518.5 731.5 c 128,-1,3
 596 723 596 723 647 713 c 1,4,-1
 644 694 l 1,5,-1
 602 700 l 1,6,7
 474 716 474 716 398 716 c 0,8,9
 282 716 282 716 229.5 632 c 128,-1,10
 177 548 177 548 149 368 c 1,11,12
 132 271 132 271 132 205.5 c 128,-1,13
 132 140 132 140 146 100 c 1,14,15
 177 19 177 19 293 19 c 0,16,17
 362 19 362 19 494 56 c 1,18,-1
 538 69 l 1,19,-1
 584 364 l 1,20,-1
 370 364 l 1,21,-1
 373 378 l 1,22,23
 415 389 415 389 495.5 389 c 128,-1,24
 576 389 576 389 612 386 c 1,25,-1
 551 0 l 1,26,-1
 537 0 l 1,27,-1
 537 54 l 1,28,29
 502 37 502 37 425 16 c 128,-1,30
 348 -5 348 -5 293.5 -5 c 128,-1,31
 239 -5 239 -5 203 7.5 c 128,-1,32
 167 20 167 20 147 47.5 c 128,-1,33
 127 75 127 75 117 106.5 c 128,-1,34
 107 138 107 138 107 186 c 0,35,36
 107 259 107 259 121.5 352.5 c 128,-1,37
 136 446 136 446 147 493 c 128,-1,38
 158 540 158 540 179 590.5 c 128,-1,39
 200 641 200 641 228 671 c 128,-1,0
 256 701 256 701 300 720.5 c 128,-1,1
EndSplineSet
Substitution2: "'c2sc' Capitals to Small Capitals in Latin lookup 2 subtable" g.smcp
EndChar

StartChar: H
Encoding: 72 72 43
Width: 651
GlyphClass: 2
Flags: W
LayerCount: 2
Fore
SplineSet
85 0 m 1,0,-1
 201 732 l 1,1,-1
 225 732 l 1,2,-1
 167 366 l 1,3,-1
 607 366 l 1,4,-1
 665 732 l 1,5,-1
 689 732 l 1,6,-1
 573 0 l 1,7,-1
 549 0 l 1,8,-1
 603 342 l 1,9,-1
 163 342 l 1,10,-1
 109 0 l 1,11,-1
 85 0 l 1,0,-1
EndSplineSet
Substitution2: "'c2sc' Capitals to Small Capitals in Latin lookup 2 subtable" h.smcp
EndChar

StartChar: I
Encoding: 73 73 44
Width: 192
GlyphClass: 2
Flags: W
LayerCount: 2
Fore
SplineSet
90 0 m 1,0,-1
 206 732 l 1,1,-1
 230 732 l 1,2,-1
 114 0 l 1,3,-1
 90 0 l 1,0,-1
EndSplineSet
Substitution2: "'c2sc' Capitals to Small Capitals in Latin lookup 2 subtable" i.smcp
EndChar

StartChar: J
Encoding: 74 74 45
Width: 319
GlyphClass: 2
Flags: W
LayerCount: 2
Fore
SplineSet
130 19 m 0,0,1
 247 19 247 19 271 165 c 2,2,-1
 361 732 l 1,3,-1
 385 732 l 1,4,-1
 295 165 l 1,5,6
 279 57 279 57 220 18 c 0,7,8
 185 -5 185 -5 133 -5 c 0,9,10
 74 -5 74 -5 38 21 c 1,11,-1
 44 35 l 1,12,13
 92 19 92 19 130 19 c 0,0,1
EndSplineSet
Substitution2: "'c2sc' Capitals to Small Capitals in Latin lookup 2 subtable" j.smcp
EndChar

StartChar: K
Encoding: 75 75 46
Width: 528
GlyphClass: 2
Flags: W
LayerCount: 2
Fore
SplineSet
80 0 m 1,0,-1
 196 732 l 1,1,-1
 220 732 l 1,2,-1
 164 379 l 1,3,-1
 317 379 l 1,4,-1
 611 732 l 1,5,-1
 641 732 l 1,6,-1
 339 368 l 1,7,-1
 526 0 l 1,8,-1
 498 0 l 1,9,-1
 317 355 l 1,10,-1
 161 355 l 1,11,-1
 105 0 l 1,12,-1
 80 0 l 1,0,-1
EndSplineSet
Substitution2: "'c2sc' Capitals to Small Capitals in Latin lookup 2 subtable" k.smcp
EndChar

StartChar: L
Encoding: 76 76 47
Width: 547
GlyphClass: 2
Flags: W
LayerCount: 2
Fore
SplineSet
120 96 m 0,0,1
 120 59 120 59 144 41.5 c 128,-1,2
 168 24 168 24 219 24 c 2,3,-1
 495 24 l 1,4,-1
 491 0 l 1,5,-1
 220 0 l 2,6,7
 163 0 163 0 128 20 c 0,8,9
 96 39 96 39 96 93 c 0,10,11
 96 108 96 108 99 126 c 2,12,-1
 195 732 l 1,13,-1
 219 732 l 1,14,-1
 123 126 l 2,15,16
 120 109 120 109 120 96 c 0,0,1
EndSplineSet
Substitution2: "'c2sc' Capitals to Small Capitals in Latin lookup 2 subtable" l.smcp
EndChar

StartChar: M
Encoding: 77 77 48
Width: 770
GlyphClass: 2
Flags: W
LayerCount: 2
Fore
SplineSet
71 0 m 1,0,-1
 268 732 l 1,1,-1
 302 732 l 1,2,-1
 407 41 l 1,3,-1
 725 732 l 1,4,-1
 764 732 l 1,5,-1
 732 0 l 1,6,-1
 707 0 l 1,7,-1
 739 701 l 1,8,-1
 415 0 l 1,9,-1
 387 0 l 1,10,-1
 284 696 l 1,11,-1
 96 0 l 1,12,-1
 71 0 l 1,0,-1
EndSplineSet
AlternateSubs2: "'salt' Stylistic Alternatives in Latin lookup 16 subtable" M.salt
Substitution2: "'c2sc' Capitals to Small Capitals in Latin lookup 2 subtable" m.smcp
EndChar

StartChar: N
Encoding: 78 78 49
Width: 642
GlyphClass: 2
Flags: W
LayerCount: 2
Fore
SplineSet
80 0 m 1,0,-1
 196 732 l 1,1,-1
 221 732 l 1,2,-1
 551 43 l 1,3,-1
 661 732 l 1,4,-1
 685 732 l 1,5,-1
 569 0 l 1,6,-1
 545 0 l 1,7,-1
 214 690 l 1,8,-1
 104 0 l 1,9,-1
 80 0 l 1,0,-1
EndSplineSet
AlternateSubs2: "'salt' Stylistic Alternatives in Latin lookup 16 subtable" N.salt
Substitution2: "'c2sc' Capitals to Small Capitals in Latin lookup 2 subtable" n.smcp
EndChar

StartChar: O
Encoding: 79 79 50
Width: 684
GlyphClass: 2
Flags: W
LayerCount: 2
Fore
SplineSet
351 731.5 m 128,-1,1
 388 737 388 737 441.5 737 c 128,-1,2
 495 737 495 737 527 732.5 c 128,-1,3
 559 728 559 728 589.5 714 c 128,-1,4
 620 700 620 700 636 674 c 0,5,6
 670 619 670 619 670 526 c 0,7,8
 670 459 670 459 654.5 358.5 c 128,-1,9
 639 258 639 258 617 192.5 c 128,-1,10
 595 127 595 127 569 88.5 c 128,-1,11
 543 50 543 50 503.5 29 c 128,-1,12
 464 8 464 8 425 2 c 128,-1,13
 386 -4 386 -4 326 -4 c 128,-1,14
 266 -4 266 -4 229.5 2.5 c 128,-1,15
 193 9 193 9 160.5 31 c 128,-1,16
 128 53 128 53 115 94.5 c 128,-1,17
 102 136 102 136 102 204 c 128,-1,18
 102 272 102 272 118 370.5 c 128,-1,19
 134 469 134 469 157.5 538 c 128,-1,20
 181 607 181 607 207 646 c 128,-1,21
 233 685 233 685 273.5 705.5 c 128,-1,0
 314 726 314 726 351 731.5 c 128,-1,1
164 472.5 m 128,-1,23
 152 423 152 423 140 347 c 128,-1,24
 128 271 128 271 127.5 238.5 c 128,-1,25
 127 206 127 206 127 177 c 128,-1,26
 127 148 127 148 137 111 c 128,-1,27
 147 74 147 74 175 54 c 128,-1,28
 203 34 203 34 238.5 27 c 128,-1,29
 274 20 274 20 330.5 20 c 128,-1,30
 387 20 387 20 424.5 27 c 128,-1,31
 462 34 462 34 496.5 54.5 c 128,-1,32
 531 75 531 75 554 113 c 0,33,34
 603 192 603 192 630 361 c 0,35,36
 645 454 645 454 645 519.5 c 128,-1,37
 645 585 645 585 633 624 c 128,-1,38
 621 663 621 663 591 682.5 c 128,-1,39
 561 702 561 702 528.5 707.5 c 128,-1,40
 496 713 496 713 452.5 713 c 128,-1,41
 409 713 409 713 388 711.5 c 128,-1,42
 367 710 367 710 340.5 705.5 c 128,-1,43
 314 701 314 701 296 690.5 c 128,-1,44
 278 680 278 680 257 663.5 c 128,-1,45
 236 647 236 647 221 620.5 c 128,-1,46
 206 594 206 594 191 558 c 128,-1,22
 176 522 176 522 164 472.5 c 128,-1,23
EndSplineSet
Substitution2: "'c2sc' Capitals to Small Capitals in Latin lookup 2 subtable" o.smcp
EndChar

StartChar: P
Encoding: 80 80 51
Width: 584
GlyphClass: 2
Flags: W
LayerCount: 2
Fore
SplineSet
467 732 m 2,0,1
 549 732 549 732 580 700 c 1,2,3
 616 661 616 661 616 612 c 0,4,5
 616 583 616 583 611 532 c 1,6,7
 594 430 594 430 558 387 c 0,8,9
 540 365 540 365 523 351 c 128,-1,10
 506 337 506 337 482 332 c 0,11,12
 444 323 444 323 406 323 c 128,-1,13
 368 323 368 323 261.5 327 c 128,-1,14
 155 331 155 331 152 333 c 1,15,-1
 99 0 l 1,16,-1
 75 0 l 1,17,-1
 191 732 l 1,18,-1
 467 732 l 2,0,1
406 347 m 2,19,20
 472 347 472 347 516 380 c 0,21,22
 570 420 570 420 586 533 c 1,23,24
 591 577 591 577 591 602.5 c 128,-1,25
 591 628 591 628 581.5 647 c 128,-1,26
 572 666 572 666 562 678 c 128,-1,27
 552 690 552 690 534 696 c 0,28,29
 505 707 505 707 463 707 c 2,30,-1
 211 707 l 1,31,-1
 154 347 l 1,32,-1
 406 347 l 2,19,20
EndSplineSet
Substitution2: "'c2sc' Capitals to Small Capitals in Latin lookup 2 subtable" p.smcp
EndChar

StartChar: Q
Encoding: 81 81 52
Width: 690
GlyphClass: 2
Flags: W
LayerCount: 2
Fore
SplineSet
355 731.5 m 128,-1,1
 392 737 392 737 445.5 737 c 128,-1,2
 499 737 499 737 531 732.5 c 128,-1,3
 563 728 563 728 593.5 714 c 128,-1,4
 624 700 624 700 640 674 c 0,5,6
 674 619 674 619 674 526 c 0,7,8
 674 459 674 459 658.5 358.5 c 128,-1,9
 643 258 643 258 621 192.5 c 128,-1,10
 599 127 599 127 573 88.5 c 128,-1,11
 547 50 547 50 507.5 29 c 128,-1,12
 468 8 468 8 429 2 c 128,-1,13
 390 -4 390 -4 330 -4 c 128,-1,14
 270 -4 270 -4 233.5 2.5 c 128,-1,15
 197 9 197 9 164.5 31 c 128,-1,16
 132 53 132 53 119 94.5 c 128,-1,17
 106 136 106 136 106 204 c 128,-1,18
 106 272 106 272 122 370.5 c 128,-1,19
 138 469 138 469 161.5 538 c 128,-1,20
 185 607 185 607 211 646 c 128,-1,21
 237 685 237 685 277.5 705.5 c 128,-1,0
 318 726 318 726 355 731.5 c 128,-1,1
168 472.5 m 128,-1,23
 156 423 156 423 144 347 c 128,-1,24
 132 271 132 271 131.5 238.5 c 128,-1,25
 131 206 131 206 131 177 c 128,-1,26
 131 148 131 148 141 111 c 128,-1,27
 151 74 151 74 179 54 c 128,-1,28
 207 34 207 34 242.5 27 c 128,-1,29
 278 20 278 20 334.5 20 c 128,-1,30
 391 20 391 20 428.5 27 c 128,-1,31
 466 34 466 34 500.5 54.5 c 128,-1,32
 535 75 535 75 558 113 c 0,33,34
 607 192 607 192 634 361 c 0,35,36
 649 454 649 454 649 519.5 c 128,-1,37
 649 585 649 585 637 624 c 128,-1,38
 625 663 625 663 595 682.5 c 128,-1,39
 565 702 565 702 532.5 707.5 c 128,-1,40
 500 713 500 713 456.5 713 c 128,-1,41
 413 713 413 713 392 711.5 c 128,-1,42
 371 710 371 710 344.5 705.5 c 128,-1,43
 318 701 318 701 300 690.5 c 128,-1,44
 282 680 282 680 261 663.5 c 128,-1,45
 240 647 240 647 225 620.5 c 128,-1,46
 210 594 210 594 195 558 c 128,-1,22
 180 522 180 522 168 472.5 c 128,-1,23
499 -96 m 1,47,-1
 495 -120 l 1,48,49
 459 -131 459 -131 440 -131 c 128,-1,50
 421 -131 421 -131 417 -130 c 0,51,52
 379 -129 379 -129 350 -103.5 c 128,-1,53
 321 -78 321 -78 319 -33 c 1,54,-1
 333 -33 l 1,55,56
 341 -71 341 -71 368 -89 c 128,-1,57
 395 -107 395 -107 426 -107 c 128,-1,58
 457 -107 457 -107 499 -96 c 1,47,-1
EndSplineSet
Substitution2: "'c2sc' Capitals to Small Capitals in Latin lookup 2 subtable" q.smcp
EndChar

StartChar: R
Encoding: 82 82 53
Width: 612
GlyphClass: 2
Flags: W
LayerCount: 2
Fore
SplineSet
467 732 m 2,0,1
 546 732 546 732 579 697 c 0,2,3
 616 658 616 658 616 599 c 0,4,5
 616 569 616 569 611 528 c 1,6,7
 589 393 589 393 531 355 c 0,8,9
 502 336 502 336 478.5 330 c 128,-1,10
 455 324 455 324 420 323 c 1,11,-1
 529 0 l 1,12,-1
 503 0 l 1,13,-1
 394 323 l 1,14,15
 159 327 159 327 152 333 c 1,16,-1
 99 0 l 1,17,-1
 75 0 l 1,18,-1
 191 732 l 1,19,-1
 467 732 l 2,0,1
406 347 m 2,20,21
 440 347 440 347 465 353.5 c 128,-1,22
 490 360 490 360 516 378 c 1,23,24
 568 417 568 417 586 532 c 1,25,26
 591 576 591 576 591 601.5 c 128,-1,27
 591 627 591 627 581.5 646 c 128,-1,28
 572 665 572 665 562 677 c 128,-1,29
 552 689 552 689 534 696 c 0,30,31
 502 707 502 707 463 707 c 2,32,-1
 211 707 l 1,33,-1
 154 347 l 1,34,-1
 406 347 l 2,20,21
EndSplineSet
Substitution2: "'c2sc' Capitals to Small Capitals in Latin lookup 2 subtable" r.smcp
EndChar

StartChar: S
Encoding: 83 83 54
Width: 565
GlyphClass: 2
Flags: W
LayerCount: 2
Fore
SplineSet
318 16 m 0,0,1
 441 16 441 16 484 85 c 0,2,3
 502 114 502 114 508 156 c 2,4,-1
 518 224 l 2,5,6
 521 242 521 242 521 257 c 0,7,8
 521 297 521 297 501 318 c 0,9,10
 474 347 474 347 400 347 c 2,11,-1
 288 347 l 2,12,13
 178 347 178 347 150 393 c 0,14,15
 133 422 133 422 133 450.5 c 128,-1,16
 133 479 133 479 138 498 c 1,17,-1
 149 564 l 2,18,19
 165 665 165 665 220 701.5 c 128,-1,20
 275 738 275 738 375 738 c 128,-1,21
 475 738 475 738 589 719 c 1,22,-1
 587 706 l 1,23,-1
 366 714 l 2,24,25
 359 714 359 714 353 714 c 0,26,27
 279 714 279 714 233 680.5 c 128,-1,28
 187 647 187 647 173 560 c 2,29,-1
 162 494 l 2,30,31
 159 475 159 475 159 459 c 0,32,33
 159 415 159 415 186.5 393 c 128,-1,34
 214 371 214 371 290 371 c 2,35,-1
 404 371 l 2,36,37
 496 371 496 371 524 330 c 0,38,39
 545 301 545 301 545 256 c 0,40,41
 545 239 545 239 542 219 c 2,42,-1
 532 151 l 2,43,44
 516 49 516 49 450 18 c 0,45,46
 393 -8 393 -8 312 -8 c 0,47,48
 270 -8 270 -8 190 -3.5 c 128,-1,49
 110 1 110 1 79 7 c 1,50,-1
 81 22 l 1,51,52
 146 16 146 16 318 16 c 0,0,1
EndSplineSet
Substitution2: "'c2sc' Capitals to Small Capitals in Latin lookup 2 subtable" s.smcp
EndChar

StartChar: T
Encoding: 84 84 55
Width: 631
GlyphClass: 2
Flags: W
LayerCount: 2
Fore
SplineSet
139 708 m 1,0,-1
 143 732 l 1,1,-1
 681 732 l 1,2,-1
 677 708 l 1,3,-1
 417 708 l 1,4,-1
 305 0 l 1,5,-1
 281 0 l 1,6,-1
 393 708 l 1,7,-1
 139 708 l 1,0,-1
EndSplineSet
Substitution2: "'c2sc' Capitals to Small Capitals in Latin lookup 2 subtable" t.smcp
EndChar

StartChar: U
Encoding: 85 85 56
Width: 681
GlyphClass: 2
Flags: W
LayerCount: 2
Fore
SplineSet
155 320 m 2,0,1
 142 240 142 240 142 212 c 128,-1,2
 142 184 142 184 143.5 164.5 c 128,-1,3
 145 145 145 145 148 123 c 128,-1,4
 151 101 151 101 160.5 85 c 128,-1,5
 170 69 170 69 178 57.5 c 128,-1,6
 186 46 186 46 202.5 39 c 128,-1,7
 219 32 219 32 230 27.5 c 128,-1,8
 241 23 241 23 263 22 c 0,9,10
 300 19 300 19 335 19 c 128,-1,11
 370 19 370 19 391.5 20.5 c 128,-1,12
 413 22 413 22 440 29 c 128,-1,13
 467 36 467 36 486 48 c 128,-1,14
 505 60 505 60 526 82 c 128,-1,15
 547 104 547 104 562 136 c 0,16,17
 598 210 598 210 614 320 c 1,18,-1
 679 732 l 1,19,-1
 703 732 l 1,20,-1
 638 320 l 1,21,22
 621 219 621 219 604 175.5 c 128,-1,23
 587 132 587 132 575 107.5 c 128,-1,24
 563 83 563 83 546.5 66 c 128,-1,25
 530 49 530 49 516.5 36.5 c 128,-1,26
 503 24 503 24 483 16.5 c 128,-1,27
 463 9 463 9 449.5 4.5 c 128,-1,28
 436 0 436 0 414 -2 c 0,29,30
 380 -5 380 -5 311 -5 c 128,-1,31
 242 -5 242 -5 205 10 c 0,32,33
 119 43 119 43 119 188 c 0,34,35
 119 244 119 244 131 320 c 2,36,-1
 196 732 l 1,37,-1
 220 732 l 1,38,-1
 155 320 l 2,0,1
EndSplineSet
Substitution2: "'c2sc' Capitals to Small Capitals in Latin lookup 2 subtable" u.smcp
EndChar

StartChar: V
Encoding: 86 86 57
Width: 668
GlyphClass: 2
Flags: W
LayerCount: 2
Fore
SplineSet
150 732 m 1,0,-1
 175 732 l 1,1,-1
 316 26 l 1,2,-1
 693 732 l 1,3,-1
 720 732 l 1,4,-1
 330 0 l 1,5,-1
 296 0 l 1,6,-1
 150 732 l 1,0,-1
EndSplineSet
Substitution2: "'c2sc' Capitals to Small Capitals in Latin lookup 2 subtable" v.smcp
EndChar

StartChar: W
Encoding: 87 87 58
Width: 980
GlyphClass: 2
Flags: W
LayerCount: 2
Fore
SplineSet
150 732 m 1,0,-1
 174 732 l 1,1,-1
 316 25 l 1,2,-1
 674 732 l 1,3,-1
 700 732 l 1,4,-1
 550 431 l 1,5,-1
 647 24 l 1,6,-1
 1006 732 l 1,7,-1
 1032 732 l 1,8,-1
 662 0 l 1,9,-1
 628 0 l 1,10,-1
 532 396 l 1,11,-1
 330 0 l 1,12,-1
 296 0 l 1,13,-1
 150 732 l 1,0,-1
EndSplineSet
Substitution2: "'c2sc' Capitals to Small Capitals in Latin lookup 2 subtable" w.smcp
EndChar

StartChar: X
Encoding: 88 88 59
Width: 542
GlyphClass: 2
Flags: W
LayerCount: 2
Fore
SplineSet
38 0 m 1,0,-1
 313 365 l 1,1,-1
 151 732 l 1,2,-1
 179 732 l 1,3,-1
 331 388 l 1,4,-1
 596 732 l 1,5,-1
 627 732 l 1,6,-1
 343 363 l 1,7,-1
 506 0 l 1,8,-1
 478 0 l 1,9,-1
 326 339 l 1,10,-1
 69 0 l 1,11,-1
 38 0 l 1,0,-1
EndSplineSet
AlternateSubs2: "'salt' Stylistic Alternatives in Latin lookup 16 subtable" X.salt
Substitution2: "'c2sc' Capitals to Small Capitals in Latin lookup 2 subtable" x.smcp
EndChar

StartChar: Y
Encoding: 89 89 60
Width: 628
GlyphClass: 2
Flags: W
LayerCount: 2
Fore
SplineSet
150 732 m 1,0,-1
 177 732 l 1,1,-1
 333 292 l 1,2,-1
 651 732 l 1,3,-1
 680 732 l 1,4,-1
 342 260 l 1,5,-1
 301 0 l 1,6,-1
 277 0 l 1,7,-1
 318 260 l 1,8,-1
 150 732 l 1,0,-1
EndSplineSet
Substitution2: "'c2sc' Capitals to Small Capitals in Latin lookup 2 subtable" y.smcp
EndChar

StartChar: Z
Encoding: 90 90 61
Width: 507
GlyphClass: 2
Flags: W
LayerCount: 2
Fore
SplineSet
35 0 m 1,0,-1
 39 24 l 1,1,-1
 578 708 l 1,2,-1
 147 708 l 1,3,-1
 151 732 l 1,4,-1
 614 732 l 1,5,-1
 610 708 l 1,6,-1
 71 24 l 1,7,-1
 502 24 l 1,8,-1
 498 0 l 1,9,-1
 35 0 l 1,0,-1
EndSplineSet
Substitution2: "'c2sc' Capitals to Small Capitals in Latin lookup 2 subtable" z.smcp
EndChar

StartChar: bracketleft
Encoding: 91 91 62
Width: 265
GlyphClass: 2
Flags: W
LayerCount: 2
Fore
SplineSet
96 -21 m 0,0,1
 96 -126 96 -126 189 -126 c 2,2,-1
 239 -126 l 1,3,-1
 235 -150 l 1,4,-1
 185 -150 l 2,5,6
 144 -150 144 -150 118 -131.5 c 128,-1,7
 92 -113 92 -113 84 -86 c 0,8,9
 72 -47 72 -47 72 -20 c 128,-1,10
 72 7 72 7 76 22 c 1,11,-1
 188 730 l 1,12,13
 218 902 218 902 352 902 c 2,14,-1
 401 902 l 1,15,-1
 398 878 l 1,16,-1
 348 878 l 2,17,18
 296 878 296 878 260 842 c 128,-1,19
 224 806 224 806 212 730 c 2,20,-1
 100 22 l 2,21,22
 96 -1 96 -1 96 -21 c 0,0,1
EndSplineSet
EndChar

StartChar: backslash
Encoding: 92 92 63
Width: 432
GlyphClass: 2
Flags: W
LayerCount: 2
Fore
SplineSet
141 770 m 1,0,-1
 160 770 l 1,1,-1
 308 -72 l 1,2,-1
 289 -72 l 1,3,-1
 141 770 l 1,0,-1
EndSplineSet
EndChar

StartChar: bracketright
Encoding: 93 93 64
Width: 270
GlyphClass: 2
Flags: W
LayerCount: 2
Fore
SplineSet
41 -126 m 2,0,1
 99 -126 99 -126 132 -85 c 128,-1,2
 165 -44 165 -44 176 22 c 2,3,-1
 288 730 l 2,4,5
 292 755 292 755 292 786.5 c 128,-1,6
 292 818 292 818 276 842 c 0,7,8
 252 878 252 878 200 878 c 2,9,-1
 150 878 l 1,10,-1
 154 902 l 1,11,-1
 204 902 l 2,12,13
 246 902 246 902 272.5 883.5 c 128,-1,14
 299 865 299 865 306 838 c 0,15,16
 316 803 316 803 316 774.5 c 128,-1,17
 316 746 316 746 312 730 c 1,18,-1
 200 22 l 2,19,20
 173 -150 173 -150 37 -150 c 2,21,-1
 -13 -150 l 1,22,-1
 -9 -126 l 1,23,-1
 41 -126 l 2,0,1
EndSplineSet
EndChar

StartChar: asciicircum
Encoding: 94 94 65
Width: 427
GlyphClass: 2
Flags: W
LayerCount: 2
Fore
SplineSet
134 531 m 1,0,-1
 287 661 l 1,1,-1
 308 661 l 1,2,-1
 406 531 l 1,3,-1
 389 531 l 1,4,-1
 295 646 l 1,5,-1
 152 531 l 1,6,-1
 134 531 l 1,0,-1
EndSplineSet
EndChar

StartChar: underscore
Encoding: 95 95 66
Width: 648
GlyphClass: 2
Flags: W
LayerCount: 2
Fore
SplineSet
19 -1 m 1,0,-1
 23 23 l 1,1,-1
 627 23 l 1,2,-1
 623 -1 l 1,3,-1
 19 -1 l 1,0,-1
EndSplineSet
EndChar

StartChar: grave
Encoding: 96 96 67
Width: 219
GlyphClass: 2
Flags: W
LayerCount: 2
Fore
SplineSet
125 664 m 1,0,-1
 151 664 l 1,1,-1
 251 531 l 1,2,-1
 237 531 l 1,3,-1
 125 664 l 1,0,-1
EndSplineSet
Substitution2: "'smcp' Lowercase to Small Capitals lookup 1 subtable" grave.smcp
EndChar

StartChar: a
Encoding: 97 97 68
Width: 545
GlyphClass: 2
Flags: W
LayerCount: 2
Fore
SplineSet
259 532 m 128,-1,1
 280 537 280 537 303 540 c 128,-1,2
 326 543 326 543 355.5 543 c 128,-1,3
 385 543 385 543 442 528.5 c 128,-1,4
 499 514 499 514 536 479 c 1,5,-1
 466 0 l 1,6,-1
 452 0 l 1,7,-1
 453 60 l 1,8,9
 422 40 422 40 359.5 16.5 c 128,-1,10
 297 -7 297 -7 253 -7 c 128,-1,11
 209 -7 209 -7 182 0.5 c 128,-1,12
 155 8 155 8 130 26.5 c 128,-1,13
 105 45 105 45 94 77 c 0,14,15
 79 121 79 121 79 172 c 128,-1,16
 79 223 79 223 90.5 284 c 128,-1,17
 102 345 102 345 121 393 c 128,-1,18
 140 441 140 441 160.5 467 c 128,-1,19
 181 493 181 493 209.5 510 c 128,-1,0
 238 527 238 527 259 532 c 128,-1,1
103 175 m 0,20,21
 103 16 103 16 238 16 c 0,22,23
 276 16 276 16 301.5 22 c 128,-1,24
 327 28 327 28 336.5 29.5 c 128,-1,25
 346 31 346 31 368.5 40 c 128,-1,26
 391 49 391 49 395 50.5 c 128,-1,27
 399 52 399 52 425.5 63.5 c 128,-1,28
 452 75 452 75 453 75 c 2,29,-1
 511 476 l 1,30,31
 440 520 440 520 355 520 c 0,32,33
 232 520 232 520 176 446 c 0,34,35
 131 388 131 388 109 246 c 0,36,37
 103 207 103 207 103 175 c 0,20,21
EndSplineSet
AlternateSubs2: "'salt' Stylistic Alternatives in Latin lookup 16 subtable" a.salt
Substitution2: "'smcp' Lowercase to Small Capitals lookup 1 subtable" a.smcp
EndChar

StartChar: b
Encoding: 98 98 69
Width: 545
GlyphClass: 2
Flags: W
LayerCount: 2
Fore
SplineSet
367 539 m 0,0,1
 515 539 515 539 515 357 c 0,2,3
 515 194 515 194 441 80 c 0,4,5
 415 40 415 40 374 17 c 128,-1,6
 333 -6 333 -6 283 -6 c 128,-1,7
 233 -6 233 -6 171.5 16.5 c 128,-1,8
 110 39 110 39 92 59 c 1,9,-1
 73 0 l 1,10,-1
 60 0 l 1,11,-1
 184 785 l 1,12,-1
 206 785 l 1,13,-1
 161 499 l 1,14,15
 209 517 209 517 269 528 c 128,-1,16
 329 539 329 539 367 539 c 0,0,1
282 18 m 0,17,18
 351 18 351 18 406.5 79 c 128,-1,19
 462 140 462 140 482 263 c 1,20,21
 489 323 489 323 489 350.5 c 128,-1,22
 489 378 489 378 488 389 c 0,23,24
 486 438 486 438 465 466 c 128,-1,25
 444 494 444 494 419.5 504.5 c 128,-1,26
 395 515 395 515 361 515 c 0,27,28
 280 515 280 515 160 485 c 1,29,-1
 95 73 l 1,30,31
 195 18 195 18 282 18 c 0,17,18
EndSplineSet
AlternateSubs2: "'salt' Stylistic Alternatives in Latin lookup 16 subtable" b.salt
Substitution2: "'smcp' Lowercase to Small Capitals lookup 1 subtable" b.smcp
EndChar

StartChar: c
Encoding: 99 99 70
Width: 491
GlyphClass: 2
Flags: W
LayerCount: 2
Fore
SplineSet
235 527 m 128,-1,1
 265 536 265 536 328 536 c 128,-1,2
 391 536 391 536 502 510 c 1,3,-1
 499 496 l 1,4,5
 393 512 393 512 329.5 512 c 128,-1,6
 266 512 266 512 239.5 503 c 128,-1,7
 213 494 213 494 188 468 c 1,8,9
 137 418 137 418 113 262 c 1,10,11
 103 212 103 212 103 188.5 c 128,-1,12
 103 165 103 165 104.5 140 c 128,-1,13
 106 115 106 115 113.5 87.5 c 128,-1,14
 121 60 121 60 140 45 c 0,15,16
 172 19 172 19 219 19 c 0,17,18
 302 19 302 19 402 35 c 2,19,-1
 434 40 l 1,20,-1
 432 24 l 1,21,22
 330 -4 330 -4 222 -5 c 0,23,24
 115 -5 115 -5 92 74 c 0,25,26
 79 118 79 118 79 167.5 c 128,-1,27
 79 217 79 217 90 273 c 1,28,29
 116 439 116 439 176 492 c 0,30,0
 205 518 205 518 235 527 c 128,-1,1
EndSplineSet
Substitution2: "'smcp' Lowercase to Small Capitals lookup 1 subtable" c.smcp
EndChar

StartChar: d
Encoding: 100 100 71
Width: 521
GlyphClass: 2
Flags: W
LayerCount: 2
Fore
SplineSet
317 539 m 0,0,1
 354 539 354 539 410 528 c 128,-1,2
 466 517 466 517 508 499 c 1,3,-1
 553 785 l 1,4,-1
 575 785 l 1,5,-1
 451 0 l 1,6,-1
 438 0 l 1,7,-1
 437 59 l 1,8,9
 412 39 412 39 345.5 16.5 c 128,-1,10
 279 -6 279 -6 229 -6 c 128,-1,11
 179 -6 179 -6 145 20 c 128,-1,12
 111 46 111 46 98 86 c 1,13,14
 82 141 82 141 82 189 c 128,-1,15
 82 237 82 237 89 271 c 1,16,17
 132 539 132 539 317 539 c 0,0,1
106 182 m 0,18,19
 106 115 106 115 130 77 c 0,20,21
 167 18 167 18 238 18 c 0,22,23
 323 18 323 18 439 73 c 1,24,-1
 505 485 l 1,25,26
 395 515 395 515 316 515 c 0,27,28
 198 515 198 515 146 390 c 0,29,30
 125 338 125 338 115.5 278 c 128,-1,31
 106 218 106 218 106 182 c 0,18,19
EndSplineSet
AlternateSubs2: "'salt' Stylistic Alternatives in Latin lookup 16 subtable" d.salt
Substitution2: "'smcp' Lowercase to Small Capitals lookup 1 subtable" d.smcp
EndChar

StartChar: e
Encoding: 101 101 72
Width: 537
GlyphClass: 2
Flags: W
LayerCount: 2
Fore
SplineSet
377.5 239 m 128,-1,1
 322 228 322 228 238 228 c 128,-1,2
 154 228 154 228 106 247 c 1,3,4
 99 197 99 197 99 150.5 c 128,-1,5
 99 104 99 104 112 72 c 0,6,7
 135 17 135 17 218 17 c 128,-1,8
 301 17 301 17 450 38 c 1,9,-1
 447 22 l 1,10,11
 341 -7 341 -7 214 -7 c 0,12,13
 120 -7 120 -7 91 62 c 0,14,15
 75 98 75 98 75 153.5 c 128,-1,16
 75 209 75 209 85.5 270.5 c 128,-1,17
 96 332 96 332 104.5 365 c 128,-1,18
 113 398 113 398 131 435.5 c 128,-1,19
 149 473 149 473 174 494 c 0,20,21
 232 541 232 541 336 541 c 128,-1,22
 440 541 440 541 489 506 c 0,23,24
 529 477 529 477 529 417 c 0,25,26
 529 335 529 335 476 288 c 0,27,0
 433 250 433 250 377.5 239 c 128,-1,1
255.5 249 m 128,-1,29
 291 249 291 249 335.5 256 c 128,-1,30
 380 263 380 263 413.5 277 c 128,-1,31
 447 291 447 291 472 320 c 0,32,33
 504 356 504 356 504 409.5 c 128,-1,34
 504 463 504 463 467 490 c 128,-1,35
 430 517 430 517 347 517 c 0,36,37
 279 517 279 517 222 494 c 0,38,39
 190 482 190 482 156 432 c 0,40,41
 147 418 147 418 137 386 c 0,42,43
 117 323 117 323 108 261 c 1,44,45
 116 260 116 260 129 257.5 c 128,-1,46
 142 255 142 255 181 252 c 128,-1,28
 220 249 220 249 255.5 249 c 128,-1,29
EndSplineSet
Substitution2: "'smcp' Lowercase to Small Capitals lookup 1 subtable" e.smcp
EndChar

StartChar: f
Encoding: 102 102 73
Width: 359
GlyphClass: 2
Flags: W
LayerCount: 2
Fore
SplineSet
290 781.5 m 128,-1,1
 305 785 305 785 322 786 c 128,-1,2
 339 787 339 787 381.5 787 c 128,-1,3
 424 787 424 787 464 775 c 1,4,-1
 462 762 l 1,5,-1
 320 762 l 2,6,7
 273 762 273 762 252.5 729.5 c 128,-1,8
 232 697 232 697 222 630 c 2,9,-1
 207 531 l 1,10,-1
 385 531 l 1,11,-1
 381 507 l 1,12,-1
 203 507 l 1,13,-1
 123 0 l 1,14,-1
 99 0 l 1,15,-1
 179 507 l 1,16,-1
 92 507 l 1,17,-1
 94 521 l 1,18,-1
 183 531 l 1,19,-1
 198 630 l 1,20,21
 198 642 198 642 206 676 c 128,-1,22
 214 710 214 710 218 716.5 c 128,-1,23
 222 723 222 723 228.5 736.5 c 128,-1,24
 235 750 235 750 243.5 756 c 128,-1,25
 252 762 252 762 263.5 770 c 128,-1,0
 275 778 275 778 290 781.5 c 128,-1,1
EndSplineSet
AlternateSubs2: "'salt' Stylistic Alternatives in Latin lookup 16 subtable" f.salt
Substitution2: "'smcp' Lowercase to Small Capitals lookup 1 subtable" f.smcp
EndChar

StartChar: g
Encoding: 103 103 74
Width: 532
GlyphClass: 2
Flags: W
LayerCount: 2
Fore
SplineSet
231 -10 m 0,0,1
 82 -10 82 -10 82 151 c 0,2,3
 82 206 82 206 91 275 c 1,4,5
 133 537 133 537 317 537 c 0,6,7
 396 537 396 537 546 524 c 1,8,-1
 447 -104 l 2,9,10
 433 -191 433 -191 382 -232 c 128,-1,11
 331 -273 331 -273 278 -273 c 0,12,13
 270 -273 270 -273 261 -272 c 2,14,-1
 37 -248 l 1,15,-1
 39 -234 l 1,16,-1
 265 -249 l 2,17,18
 270 -249 270 -249 274 -249 c 0,19,20
 318 -249 318 -249 364.5 -213.5 c 128,-1,21
 411 -178 411 -178 423 -104 c 2,22,-1
 444 29 l 1,23,24
 397 11 397 11 333.5 0.5 c 128,-1,25
 270 -10 270 -10 231 -10 c 0,0,1
115 271 m 0,26,27
 106 212 106 212 106 161 c 128,-1,28
 106 110 106 110 121 76 c 0,29,30
 148 14 148 14 234 14 c 0,31,32
 298 14 298 14 343 24.5 c 128,-1,33
 388 35 388 35 447 49 c 1,34,-1
 521 508 l 1,35,-1
 322 513 l 2,36,37
 319 513 319 513 317 513 c 0,38,39
 236 513 236 513 185 450 c 128,-1,40
 134 387 134 387 115 271 c 0,26,27
EndSplineSet
AlternateSubs2: "'salt' Stylistic Alternatives in Latin lookup 16 subtable" g.salt
Substitution2: "'smcp' Lowercase to Small Capitals lookup 1 subtable" g.smcp
EndChar

StartChar: h
Encoding: 104 104 75
Width: 540
GlyphClass: 2
Flags: W
LayerCount: 2
Fore
SplineSet
389 540 m 0,0,1
 465 540 465 540 500 490 c 0,2,3
 526 452 526 452 526 403 c 0,4,5
 526 387 526 387 523 370 c 2,6,-1
 464 0 l 1,7,-1
 440 0 l 1,8,-1
 499 370 l 2,9,10
 501 386 501 386 501 400 c 0,11,12
 501 445 501 445 478 476 c 0,13,14
 447 516 447 516 383.5 516 c 128,-1,15
 320 516 320 516 270.5 502 c 128,-1,16
 221 488 221 488 156 455 c 1,17,-1
 84 0 l 1,18,-1
 60 0 l 1,19,-1
 184 784 l 1,20,-1
 208 784 l 1,21,-1
 158 469 l 1,22,23
 279 540 279 540 389 540 c 0,0,1
EndSplineSet
Substitution2: "'smcp' Lowercase to Small Capitals lookup 1 subtable" h.smcp
EndChar

StartChar: i
Encoding: 105 105 76
Width: 144
GlyphClass: 2
Flags: W
LayerCount: 2
Fore
SplineSet
60 0 m 1,0,-1
 144 531 l 1,1,-1
 168 531 l 1,2,-1
 84 0 l 1,3,-1
 60 0 l 1,0,-1
177 696 m 2,4,-1
 189 696 l 2,5,6
 200 696 200 696 198 684 c 2,7,-1
 192 642 l 2,8,9
 190 630 190 630 178 630 c 2,10,-1
 167 630 l 2,11,12
 155 630 155 630 157 642 c 2,13,-1
 163 684 l 2,14,15
 164 696 164 696 177 696 c 2,4,-1
EndSplineSet
Substitution2: "'smcp' Lowercase to Small Capitals lookup 1 subtable" i.smcp
EndChar

StartChar: j
Encoding: 106 106 77
Width: 151
GlyphClass: 2
Flags: W
LayerCount: 2
Fore
SplineSet
28 -270 m 1,0,-1
 155 531 l 1,1,-1
 179 531 l 1,2,-1
 94 -4 l 1,3,4
 67 -181 67 -181 41 -270 c 1,5,-1
 28 -270 l 1,0,-1
187 696 m 2,6,-1
 199 696 l 2,7,8
 210 696 210 696 208 684 c 2,9,-1
 201 642 l 2,10,11
 200 630 200 630 188 630 c 2,12,-1
 177 630 l 2,13,14
 164 630 164 630 166 642 c 2,15,-1
 173 684 l 2,16,17
 174 696 174 696 187 696 c 2,6,-1
EndSplineSet
Substitution2: "'smcp' Lowercase to Small Capitals lookup 1 subtable" j.smcp
EndChar

StartChar: k
Encoding: 107 107 78
Width: 474
GlyphClass: 2
Flags: W
LayerCount: 2
Fore
SplineSet
242 285 m 1,0,1
 193 274 193 274 166.5 274 c 128,-1,2
 140 274 140 274 128 275 c 1,3,-1
 84 0 l 1,4,-1
 60 0 l 1,5,-1
 184 782 l 1,6,-1
 208 782 l 1,7,-1
 131 297 l 1,8,9
 208 297 208 297 269.5 318 c 128,-1,10
 331 339 331 339 370 375 c 0,11,12
 441 442 441 442 468 531 c 1,13,-1
 493 531 l 1,14,15
 442 347 442 347 265 292 c 1,16,-1
 437 0 l 1,17,-1
 409 0 l 1,18,-1
 242 285 l 1,0,1
EndSplineSet
Substitution2: "'smcp' Lowercase to Small Capitals lookup 1 subtable" k.smcp
EndChar

StartChar: l
Encoding: 108 108 79
Width: 313
GlyphClass: 2
Flags: W
LayerCount: 2
Fore
SplineSet
184 0 m 2,0,1
 83 0 83 0 83 118 c 0,2,3
 83 149 83 149 89 189 c 2,4,-1
 183 783 l 1,5,-1
 207 783 l 1,6,-1
 113 189 l 2,7,8
 107 153 107 153 107 127.5 c 128,-1,9
 107 102 107 102 109.5 87 c 128,-1,10
 112 72 112 72 119.5 59.5 c 128,-1,11
 127 47 127 47 132.5 41 c 128,-1,12
 138 35 138 35 150 31 c 0,13,14
 166 25 166 25 205 19 c 128,-1,15
 244 13 244 13 251 13 c 1,16,-1
 249 0 l 1,17,-1
 184 0 l 2,0,1
EndSplineSet
Substitution2: "'smcp' Lowercase to Small Capitals lookup 1 subtable" l.smcp
EndChar

StartChar: m
Encoding: 109 109 80
Width: 921
GlyphClass: 2
Flags: W
LayerCount: 2
Fore
SplineSet
158 531 m 1,0,-1
 158 469 l 1,1,2
 279 540 279 540 381.5 540 c 128,-1,3
 484 540 484 540 515 458 c 1,4,5
 562 489 562 489 635 514.5 c 128,-1,6
 708 540 708 540 765 540 c 0,7,8
 841 540 841 540 877 490 c 0,9,10
 905 452 905 452 905 402 c 0,11,12
 905 386 905 386 902 370 c 2,13,-1
 843 0 l 1,14,-1
 819 0 l 1,15,-1
 878 370 l 2,16,17
 880 385 880 385 880 399 c 0,18,19
 880 442 880 442 857 474 c 0,20,21
 826 516 826 516 761 516 c 0,22,23
 661 516 661 516 519 446 c 1,24,25
 525 424 525 424 525 404.5 c 128,-1,26
 525 385 525 385 523 370 c 2,27,-1
 464 0 l 1,28,-1
 440 0 l 1,29,-1
 499 370 l 2,30,31
 501 385 501 385 501 399 c 0,32,33
 501 442 501 442 478 474 c 0,34,35
 447 516 447 516 383.5 516 c 128,-1,36
 320 516 320 516 270.5 502 c 128,-1,37
 221 488 221 488 156 455 c 1,38,-1
 84 0 l 1,39,-1
 60 0 l 1,40,-1
 144 531 l 1,41,-1
 158 531 l 1,0,-1
EndSplineSet
AlternateSubs2: "'salt' Stylistic Alternatives in Latin lookup 16 subtable" m.salt
Substitution2: "'smcp' Lowercase to Small Capitals lookup 1 subtable" m.smcp
EndChar

StartChar: n
Encoding: 110 110 81
Width: 540
GlyphClass: 2
Flags: W
LayerCount: 2
Fore
SplineSet
158 531 m 1,0,-1
 158 469 l 1,1,2
 279 540 279 540 386 540 c 0,3,4
 462 540 462 540 498 490 c 0,5,6
 526 452 526 452 526 402 c 0,7,8
 526 386 526 386 523 370 c 2,9,-1
 464 0 l 1,10,-1
 440 0 l 1,11,-1
 499 370 l 2,12,13
 501 385 501 385 501 399 c 0,14,15
 501 442 501 442 478 474 c 0,16,17
 447 516 447 516 383.5 516 c 128,-1,18
 320 516 320 516 270.5 502 c 128,-1,19
 221 488 221 488 156 455 c 1,20,-1
 84 0 l 1,21,-1
 60 0 l 1,22,-1
 144 531 l 1,23,-1
 158 531 l 1,0,-1
EndSplineSet
AlternateSubs2: "'salt' Stylistic Alternatives in Latin lookup 16 subtable" n.salt
Substitution2: "'smcp' Lowercase to Small Capitals lookup 1 subtable" n.smcp
EndChar

StartChar: o
Encoding: 111 111 82
Width: 560
GlyphClass: 2
Flags: W
LayerCount: 2
Fore
SplineSet
173.5 480 m 128,-1,1
 231 536 231 536 355 536 c 128,-1,2
 479 536 479 536 516 468 c 0,3,4
 538 426 538 426 538 367.5 c 128,-1,5
 538 309 538 309 529 251 c 0,6,7
 506 105 506 105 450 50 c 128,-1,8
 394 -5 394 -5 267 -5 c 128,-1,9
 140 -5 140 -5 104 56 c 0,10,11
 82 93 82 93 82 150 c 128,-1,12
 82 207 82 207 91 265 c 0,13,0
 116 424 116 424 173.5 480 c 128,-1,1
149.5 395.5 m 128,-1,15
 129 343 129 343 117.5 271 c 128,-1,16
 106 199 106 199 106 162 c 128,-1,17
 106 125 106 125 113.5 100.5 c 128,-1,18
 121 76 121 76 133.5 59.5 c 128,-1,19
 146 43 146 43 168 34 c 0,20,21
 206 19 206 19 265.5 19 c 128,-1,22
 325 19 325 19 359.5 28 c 128,-1,23
 394 37 394 37 424 62 c 0,24,25
 481 110 481 110 505 258 c 1,26,27
 515 306 515 306 515 331 c 128,-1,28
 515 356 515 356 512 384.5 c 128,-1,29
 509 413 509 413 499.5 441 c 128,-1,30
 490 469 490 469 466 485 c 0,31,32
 425 512 425 512 361.5 512 c 128,-1,33
 298 512 298 512 266 504.5 c 128,-1,34
 234 497 234 497 202 472.5 c 128,-1,14
 170 448 170 448 149.5 395.5 c 128,-1,15
EndSplineSet
Substitution2: "'smcp' Lowercase to Small Capitals lookup 1 subtable" o.smcp
EndChar

StartChar: p
Encoding: 112 112 83
Width: 527
GlyphClass: 2
Flags: W
LayerCount: 2
Fore
SplineSet
371 537 m 0,0,1
 463 537 463 537 498 464 c 0,2,3
 520 418 520 418 520 363.5 c 128,-1,4
 520 309 520 309 511 253 c 128,-1,5
 502 197 502 197 487 151 c 128,-1,6
 472 105 472 105 446 67 c 0,7,8
 395 -10 395 -10 284 -10 c 0,9,10
 245 -10 245 -10 187.5 0.5 c 128,-1,11
 130 11 130 11 88 29 c 1,12,-1
 41 -270 l 1,13,-1
 17 -270 l 1,14,-1
 144 527 l 1,15,16
 208 537 208 537 371 537 c 0,0,1
91 45 m 1,17,18
 209 14 209 14 292 14 c 128,-1,19
 375 14 375 14 421 77 c 128,-1,20
 467 140 467 140 488 268 c 0,21,22
 495 311 495 311 495 358 c 128,-1,23
 495 405 495 405 478 446 c 0,24,25
 450 513 450 513 365 513 c 2,26,-1
 165 513 l 1,27,-1
 91 45 l 1,17,18
EndSplineSet
AlternateSubs2: "'salt' Stylistic Alternatives in Latin lookup 16 subtable" p.salt
Substitution2: "'smcp' Lowercase to Small Capitals lookup 1 subtable" p.smcp
EndChar

StartChar: q
Encoding: 113 113 84
Width: 552
GlyphClass: 2
Flags: W
LayerCount: 2
Fore
SplineSet
232 -10 m 0,0,1
 83 -10 83 -10 83 152 c 0,2,3
 83 208 83 208 92 277 c 1,4,5
 134 537 134 537 319 537 c 0,6,7
 483 537 483 537 543 527 c 1,8,-1
 417 -270 l 1,9,-1
 393 -270 l 1,10,-1
 440 29 l 1,11,12
 393 11 393 11 332 0.5 c 128,-1,13
 271 -10 271 -10 232 -10 c 0,0,1
116 268 m 0,14,15
 107 211 107 211 107 161.5 c 128,-1,16
 107 112 107 112 122 77 c 0,17,18
 148 14 148 14 232 14 c 128,-1,19
 316 14 316 14 443 45 c 1,20,-1
 517 513 l 1,21,-1
 316 513 l 2,22,23
 231 513 231 513 182.5 446.5 c 128,-1,24
 134 380 134 380 116 268 c 0,14,15
EndSplineSet
Substitution2: "'smcp' Lowercase to Small Capitals lookup 1 subtable" q.smcp
EndChar

StartChar: r
Encoding: 114 114 85
Width: 393
GlyphClass: 2
Flags: W
LayerCount: 2
Fore
SplineSet
300 524.5 m 128,-1,1
 345 537 345 537 391.5 537 c 128,-1,2
 438 537 438 537 460 529 c 1,3,-1
 456 506 l 1,4,5
 424 513 424 513 392.5 513 c 128,-1,6
 361 513 361 513 339.5 510 c 128,-1,7
 318 507 318 507 304 504 c 128,-1,8
 290 501 290 501 265.5 492 c 128,-1,9
 241 483 241 483 232 479 c 128,-1,10
 223 475 223 475 192.5 461.5 c 128,-1,11
 162 448 162 448 154 444 c 1,12,-1
 84 0 l 1,13,-1
 60 0 l 1,14,-1
 144 531 l 1,15,-1
 156 531 l 1,16,-1
 157 464 l 1,17,18
 202 488 202 488 228.5 500 c 128,-1,0
 255 512 255 512 300 524.5 c 128,-1,1
EndSplineSet
AlternateSubs2: "'salt' Stylistic Alternatives in Latin lookup 16 subtable" r.salt
Substitution2: "'smcp' Lowercase to Small Capitals lookup 1 subtable" r.smcp
EndChar

StartChar: s
Encoding: 115 115 86
Width: 504
GlyphClass: 2
Flags: W
LayerCount: 2
Fore
SplineSet
310 19 m 2,0,1
 389 19 389 19 414 60 c 0,2,3
 426 80 426 80 431 113 c 2,4,-1
 439 162 l 2,5,6
 440 170 440 170 440 178 c 0,7,8
 440 206 440 206 420.5 229 c 128,-1,9
 401 252 401 252 350 252 c 2,10,-1
 219 252 l 2,11,12
 142 252 142 252 119 271 c 128,-1,13
 96 290 96 290 96 331 c 0,14,15
 96 348 96 348 99 369 c 2,16,-1
 106 415 l 2,17,18
 116 478 116 478 152 507 c 128,-1,19
 188 536 188 536 264 536 c 0,20,21
 402 536 402 536 494 527 c 1,22,-1
 491 513 l 1,23,-1
 260 513 l 2,24,25
 198 513 198 513 168 488.5 c 128,-1,26
 138 464 138 464 130 409 c 2,27,-1
 123 363 l 2,28,29
 120 347 120 347 120 334.5 c 128,-1,30
 120 322 120 322 122.5 313 c 128,-1,31
 125 304 125 304 128.5 297.5 c 128,-1,32
 132 291 132 291 140 287 c 128,-1,33
 148 283 148 283 154.5 281 c 128,-1,34
 161 279 161 279 174 277.5 c 128,-1,35
 187 276 187 276 196 276 c 2,36,-1
 351 276 l 2,37,38
 409 276 409 276 437 247 c 128,-1,39
 465 218 465 218 465 179 c 0,40,41
 465 168 465 168 463 156 c 2,42,-1
 455 107 l 2,43,44
 441 20 441 20 380 3 c 0,45,46
 351 -5 351 -5 304 -5 c 0,47,48
 156 -5 156 -5 64 5 c 1,49,-1
 66 19 l 1,50,-1
 310 19 l 2,0,1
EndSplineSet
Substitution2: "'smcp' Lowercase to Small Capitals lookup 1 subtable" s.smcp
EndChar

StartChar: t
Encoding: 116 116 87
Width: 344
GlyphClass: 2
Flags: W
LayerCount: 2
Fore
SplineSet
222 -1 m 2,0,1
 119 -1 119 -1 119 119 c 0,2,3
 119 149 119 149 125 188 c 2,4,-1
 176 508 l 1,5,-1
 92 508 l 1,6,-1
 95 524 l 1,7,-1
 180 532 l 1,8,-1
 211 680 l 1,9,-1
 227 680 l 1,10,-1
 204 532 l 1,11,-1
 379 532 l 1,12,-1
 375 508 l 1,13,-1
 200 508 l 1,14,-1
 149 188 l 2,15,16
 143 152 143 152 143 126.5 c 128,-1,17
 143 101 143 101 145.5 86 c 128,-1,18
 148 71 148 71 155.5 58.5 c 128,-1,19
 163 46 163 46 168.5 40 c 128,-1,20
 174 34 174 34 186 30 c 0,21,22
 202 24 202 24 241 18 c 128,-1,23
 280 12 280 12 287 12 c 1,24,-1
 285 -1 l 1,25,-1
 222 -1 l 2,0,1
EndSplineSet
AlternateSubs2: "'salt' Stylistic Alternatives in Latin lookup 16 subtable" t.salt
Substitution2: "'smcp' Lowercase to Small Capitals lookup 1 subtable" t.smcp
EndChar

StartChar: u
Encoding: 117 117 88
Width: 539
GlyphClass: 2
Flags: W
LayerCount: 2
Fore
SplineSet
97 133 m 0,0,1
 97 90 97 90 120 58 c 0,2,3
 151 16 151 16 214.5 16 c 128,-1,4
 278 16 278 16 327.5 30 c 128,-1,5
 377 44 377 44 442 77 c 1,6,-1
 514 532 l 1,7,-1
 538 532 l 1,8,-1
 454 1 l 1,9,-1
 440 1 l 1,10,-1
 440 63 l 1,11,12
 319 -8 319 -8 213 -8 c 0,13,14
 137 -8 137 -8 100 42 c 0,15,16
 72 80 72 80 72 131 c 0,17,18
 72 146 72 146 75 162 c 2,19,-1
 134 532 l 1,20,-1
 158 532 l 1,21,-1
 99 162 l 2,22,23
 97 147 97 147 97 133 c 0,0,1
EndSplineSet
AlternateSubs2: "'salt' Stylistic Alternatives in Latin lookup 16 subtable" u.salt
Substitution2: "'smcp' Lowercase to Small Capitals lookup 1 subtable" u.smcp
EndChar

StartChar: v
Encoding: 118 118 89
Width: 533
GlyphClass: 2
Flags: W
LayerCount: 2
Fore
SplineSet
541 522 m 0,0,1
 541 495 541 495 511 440 c 1,2,-1
 256 0 l 1,3,-1
 228 0 l 1,4,-1
 94 531 l 1,5,-1
 118 531 l 1,6,-1
 246 33 l 1,7,-1
 488 448 l 2,8,9
 521 506 521 506 525 532 c 1,10,-1
 540 532 l 1,11,12
 541 528 541 528 541 522 c 0,0,1
EndSplineSet
Substitution2: "'smcp' Lowercase to Small Capitals lookup 1 subtable" v.smcp
EndChar

StartChar: w
Encoding: 119 119 90
Width: 806
GlyphClass: 2
Flags: W
LayerCount: 2
Fore
SplineSet
539 521 m 0,0,1
 539 494 539 494 508 438 c 1,2,-1
 445 329 l 1,3,-1
 522 30 l 1,4,-1
 764 446 l 2,5,6
 800 508 800 508 803 532 c 1,7,-1
 818 532 l 1,8,9
 819 528 819 528 819 523 c 0,10,11
 819 496 819 496 788 440 c 1,12,-1
 533 0 l 1,13,-1
 506 0 l 1,14,-1
 428 300 l 1,15,-1
 254 0 l 1,16,-1
 228 0 l 1,17,-1
 94 531 l 1,18,-1
 118 531 l 1,19,-1
 245 32 l 1,20,-1
 484 445 l 2,21,22
 520 508 520 508 523 530 c 1,23,-1
 538 530 l 1,24,25
 539 526 539 526 539 521 c 0,0,1
EndSplineSet
Substitution2: "'smcp' Lowercase to Small Capitals lookup 1 subtable" w.smcp
EndChar

StartChar: x
Encoding: 120 120 91
Width: 444
GlyphClass: 2
Flags: W
LayerCount: 2
Fore
SplineSet
24 0 m 1,0,-1
 258 266 l 1,1,-1
 108 531 l 1,2,-1
 140 531 l 1,3,-1
 278 288 l 1,4,-1
 492 531 l 1,5,-1
 524 531 l 1,6,-1
 290 266 l 1,7,-1
 440 0 l 1,8,-1
 408 0 l 1,9,-1
 271 243 l 1,10,-1
 56 0 l 1,11,-1
 24 0 l 1,0,-1
EndSplineSet
AlternateSubs2: "'salt' Stylistic Alternatives in Latin lookup 16 subtable" x.salt
Substitution2: "'smcp' Lowercase to Small Capitals lookup 1 subtable" x.smcp
EndChar

StartChar: y
Encoding: 121 121 92
Width: 536
GlyphClass: 2
Flags: W
LayerCount: 2
Fore
SplineSet
545 522 m 0,0,1
 545 493 545 493 523 446 c 2,2,-1
 310 1 l 1,3,4
 232 -171 232 -171 156 -240 c 0,5,6
 124 -269 124 -269 97 -269 c 1,7,-1
 97 -255 l 1,8,9
 117 -255 117 -255 143.5 -229 c 128,-1,10
 170 -203 170 -203 194 -166 c 0,11,12
 240 -92 240 -92 270 -26 c 1,13,-1
 283 0 l 1,14,15
 198 8 198 8 177 110 c 2,16,-1
 94 531 l 1,17,-1
 118 531 l 1,18,-1
 200 116 l 2,19,20
 218 25 218 25 295 25 c 1,21,-1
 500 454 l 1,22,23
 523 505 523 505 528 538 c 1,24,-1
 543 538 l 1,25,26
 545 531 545 531 545 522 c 0,0,1
EndSplineSet
Substitution2: "'smcp' Lowercase to Small Capitals lookup 1 subtable" y.smcp
EndChar

StartChar: z
Encoding: 122 122 93
Width: 449
GlyphClass: 2
Flags: W
LayerCount: 2
Fore
SplineSet
45 1 m 1,0,-1
 49 25 l 1,1,-1
 472 507 l 1,2,-1
 110 507 l 1,3,-1
 114 531 l 1,4,-1
 510 531 l 1,5,-1
 506 507 l 1,6,-1
 82 25 l 1,7,-1
 430 25 l 1,8,-1
 426 1 l 1,9,-1
 45 1 l 1,0,-1
EndSplineSet
Substitution2: "'smcp' Lowercase to Small Capitals lookup 1 subtable" z.smcp
EndChar

StartChar: braceleft
Encoding: 123 123 94
Width: 260
GlyphClass: 2
Flags: W
LayerCount: 2
Fore
SplineSet
170 323 m 0,0,1
 170 317 170 317 169 311 c 2,2,-1
 123 22 l 2,3,4
 119 -4 119 -4 119 -26 c 0,5,6
 119 -71 119 -71 138 -94 c 0,7,8
 166 -127 166 -127 237 -127 c 1,9,-1
 233 -150 l 1,10,11
 180 -150 180 -150 147.5 -133 c 128,-1,12
 115 -116 115 -116 106 -90 c 0,13,14
 95 -57 95 -57 95 -25.5 c 128,-1,15
 95 6 95 6 100 29 c 1,16,-1
 144 307 l 2,17,18
 145 314 145 314 145 320 c 0,19,20
 145 345 145 345 123.5 362.5 c 128,-1,21
 102 380 102 380 73 380 c 0,22,23
 70 380 70 380 67 380 c 1,24,-1
 71 407 l 1,25,26
 163 415 163 415 173 480 c 2,27,-1
 211 723 l 2,28,29
 224 806 224 806 266 854 c 128,-1,30
 308 902 308 902 400 902 c 1,31,-1
 396 879 l 1,32,33
 327 879 327 879 287.5 841.5 c 128,-1,34
 248 804 248 804 234 716 c 2,35,-1
 197 480 l 2,36,37
 191 445 191 445 164.5 422 c 128,-1,38
 138 399 138 399 103 394 c 1,39,40
 135 389 135 389 152.5 368 c 128,-1,41
 170 347 170 347 170 323 c 0,0,1
EndSplineSet
EndChar

StartChar: bar
Encoding: 124 124 95
Width: 215
GlyphClass: 2
Flags: W
LayerCount: 2
Fore
SplineSet
74 -72 m 1,0,-1
 207 770 l 1,1,-1
 231 770 l 1,2,-1
 98 -72 l 1,3,-1
 74 -72 l 1,0,-1
EndSplineSet
EndChar

StartChar: braceright
Encoding: 125 125 96
Width: 258
GlyphClass: 2
Flags: W
LayerCount: 2
Fore
SplineSet
289 394 m 1,0,1
 256 399 256 399 239 419.5 c 128,-1,2
 222 440 222 440 222 456 c 128,-1,3
 222 472 222 472 223 480 c 2,4,-1
 260 716 l 2,5,6
 265 746 265 746 265 782 c 128,-1,7
 265 818 265 818 246 843 c 0,8,9
 218 881 218 881 150 881 c 1,10,-1
 154 902 l 1,11,12
 288 902 288 902 288 765 c 0,13,14
 288 740 288 740 283 709 c 2,15,-1
 247 480 l 2,16,17
 246 474 246 474 246 464.5 c 128,-1,18
 246 455 246 455 251.5 443 c 128,-1,19
 257 431 257 431 270 423 c 0,20,21
 294 409 294 409 325 407 c 1,22,-1
 321 380 l 1,23,24
 318 380 318 380 315 380 c 0,25,26
 286 380 286 380 256 360.5 c 128,-1,27
 226 341 226 341 220 307 c 2,28,-1
 174 17 l 2,29,30
 169 -18 169 -18 160.5 -43 c 128,-1,31
 152 -68 152 -68 132 -95 c 0,32,33
 93 -150 93 -150 -13 -150 c 1,34,-1
 -9 -127 l 1,35,36
 62 -127 62 -127 100 -94 c 128,-1,37
 138 -61 138 -61 151 22 c 2,38,-1
 197 311 l 2,39,40
 202 342 202 342 229 365.5 c 128,-1,41
 256 389 256 389 289 394 c 1,0,1
EndSplineSet
EndChar

StartChar: asciitilde
Encoding: 126 126 97
Width: 488
GlyphClass: 2
Flags: W
LayerCount: 2
Fore
SplineSet
255 630 m 0,0,1
 275 630 275 630 315.5 593.5 c 128,-1,2
 356 557 356 557 371 557 c 0,3,4
 405 557 405 557 468 602 c 0,5,6
 477 609 477 609 478 610 c 1,7,-1
 483 603 l 1,8,9
 457 581 457 581 444 571 c 0,10,11
 403 541 403 541 368 541 c 0,12,13
 346 541 346 541 307 577.5 c 128,-1,14
 268 614 268 614 256.5 614 c 128,-1,15
 245 614 245 614 237.5 613 c 128,-1,16
 230 612 230 612 221.5 608.5 c 128,-1,17
 213 605 213 605 207 602.5 c 128,-1,18
 201 600 201 600 191.5 594 c 128,-1,19
 182 588 182 588 177 586 c 0,20,21
 164 579 164 579 144 564 c 1,22,-1
 140 572 l 1,23,24
 215 630 215 630 255 630 c 0,0,1
EndSplineSet
EndChar

StartChar: exclamdown
Encoding: 161 161 98
Width: 239
GlyphClass: 2
Flags: W
LayerCount: 2
Fore
SplineSet
45 -270 m 1,0,-1
 135 266 l 1,1,-1
 147 266 l 1,2,-1
 67 -270 l 1,3,-1
 45 -270 l 1,0,-1
165 460 m 2,4,-1
 177 460 l 2,5,6
 189 460 189 460 187 450 c 2,7,-1
 176 387 l 2,8,9
 174 374 174 374 162 374 c 2,10,-1
 151 374 l 2,11,12
 139 374 139 374 141 387 c 2,13,-1
 152 450 l 2,14,15
 154 460 154 460 165 460 c 2,4,-1
EndSplineSet
Substitution2: "'case' Case-Sensitive Forms lookup 18 subtable" exclamdown.alt
Substitution2: "'smcp' Lowercase to Small Capitals lookup 1 subtable" exclamdown.smcp
EndChar

StartChar: cent
Encoding: 162 162 99
Width: 478
GlyphClass: 2
Flags: W
LayerCount: 2
Fore
SplineSet
491 496 m 1,0,1
 384 512 384 512 320.5 512 c 128,-1,2
 257 512 257 512 231 503 c 128,-1,3
 205 494 205 494 180 468 c 1,4,5
 129 418 129 418 105 262 c 1,6,7
 95 212 95 212 95 188.5 c 128,-1,8
 95 165 95 165 96.5 140 c 128,-1,9
 98 115 98 115 105.5 87.5 c 128,-1,10
 113 60 113 60 131 45 c 0,11,12
 162 19 162 19 210 19 c 0,13,14
 292 19 292 19 394 35 c 2,15,-1
 426 40 l 1,16,-1
 423 24 l 1,17,18
 332 -1 332 -1 249 -4 c 1,19,-1
 236 -82 l 1,20,-1
 218 -82 l 1,21,-1
 230 -5 l 1,22,23
 224 -5 224 -5 209 -5 c 128,-1,24
 194 -5 194 -5 173.5 -1.5 c 128,-1,25
 153 2 153 2 132 12 c 0,26,27
 92 32 92 32 76 94 c 0,28,29
 69 121 69 121 69 142.5 c 128,-1,30
 69 164 69 164 69.5 189 c 128,-1,31
 70 214 70 214 80 273 c 1,32,33
 98 393 98 393 132 448 c 0,34,35
 168 505 168 505 212 521 c 0,36,37
 255 536 255 536 316 536 c 1,38,-1
 329 618 l 1,39,-1
 347 618 l 1,40,-1
 334 535 l 1,41,42
 412 530 412 530 493 510 c 1,43,-1
 491 496 l 1,0,1
EndSplineSet
EndChar

StartChar: sterling
Encoding: 163 163 100
Width: 559
GlyphClass: 2
Flags: W
LayerCount: 2
Fore
SplineSet
464 709 m 2,0,1
 419 709 419 709 390 705.5 c 128,-1,2
 361 702 361 702 331.5 690 c 128,-1,3
 302 678 302 678 284 656 c 0,4,5
 243 608 243 608 226 505 c 2,6,-1
 205 372 l 1,7,-1
 495 364 l 1,8,-1
 492 350 l 1,9,-1
 201 350 l 1,10,-1
 150 24 l 1,11,-1
 519 24 l 1,12,-1
 515 0 l 1,13,-1
 50 0 l 1,14,-1
 52 14 l 1,15,-1
 126 24 l 1,16,-1
 177 350 l 1,17,-1
 105 350 l 1,18,-1
 108 364 l 1,19,-1
 181 372 l 1,20,-1
 202 505 l 2,21,22
 221 622 221 622 272 678 c 0,23,24
 293 701 293 701 327.5 713.5 c 128,-1,25
 362 726 362 726 391 729 c 128,-1,26
 420 732 420 732 466 732 c 1,27,-1
 631 723 l 1,28,-1
 628 709 l 1,29,-1
 464 709 l 2,0,1
EndSplineSet
Substitution2: "'smcp' Lowercase to Small Capitals lookup 1 subtable" sterling.smcp
EndChar

StartChar: currency
Encoding: 164 164 101
Width: 469
GlyphClass: 2
Flags: W
LayerCount: 2
Fore
SplineSet
432 339 m 0,0,1
 432 264 432 264 372 201 c 1,2,-1
 404 163 l 1,3,-1
 393 154 l 1,4,-1
 362 192 l 1,5,6
 306 143 306 143 239.5 143 c 128,-1,7
 173 143 173 143 134 195 c 1,8,-1
 87 154 l 1,9,-1
 79 164 l 1,10,-1
 127 205 l 1,11,12
 103 244 103 244 103 290 c 0,13,14
 103 368 103 368 167 426 c 1,15,-1
 127 472 l 1,16,-1
 137 481 l 1,17,-1
 176 434 l 1,18,19
 229 477 229 477 291 477 c 128,-1,20
 353 477 353 477 392 438 c 1,21,-1
 445 482 l 1,22,-1
 454 472 l 1,23,-1
 401 428 l 1,24,25
 432 390 432 390 432 339 c 0,0,1
117 287 m 0,26,27
 117 240 117 240 144 204 c 0,28,29
 180 158 180 158 242 158 c 128,-1,30
 304 158 304 158 355 204 c 0,31,32
 418 261 418 261 418 340 c 0,33,34
 418 385 418 385 385 423.5 c 128,-1,35
 352 462 352 462 290.5 462 c 128,-1,36
 229 462 229 462 179 418 c 0,37,38
 117 364 117 364 117 287 c 0,26,27
EndSplineSet
EndChar

StartChar: yen
Encoding: 165 165 102
Width: 583
GlyphClass: 2
Flags: W
LayerCount: 2
Fore
SplineSet
106 198 m 1,0,-1
 108 212 l 1,1,-1
 304 212 l 1,2,-1
 319 307 l 1,3,-1
 123 307 l 1,4,-1
 125 321 l 1,5,-1
 320 321 l 1,6,-1
 144 732 l 1,7,-1
 171 732 l 1,8,-1
 336 346 l 1,9,-1
 643 732 l 1,10,-1
 674 732 l 1,11,-1
 346 321 l 1,12,-1
 552 321 l 1,13,-1
 550 307 l 1,14,-1
 343 307 l 1,15,-1
 328 212 l 1,16,-1
 535 212 l 1,17,-1
 533 198 l 1,18,-1
 326 198 l 1,19,-1
 295 0 l 1,20,-1
 271 0 l 1,21,-1
 302 198 l 1,22,-1
 106 198 l 1,0,-1
EndSplineSet
Substitution2: "'smcp' Lowercase to Small Capitals lookup 1 subtable" yen.smcp
EndChar

StartChar: brokenbar
Encoding: 166 166 103
Width: 217
GlyphClass: 2
Flags: W
LayerCount: 2
Fore
SplineSet
74 -72 m 1,0,-1
 126 256 l 1,1,-1
 150 256 l 1,2,-1
 98 -72 l 1,3,-1
 74 -72 l 1,0,-1
153 429 m 1,4,-1
 207 770 l 1,5,-1
 231 770 l 1,6,-1
 177 429 l 1,7,-1
 153 429 l 1,4,-1
EndSplineSet
EndChar

StartChar: section
Encoding: 167 167 104
Width: 559
GlyphClass: 2
Flags: W
LayerCount: 2
Fore
SplineSet
458 265 m 1,0,1
 499 256 499 256 499 220 c 0,2,3
 499 211 499 211 496 183 c 1,4,-1
 484 110 l 2,5,6
 470 21 470 21 404 2 c 1,7,8
 373 -8 373 -8 327 -8 c 0,9,10
 186 -8 186 -8 93 2 c 1,11,-1
 95 16 l 1,12,-1
 331 16 l 2,13,14
 389 16 389 16 420 36.5 c 128,-1,15
 451 57 451 57 460 110 c 2,16,-1
 472 183 l 2,17,18
 474 196 474 196 474 214 c 128,-1,19
 474 232 474 232 460 243.5 c 128,-1,20
 446 255 446 255 375 255 c 2,21,-1
 226 255 l 2,22,23
 167 255 167 255 155 259 c 128,-1,24
 143 263 143 263 133.5 268 c 128,-1,25
 124 273 124 273 120 280.5 c 128,-1,26
 116 288 116 288 112 299 c 0,27,28
 106 317 106 317 112 358 c 2,29,-1
 121 423 l 2,30,31
 132 498 132 498 191 508 c 1,32,33
 147 516 147 516 147 568 c 0,34,35
 147 578 147 578 149 590 c 2,36,-1
 160 662 l 1,37,38
 180 784 180 784 310 784 c 0,39,40
 460 784 460 784 552 774 c 1,41,-1
 550 760 l 1,42,-1
 306 760 l 2,43,44
 200 760 200 760 184 660 c 2,45,-1
 173 590 l 2,46,47
 171 579 171 579 171 571 c 0,48,49
 171 543 171 543 190.5 530.5 c 128,-1,50
 210 518 210 518 268 518 c 2,51,-1
 417 518 l 2,52,53
 498 518 498 518 520 493 c 0,54,55
 536 476 536 476 536 451.5 c 128,-1,56
 536 427 536 427 533 409 c 2,57,-1
 523 347 l 2,58,59
 519 323 519 323 514 308 c 128,-1,60
 509 293 509 293 495 280 c 128,-1,61
 481 267 481 267 458 265 c 1,0,1
133 328.5 m 128,-1,63
 133 318 133 318 134.5 307.5 c 128,-1,64
 136 297 136 297 144 292 c 128,-1,65
 152 287 152 287 155.5 284 c 128,-1,66
 159 281 159 281 175 280 c 128,-1,67
 191 279 191 279 198 279 c 2,68,-1
 379 279 l 2,69,70
 453 279 453 279 472 290.5 c 128,-1,71
 491 302 491 302 499 354 c 2,72,-1
 509 416 l 2,73,74
 511 431 511 431 511 450.5 c 128,-1,75
 511 470 511 470 495.5 482.5 c 128,-1,76
 480 495 480 495 413 495 c 2,77,-1
 264 495 l 2,78,79
 186 495 186 495 170 478 c 1,80,81
 152 457 152 457 145 414 c 2,82,-1
 136 353 l 2,83,62
 133 339 133 339 133 328.5 c 128,-1,63
EndSplineSet
EndChar

StartChar: dieresis
Encoding: 168 168 105
Width: 443
GlyphClass: 2
Flags: W
LayerCount: 2
Fore
SplineSet
176 582 m 0,0,1
 172 564 172 564 156.5 564 c 128,-1,2
 141 564 141 564 141 579 c 0,3,4
 141 599 141 599 162 599 c 0,5,6
 179 599 179 599 176 582 c 0,0,1
431 582 m 0,7,8
 427 564 427 564 411.5 564 c 128,-1,9
 396 564 396 564 396 579 c 0,10,11
 396 599 396 599 417 599 c 0,12,13
 431 599 431 599 431 587 c 0,14,15
 431 585 431 585 431 582 c 0,7,8
EndSplineSet
Substitution2: "'smcp' Lowercase to Small Capitals lookup 1 subtable" dieresis.smcp
EndChar

StartChar: copyright
Encoding: 169 169 106
Width: 867
GlyphClass: 2
Flags: W
LayerCount: 2
Fore
SplineSet
409 732 m 2,0,-1
 665 732 l 2,1,2
 721 732 721 732 758.5 705 c 128,-1,3
 796 678 796 678 812 639 c 0,4,5
 838 579 838 579 838 482 c 0,6,7
 838 434 838 434 827 364 c 0,8,9
 802 208 802 208 729.5 104 c 128,-1,10
 657 0 657 0 550 0 c 2,11,-1
 294 0 l 2,12,13
 241 0 241 0 202 25.5 c 128,-1,14
 163 51 163 51 144 92 c 0,15,16
 104 178 104 178 104 263 c 0,17,18
 104 298 104 298 111 371 c 1,19,20
 138 551 138 551 228 652 c 0,21,22
 260 688 260 688 307 710 c 128,-1,23
 354 732 354 732 409 732 c 2,0,-1
125 368 m 1,24,25
 116 328 116 328 116 297 c 128,-1,26
 116 266 116 266 120 225 c 128,-1,27
 124 184 124 184 141.5 132 c 128,-1,28
 159 80 159 80 199 47 c 128,-1,29
 239 14 239 14 295 14 c 2,30,-1
 552 14 l 2,31,32
 641 14 641 14 713.5 107.5 c 128,-1,33
 786 201 786 201 813 368 c 1,34,35
 823 441 823 441 823 482.5 c 128,-1,36
 823 524 823 524 822 544 c 0,37,38
 817 621 817 621 777 669.5 c 128,-1,39
 737 718 737 718 665 718 c 2,40,-1
 407 718 l 2,41,42
 311 718 311 718 234 636.5 c 128,-1,43
 157 555 157 555 125 368 c 1,24,25
465 583 m 0,44,45
 548 583 548 583 640 566 c 1,46,-1
 639 557 l 1,47,48
 556 569 556 569 463 569 c 0,49,50
 333 569 333 569 300 362 c 0,51,52
 293 321 293 321 293 281 c 0,53,54
 293 161 293 161 398 161 c 0,55,56
 514 161 514 161 585 177 c 1,57,-1
 583 168 l 1,58,59
 505 147 505 147 396 147 c 0,60,61
 329 147 329 147 298 196 c 0,62,63
 279 226 279 226 279 273.5 c 128,-1,64
 279 321 279 321 286 368 c 0,65,66
 321 583 321 583 465 583 c 0,44,45
EndSplineSet
EndChar

StartChar: ordfeminine
Encoding: 170 170 107
Width: 337
GlyphClass: 3
Flags: W
LayerCount: 2
Fore
SplineSet
72 291 m 1,0,-1
 74 304 l 1,1,-1
 353 304 l 1,2,-1
 351 291 l 1,3,-1
 72 291 l 1,0,-1
284 733 m 0,4,5
 362 733 362 733 408 683 c 1,6,-1
 361 381 l 1,7,-1
 351 381 l 1,8,-1
 353 437 l 1,9,10
 330 410 330 410 293.5 393.5 c 128,-1,11
 257 377 257 377 220 377 c 0,12,13
 166 377 166 377 130 421 c 0,14,15
 104 452 104 452 104 511 c 0,16,17
 104 583 104 583 123 625.5 c 128,-1,18
 142 668 142 668 157.5 685 c 128,-1,19
 173 702 173 702 194 713 c 0,20,21
 225 730 225 730 249 731.5 c 128,-1,22
 273 733 273 733 284 733 c 0,4,5
124 560 m 0,23,24
 120 537 120 537 120 504 c 128,-1,25
 120 471 120 471 139 439 c 0,26,27
 166 393 166 393 224.5 393 c 128,-1,28
 283 393 283 393 356 451 c 1,29,-1
 391 679 l 1,30,31
 381 693 381 693 347 704.5 c 128,-1,32
 313 716 313 716 292.5 716 c 128,-1,33
 272 716 272 716 269 716 c 0,34,35
 148 713 148 713 124 560 c 0,23,24
EndSplineSet
Substitution2: "'smcp' Lowercase to Small Capitals lookup 1 subtable" ordfeminine.smcp
Ligature2: "'ordn' Ordinals lookup 0 subtable" a
EndChar

StartChar: guillemotleft
Encoding: 171 171 108
Width: 562
GlyphClass: 2
Flags: W
LayerCount: 2
Fore
SplineSet
106 354 m 1,0,-1
 343 558 l 1,1,-1
 358 541 l 1,2,-1
 140 352 l 1,3,-1
 300 161 l 1,4,-1
 283 145 l 1,5,-1
 106 354 l 1,0,-1
291 354 m 1,6,-1
 528 558 l 1,7,-1
 543 541 l 1,8,-1
 323 353 l 1,9,-1
 487 160 l 1,10,-1
 468 145 l 1,11,-1
 291 354 l 1,6,-1
EndSplineSet
EndChar

StartChar: logicalnot
Encoding: 172 172 109
Width: 535
GlyphClass: 2
Flags: W
LayerCount: 2
Fore
SplineSet
491 305 m 1,0,1
 482 242 482 242 468 159 c 1,2,-1
 444 159 l 1,3,-1
 463 281 l 1,4,-1
 90 281 l 1,5,-1
 94 305 l 1,6,-1
 491 305 l 1,0,1
EndSplineSet
EndChar

StartChar: uni00AD
Encoding: 173 173 110
Width: 361
GlyphClass: 2
Flags: W
LayerCount: 2
Fore
SplineSet
60 278 m 1,0,-1
 64 302 l 1,1,-1
 378 302 l 1,2,-1
 374 278 l 1,3,-1
 60 278 l 1,0,-1
EndSplineSet
Substitution2: "'case' Case-Sensitive Forms lookup 18 subtable" uni00AD.alt
Substitution2: "'c2sc' Capitals to Small Capitals in Latin lookup 2 subtable" uni00AD.smcp
Substitution2: "'smcp' Lowercase to Small Capitals lookup 1 subtable" uni00AD.smcp
EndChar

StartChar: registered
Encoding: 174 174 111
Width: 867
GlyphClass: 2
Flags: W
LayerCount: 2
Fore
SplineSet
409 732 m 2,0,-1
 665 732 l 2,1,2
 721 732 721 732 758.5 705 c 128,-1,3
 796 678 796 678 812 639 c 0,4,5
 838 579 838 579 838 482 c 0,6,7
 838 434 838 434 827 364 c 0,8,9
 802 208 802 208 729.5 104 c 128,-1,10
 657 0 657 0 550 0 c 2,11,-1
 294 0 l 2,12,13
 241 0 241 0 202 25.5 c 128,-1,14
 163 51 163 51 144 92 c 0,15,16
 104 177 104 177 104 263 c 0,17,18
 104 297 104 297 111 370 c 1,19,20
 138 550 138 550 228 652 c 0,21,22
 260 687 260 687 307 709.5 c 128,-1,23
 354 732 354 732 409 732 c 2,0,-1
125 368 m 1,24,25
 116 328 116 328 116 297 c 128,-1,26
 116 266 116 266 120 225 c 128,-1,27
 124 184 124 184 140.5 132 c 128,-1,28
 157 80 157 80 197 47 c 128,-1,29
 237 14 237 14 293 14 c 2,30,-1
 552 14 l 2,31,32
 641 14 641 14 713.5 107.5 c 128,-1,33
 786 201 786 201 813 368 c 1,34,35
 823 441 823 441 823 482.5 c 128,-1,36
 823 524 823 524 822 544 c 0,37,38
 817 621 817 621 777.5 669.5 c 128,-1,39
 738 718 738 718 666 718 c 2,40,-1
 407 718 l 2,41,42
 311 718 311 718 234 636.5 c 128,-1,43
 157 555 157 555 125 368 c 1,24,25
532 580 m 2,44,45
 639 580 639 580 639 488 c 0,46,47
 639 415 639 415 603 372 c 0,48,49
 580 346 580 346 508 346 c 1,50,-1
 589 153 l 1,51,-1
 574 153 l 1,52,-1
 493 345 l 1,53,-1
 333 350 l 1,54,-1
 302 153 l 1,55,-1
 288 153 l 1,56,-1
 355 580 l 1,57,-1
 532 580 l 2,44,45
503 359 m 2,58,59
 558 359 558 359 585.5 377.5 c 128,-1,60
 613 396 613 396 622 453 c 0,61,62
 625 472 625 472 625 497 c 128,-1,63
 625 522 625 522 610 540 c 0,64,65
 587 566 587 566 536 566 c 2,66,-1
 367 566 l 1,67,-1
 334 359 l 1,68,-1
 503 359 l 2,58,59
EndSplineSet
EndChar

StartChar: macron
Encoding: 175 175 112
Width: 393
GlyphClass: 2
Flags: W
LayerCount: 2
Fore
SplineSet
134 531 m 1,0,-1
 136 546 l 1,1,-1
 388 546 l 1,2,-1
 386 531 l 1,3,-1
 134 531 l 1,0,-1
EndSplineSet
Substitution2: "'smcp' Lowercase to Small Capitals lookup 1 subtable" macron.smcp
EndChar

StartChar: degree
Encoding: 176 176 113
Width: 355
GlyphClass: 2
Flags: W
LayerCount: 2
Fore
SplineSet
265 735 m 128,-1,1
 307 735 307 735 330 708 c 128,-1,2
 353 681 353 681 353 650 c 0,3,4
 353 597 353 597 316.5 563.5 c 128,-1,5
 280 530 280 530 238 530 c 128,-1,6
 196 530 196 530 172 557 c 128,-1,7
 148 584 148 584 148 615 c 0,8,9
 148 667 148 667 185.5 701 c 128,-1,0
 223 735 223 735 265 735 c 128,-1,1
162 617 m 0,10,11
 162 590 162 590 181.5 567 c 128,-1,12
 201 544 201 544 237 544 c 128,-1,13
 273 544 273 544 302 570 c 1,14,15
 339 601 339 601 339 648 c 0,16,17
 339 675 339 675 320 698 c 128,-1,18
 301 721 301 721 265 721 c 128,-1,19
 229 721 229 721 199 695 c 0,20,21
 162 663 162 663 162 617 c 0,10,11
EndSplineSet
Substitution2: "'smcp' Lowercase to Small Capitals lookup 1 subtable" degree.smcp
EndChar

StartChar: plusminus
Encoding: 177 177 114
Width: 512
GlyphClass: 2
Flags: W
LayerCount: 2
Fore
SplineSet
69 137 m 1,0,-1
 73 161 l 1,1,-1
 459 161 l 1,2,-1
 455 137 l 1,3,-1
 69 137 l 1,0,-1
112 411 m 1,4,-1
 116 435 l 1,5,-1
 297 435 l 1,6,-1
 326 616 l 1,7,-1
 350 616 l 1,8,-1
 321 435 l 1,9,-1
 502 435 l 1,10,-1
 498 411 l 1,11,-1
 317 411 l 1,12,-1
 289 230 l 1,13,-1
 265 230 l 1,14,-1
 293 411 l 1,15,-1
 112 411 l 1,4,-1
EndSplineSet
EndChar

StartChar: twosuperior
Encoding: 178 178 115
Width: 397
GlyphClass: 2
Flags: W
LayerCount: 2
Fore
SplineSet
408 665.5 m 128,-1,1
 418 684 418 684 420.5 700.5 c 128,-1,2
 423 717 423 717 423 742 c 128,-1,3
 423 767 423 767 409 788 c 0,4,5
 389 820 389 820 322 820 c 2,6,-1
 145 820 l 1,7,-1
 146 830 l 1,8,-1
 147 831 l 1,9,10
 206 838 206 838 331 838 c 0,11,12
 400 838 400 838 426 798 c 0,13,14
 443 771 443 771 443 742.5 c 128,-1,15
 443 714 443 714 439.5 693 c 128,-1,16
 436 672 436 672 419 644 c 128,-1,17
 402 616 402 616 374 587 c 128,-1,18
 346 558 346 558 318 531.5 c 128,-1,19
 290 505 290 505 254 477 c 128,-1,20
 218 449 218 449 195 432 c 0,21,22
 120 376 120 376 115 374 c 1,23,-1
 387 374 l 1,24,-1
 384 356 l 1,25,-1
 75 356 l 1,26,-1
 77 370 l 1,27,28
 79 371 79 371 104 389 c 128,-1,29
 129 407 129 407 140.5 415 c 128,-1,30
 152 423 152 423 180.5 444.5 c 128,-1,31
 209 466 209 466 226 479 c 128,-1,32
 243 492 243 492 270 514.5 c 128,-1,33
 297 537 297 537 314 553.5 c 128,-1,34
 331 570 331 570 352 591 c 128,-1,35
 373 612 373 612 385.5 629.5 c 128,-1,0
 398 647 398 647 408 665.5 c 128,-1,1
EndSplineSet
EndChar

StartChar: threesuperior
Encoding: 179 179 116
Width: 426
GlyphClass: 2
Flags: W
LayerCount: 2
Fore
SplineSet
252 370 m 2,0,1
 316 370 316 370 347.5 392.5 c 128,-1,2
 379 415 379 415 388 475 c 1,3,-1
 391 498 l 2,4,5
 392 505 392 505 392 512 c 0,6,7
 392 544 392 544 365 565.5 c 128,-1,8
 338 587 338 587 295 588 c 2,9,-1
 152 592 l 1,10,-1
 154 602 l 1,11,-1
 291 606 l 2,12,13
 340 608 340 608 379.5 630.5 c 128,-1,14
 419 653 419 653 423 689 c 2,15,-1
 427 725 l 2,16,17
 429 736 429 736 429 745 c 0,18,19
 429 815 429 815 337 815 c 2,20,-1
 144 815 l 1,21,-1
 145 825 l 1,22,23
 187 833 187 833 341 833 c 0,24,25
 403 833 403 833 425 805.5 c 128,-1,26
 447 778 447 778 447 743 c 0,27,28
 447 733 447 733 445 722 c 2,29,-1
 439 684 l 2,30,31
 434 646 434 646 400.5 622.5 c 128,-1,32
 367 599 367 599 342 597 c 1,33,34
 366 592 366 592 388.5 568.5 c 128,-1,35
 411 545 411 545 411 514 c 0,36,37
 411 507 411 507 410 499 c 2,38,-1
 405 469 l 2,39,40
 396 412 396 412 363 382 c 128,-1,41
 330 352 330 352 260 352 c 0,42,43
 126 352 126 352 76 363 c 1,44,-1
 77 370 l 1,45,-1
 252 370 l 2,0,1
EndSplineSet
EndChar

StartChar: acute
Encoding: 180 180 117
Width: 197
GlyphClass: 2
Flags: W
LayerCount: 2
Fore
SplineSet
104 531 m 1,0,-1
 246 664 l 1,1,-1
 272 664 l 1,2,-1
 118 531 l 1,3,-1
 104 531 l 1,0,-1
EndSplineSet
Substitution2: "'smcp' Lowercase to Small Capitals lookup 1 subtable" acute.smcp
EndChar

StartChar: uni00B5
Encoding: 181 181 118
Width: 582
GlyphClass: 2
Flags: W
LayerCount: 2
Fore
SplineSet
137 133 m 0,0,1
 137 90 137 90 160 58 c 0,2,3
 191 16 191 16 254.5 16 c 128,-1,4
 318 16 318 16 367.5 30 c 128,-1,5
 417 44 417 44 482 77 c 1,6,-1
 554 532 l 1,7,-1
 578 532 l 1,8,-1
 494 1 l 1,9,-1
 480 1 l 1,10,-1
 480 63 l 1,11,12
 359 -8 359 -8 252 -8 c 0,13,14
 158 -8 158 -8 125 69 c 1,15,-1
 71 -270 l 1,16,-1
 47 -270 l 1,17,-1
 174 532 l 1,18,-1
 198 532 l 1,19,-1
 139 162 l 2,20,21
 137 147 137 147 137 133 c 0,0,1
EndSplineSet
EndChar

StartChar: paragraph
Encoding: 182 182 119
Width: 559
GlyphClass: 2
Flags: W
LayerCount: 2
Fore
SplineSet
311 732 m 2,0,-1
 646 732 l 1,1,-1
 642 706 l 1,2,-1
 573 706 l 1,3,-1
 461 0 l 1,4,-1
 437 0 l 1,5,-1
 549 708 l 1,6,-1
 385 708 l 1,7,-1
 230 -270 l 1,8,-1
 206 -270 l 1,9,-1
 307 365 l 1,10,11
 294 357 294 357 274.5 357 c 128,-1,12
 255 357 255 357 251 357 c 0,13,14
 177 357 177 357 142 400 c 1,15,16
 116 434 116 434 116 479 c 0,17,18
 116 492 116 492 118 506 c 2,19,-1
 133 599 l 2,20,21
 143 665 143 665 194.5 698.5 c 128,-1,22
 246 732 246 732 311 732 c 2,0,-1
142 501 m 2,23,24
 140 488 140 488 140 471 c 128,-1,25
 140 454 140 454 150 432 c 128,-1,26
 160 410 160 410 182 398 c 1,27,28
 221 379 221 379 255 379 c 2,29,-1
 309 379 l 1,30,-1
 361 708 l 1,31,-1
 307 708 l 2,32,33
 245 708 245 708 204.5 675.5 c 128,-1,34
 164 643 164 643 156 592 c 2,35,-1
 142 501 l 2,23,24
EndSplineSet
EndChar

StartChar: periodcentered
Encoding: 183 183 120
Width: 281
GlyphClass: 2
Flags: W
LayerCount: 2
Fore
SplineSet
155 400 m 2,0,-1
 167 400 l 2,1,2
 178 400 178 400 176 388 c 2,3,-1
 174 376 l 2,4,5
 172 364 172 364 161 364 c 2,6,-1
 149 364 l 2,7,8
 137 364 137 364 139 376 c 2,9,-1
 141 388 l 2,10,11
 142 400 142 400 155 400 c 2,0,-1
EndSplineSet
Substitution2: "'smcp' Lowercase to Small Capitals lookup 1 subtable" periodcentered.smcp
EndChar

StartChar: cedilla
Encoding: 184 184 121
Width: 271
GlyphClass: 2
Flags: W
LayerCount: 2
Fore
SplineSet
53 -173 m 2,0,-1
 22 -173 l 1,1,-1
 23 -166 l 1,2,-1
 57 -161 l 2,3,4
 90 -156 90 -156 106 -149 c 128,-1,5
 122 -142 122 -142 137 -115.5 c 128,-1,6
 152 -89 152 -89 159 -37 c 1,7,-1
 176 -37 l 1,8,9
 164 -114 164 -114 139 -143.5 c 128,-1,10
 114 -173 114 -173 53 -173 c 2,0,-1
EndSplineSet
EndChar

StartChar: onesuperior
Encoding: 185 185 122
Width: 276
GlyphClass: 2
Flags: W
LayerCount: 2
Fore
SplineSet
115 756 m 1,0,-1
 116 767 l 1,1,2
 152 767 152 767 191.5 783.5 c 128,-1,3
 231 800 231 800 252 817 c 2,4,-1
 274 834 l 1,5,-1
 292 834 l 1,6,-1
 216 356 l 1,7,-1
 198 356 l 1,8,-1
 269 807 l 1,9,10
 202 756 202 756 115 756 c 1,0,-1
EndSplineSet
EndChar

StartChar: ordmasculine
Encoding: 186 186 123
Width: 367
GlyphClass: 3
Flags: W
LayerCount: 2
Fore
SplineSet
83 291 m 1,0,-1
 85 304 l 1,1,-1
 364 304 l 1,2,-1
 362 291 l 1,3,-1
 83 291 l 1,0,-1
165 700.5 m 128,-1,5
 200 737 200 737 292.5 737 c 128,-1,6
 385 737 385 737 408 696 c 0,7,8
 420 674 420 674 420 634 c 128,-1,9
 420 594 420 594 412 545 c 0,10,11
 396 445 396 445 361.5 409 c 128,-1,12
 327 373 327 373 235.5 373 c 128,-1,13
 144 373 144 373 120 414 c 0,14,15
 106 438 106 438 106 476.5 c 128,-1,16
 106 515 106 515 112 555 c 0,17,4
 130 664 130 664 165 700.5 c 128,-1,5
128 550 m 0,18,19
 122 511 122 511 122 476 c 128,-1,20
 122 441 122 441 135 422 c 0,21,22
 157 389 157 389 237 389 c 128,-1,23
 317 389 317 389 349 420 c 128,-1,24
 381 451 381 451 396 550 c 0,25,26
 404 598 404 598 404 633.5 c 128,-1,27
 404 669 404 669 393 688 c 0,28,29
 373 721 373 721 291 721 c 128,-1,30
 209 721 209 721 177 689 c 128,-1,31
 145 657 145 657 128 550 c 0,18,19
EndSplineSet
Substitution2: "'smcp' Lowercase to Small Capitals lookup 1 subtable" ordmasculine.smcp
Ligature2: "'ordn' Ordinals lookup 0 subtable" o
EndChar

StartChar: guillemotright
Encoding: 187 187 124
Width: 559
GlyphClass: 2
Flags: W
LayerCount: 2
Fore
SplineSet
81 163 m 1,0,-1
 306 357 l 1,1,-1
 149 542 l 1,2,-1
 167 558 l 1,3,-1
 339 354 l 1,4,-1
 96 145 l 1,5,-1
 81 163 l 1,0,-1
266 163 m 1,6,-1
 492 356 l 1,7,-1
 334 543 l 1,8,-1
 352 558 l 1,9,-1
 524 354 l 1,10,-1
 281 145 l 1,11,-1
 266 163 l 1,6,-1
EndSplineSet
EndChar

StartChar: onequarter
Encoding: 188 188 125
Width: 922
GlyphClass: 3
Flags: W
LayerCount: 2
Fore
SplineSet
115 656 m 1,0,-1
 116 667 l 1,1,2
 152 667 152 667 191.5 683.5 c 128,-1,3
 231 700 231 700 252 717 c 2,4,-1
 274 734 l 1,5,-1
 292 734 l 1,6,-1
 216 256 l 1,7,-1
 198 256 l 1,8,-1
 269 707 l 1,9,10
 202 656 202 656 115 656 c 1,0,-1
210 0 m 1,11,-1
 718 770 l 1,12,-1
 738 770 l 1,13,-1
 230 0 l 1,14,-1
 210 0 l 1,11,-1
503 177 m 1,15,-1
 740 475 l 1,16,-1
 762 475 l 1,17,-1
 534 186 l 1,18,-1
 795 186 l 1,19,-1
 814 307 l 1,20,-1
 831 355 l 1,21,-1
 840 355 l 1,22,-1
 813 186 l 1,23,-1
 872 186 l 1,24,-1
 871 178 l 1,25,-1
 810 167 l 1,26,-1
 784 1 l 1,27,-1
 766 1 l 1,28,-1
 792 167 l 1,29,-1
 505 167 l 1,30,-1
 503 177 l 1,15,-1
EndSplineSet
Ligature2: "'frac' Diagonal Fractions lookup 7 subtable" one slash four
Ligature2: "'frac' Diagonal Fractions lookup 7 subtable" one fraction four
EndChar

StartChar: onehalf
Encoding: 189 189 126
Width: 948
GlyphClass: 3
Flags: W
LayerCount: 2
Fore
SplineSet
115 656 m 1,0,-1
 116 667 l 1,1,2
 152 667 152 667 191.5 683.5 c 128,-1,3
 231 700 231 700 252 717 c 2,4,-1
 274 734 l 1,5,-1
 292 734 l 1,6,-1
 216 256 l 1,7,-1
 198 256 l 1,8,-1
 269 707 l 1,9,10
 202 656 202 656 115 656 c 1,0,-1
164 0 m 1,11,-1
 672 770 l 1,12,-1
 692 770 l 1,13,-1
 184 0 l 1,14,-1
 164 0 l 1,11,-1
877 310.5 m 128,-1,16
 887 329 887 329 889.5 345.5 c 128,-1,17
 892 362 892 362 892 387 c 128,-1,18
 892 412 892 412 878 434 c 0,19,20
 858 465 858 465 791 465 c 2,21,-1
 614 465 l 1,22,-1
 615 475 l 1,23,-1
 616 476 l 1,24,25
 675 483 675 483 800 483 c 0,26,27
 912 483 912 483 912 380 c 0,28,29
 912 332 912 332 894 300.5 c 128,-1,30
 876 269 876 269 857 245.5 c 128,-1,31
 838 222 838 222 809 194.5 c 128,-1,32
 780 167 780 167 756.5 147 c 128,-1,33
 733 127 733 127 701.5 102.5 c 128,-1,34
 670 78 670 78 652.5 65.5 c 128,-1,35
 635 53 635 53 611 36.5 c 128,-1,36
 587 20 587 20 586 19 c 1,37,-1
 856 19 l 1,38,-1
 853 1 l 1,39,-1
 544 1 l 1,40,-1
 546 15 l 1,41,42
 548 16 548 16 573 34 c 128,-1,43
 598 52 598 52 609.5 60 c 128,-1,44
 621 68 621 68 649.5 89.5 c 128,-1,45
 678 111 678 111 695 124 c 128,-1,46
 712 137 712 137 739 159.5 c 128,-1,47
 766 182 766 182 783 198.5 c 128,-1,48
 800 215 800 215 821 236 c 128,-1,49
 842 257 842 257 854.5 274.5 c 128,-1,15
 867 292 867 292 877 310.5 c 128,-1,16
EndSplineSet
Ligature2: "'frac' Diagonal Fractions lookup 7 subtable" one slash two
Ligature2: "'frac' Diagonal Fractions lookup 7 subtable" one fraction two
EndChar

StartChar: threequarters
Encoding: 190 190 127
Width: 1032
GlyphClass: 3
Flags: W
LayerCount: 2
Fore
SplineSet
252 270 m 2,0,1
 316 270 316 270 347.5 292.5 c 128,-1,2
 379 315 379 315 388 375 c 1,3,-1
 391 398 l 2,4,5
 392 405 392 405 392 412 c 0,6,7
 392 444 392 444 365 465.5 c 128,-1,8
 338 487 338 487 295 488 c 2,9,-1
 152 492 l 1,10,-1
 154 502 l 1,11,-1
 291 506 l 2,12,13
 340 508 340 508 379.5 530.5 c 128,-1,14
 419 553 419 553 423 589 c 2,15,-1
 427 625 l 2,16,17
 429 636 429 636 429 645 c 0,18,19
 429 715 429 715 337 715 c 2,20,-1
 144 715 l 1,21,-1
 145 725 l 1,22,23
 187 733 187 733 341 733 c 0,24,25
 403 733 403 733 425 705.5 c 128,-1,26
 447 678 447 678 447 643 c 0,27,28
 447 633 447 633 445 622 c 2,29,-1
 439 584 l 2,30,31
 434 546 434 546 400.5 522.5 c 128,-1,32
 367 499 367 499 342 497 c 1,33,34
 366 492 366 492 388.5 468.5 c 128,-1,35
 411 445 411 445 411 414 c 0,36,37
 411 407 411 407 410 399 c 2,38,-1
 405 369 l 2,39,40
 396 312 396 312 363 282 c 128,-1,41
 330 252 330 252 260 252 c 0,42,43
 126 252 126 252 76 263 c 1,44,-1
 77 270 l 1,45,-1
 252 270 l 2,0,1
316 0 m 1,46,-1
 824 770 l 1,47,-1
 844 770 l 1,48,-1
 336 0 l 1,49,-1
 316 0 l 1,46,-1
587 177 m 1,50,-1
 825 475 l 1,51,-1
 847 475 l 1,52,-1
 617 186 l 1,53,-1
 880 186 l 1,54,-1
 899 307 l 1,55,-1
 916 355 l 1,56,-1
 925 355 l 1,57,-1
 898 186 l 1,58,-1
 957 186 l 1,59,-1
 956 178 l 1,60,-1
 895 167 l 1,61,-1
 869 1 l 1,62,-1
 851 1 l 1,63,-1
 877 167 l 1,64,-1
 590 167 l 1,65,-1
 587 177 l 1,50,-1
EndSplineSet
Ligature2: "'frac' Diagonal Fractions lookup 7 subtable" three slash four
Ligature2: "'frac' Diagonal Fractions lookup 7 subtable" three fraction four
EndChar

StartChar: questiondown
Encoding: 191 191 128
Width: 541
GlyphClass: 2
Flags: W
LayerCount: 2
Fore
SplineSet
263 178 m 0,0,1
 296 178 296 178 335 174 c 1,2,-1
 351 276 l 1,3,-1
 377 276 l 1,4,-1
 358 154 l 1,5,-1
 252 154 l 2,6,7
 171 154 171 154 125.5 122.5 c 128,-1,8
 80 91 80 91 68 18 c 2,9,-1
 52 -84 l 2,10,11
 48 -110 48 -110 48 -131 c 0,12,13
 48 -183 48 -183 72 -208 c 0,14,15
 107 -244 107 -244 202 -244 c 2,16,-1
 453 -244 l 1,17,-1
 451 -258 l 1,18,19
 363 -268 363 -268 197 -268 c 0,20,21
 193 -268 193 -268 188 -268 c 0,22,23
 85 -268 85 -268 50 -222 c 0,24,25
 24 -187 24 -187 24 -130 c 0,26,27
 24 -107 24 -107 28 -80 c 2,28,-1
 44 20 l 2,29,30
 59 116 59 116 128 152 c 0,31,32
 177 178 177 178 263 178 c 0,0,1
390 470 m 2,33,-1
 401 470 l 2,34,35
 413 470 413 470 411 458 c 2,36,-1
 402 396 l 2,37,38
 400 384 400 384 388 384 c 2,39,-1
 376 384 l 2,40,41
 365 384 365 384 367 396 c 2,42,-1
 376 458 l 2,43,44
 378 470 378 470 390 470 c 2,33,-1
EndSplineSet
Substitution2: "'case' Case-Sensitive Forms lookup 18 subtable" questiondown.alt
Substitution2: "'smcp' Lowercase to Small Capitals lookup 1 subtable" questiondown.smcp
EndChar

StartChar: Agrave
Encoding: 192 192 129
Width: 643
GlyphClass: 2
Flags: W
LayerCount: 2
Fore
SplineSet
343 930 m 1,0,-1
 369 930 l 1,1,-1
 469 797 l 1,2,-1
 455 797 l 1,3,-1
 343 930 l 1,0,-1
45 0 m 1,4,-1
 435 732 l 1,5,-1
 469 732 l 1,6,-1
 615 0 l 1,7,-1
 591 0 l 1,8,-1
 540 253 l 1,9,-1
 207 253 l 1,10,-1
 73 0 l 1,11,-1
 45 0 l 1,4,-1
220 277 m 1,12,-1
 535 277 l 1,13,-1
 449 709 l 1,14,-1
 220 277 l 1,12,-1
EndSplineSet
Substitution2: "'c2sc' Capitals to Small Capitals in Latin lookup 2 subtable" agrave.smcp
EndChar

StartChar: Aacute
Encoding: 193 193 130
Width: 643
GlyphClass: 2
Flags: W
LayerCount: 2
Fore
SplineSet
455 797 m 1,0,-1
 597 930 l 1,1,-1
 623 930 l 1,2,-1
 469 797 l 1,3,-1
 455 797 l 1,0,-1
45 0 m 1,4,-1
 435 732 l 1,5,-1
 469 732 l 1,6,-1
 615 0 l 1,7,-1
 591 0 l 1,8,-1
 540 253 l 1,9,-1
 207 253 l 1,10,-1
 73 0 l 1,11,-1
 45 0 l 1,4,-1
220 277 m 1,12,-1
 535 277 l 1,13,-1
 449 709 l 1,14,-1
 220 277 l 1,12,-1
EndSplineSet
Substitution2: "'c2sc' Capitals to Small Capitals in Latin lookup 2 subtable" aacute.smcp
EndChar

StartChar: Acircumflex
Encoding: 194 194 131
Width: 643
GlyphClass: 2
Flags: W
LayerCount: 2
Fore
SplineSet
326 797 m 1,0,-1
 479 927 l 1,1,-1
 500 927 l 1,2,-1
 598 797 l 1,3,-1
 581 797 l 1,4,-1
 487 912 l 1,5,-1
 344 797 l 1,6,-1
 326 797 l 1,0,-1
45 0 m 1,7,-1
 435 732 l 1,8,-1
 469 732 l 1,9,-1
 615 0 l 1,10,-1
 591 0 l 1,11,-1
 540 253 l 1,12,-1
 207 253 l 1,13,-1
 73 0 l 1,14,-1
 45 0 l 1,7,-1
220 277 m 1,15,-1
 535 277 l 1,16,-1
 449 709 l 1,17,-1
 220 277 l 1,15,-1
EndSplineSet
Substitution2: "'c2sc' Capitals to Small Capitals in Latin lookup 2 subtable" acircumflex.smcp
EndChar

StartChar: Atilde
Encoding: 195 195 132
Width: 643
GlyphClass: 2
Flags: W
LayerCount: 2
Fore
SplineSet
412 886 m 0,0,1
 430 886 430 886 452 868 c 128,-1,2
 474 850 474 850 495 831.5 c 128,-1,3
 516 813 516 813 526 813 c 128,-1,4
 536 813 536 813 542.5 814 c 128,-1,5
 549 815 549 815 556 817.5 c 128,-1,6
 563 820 563 820 568.5 822.5 c 128,-1,7
 574 825 574 825 581.5 829 c 128,-1,8
 589 833 589 833 594 836 c 128,-1,9
 599 839 599 839 606 844 c 128,-1,10
 613 849 613 849 616.5 851.5 c 128,-1,11
 620 854 620 854 627 859.5 c 128,-1,12
 634 865 634 865 636 866 c 1,13,-1
 641 859 l 1,14,15
 583 810 583 810 562 803.5 c 128,-1,16
 541 797 541 797 525 797 c 128,-1,17
 509 797 509 797 487 815.5 c 128,-1,18
 465 834 465 834 445 852 c 128,-1,19
 425 870 425 870 414 870 c 128,-1,20
 403 870 403 870 395.5 869 c 128,-1,21
 388 868 388 868 379.5 864.5 c 128,-1,22
 371 861 371 861 365.5 858.5 c 128,-1,23
 360 856 360 856 350 850 c 128,-1,24
 340 844 340 844 335 841.5 c 128,-1,25
 330 839 330 839 318.5 831 c 128,-1,26
 307 823 307 823 302 820 c 1,27,-1
 298 828 l 1,28,29
 374 886 374 886 412 886 c 0,0,1
45 0 m 1,30,-1
 435 732 l 1,31,-1
 469 732 l 1,32,-1
 615 0 l 1,33,-1
 591 0 l 1,34,-1
 540 253 l 1,35,-1
 207 253 l 1,36,-1
 73 0 l 1,37,-1
 45 0 l 1,30,-1
220 277 m 1,38,-1
 535 277 l 1,39,-1
 449 709 l 1,40,-1
 220 277 l 1,38,-1
EndSplineSet
Substitution2: "'c2sc' Capitals to Small Capitals in Latin lookup 2 subtable" atilde.smcp
EndChar

StartChar: Adieresis
Encoding: 196 196 133
Width: 643
GlyphClass: 2
Flags: W
LayerCount: 2
Fore
SplineSet
341 832 m 0,0,1
 349 832 349 832 353 827 c 128,-1,2
 357 822 357 822 355 815 c 0,3,4
 352 797 352 797 335 797 c 0,5,6
 328 797 328 797 323.5 802.5 c 128,-1,7
 319 808 319 808 320 815 c 0,8,9
 324 832 324 832 341 832 c 0,0,1
596 832 m 0,10,11
 604 832 604 832 608 827 c 128,-1,12
 612 822 612 822 610 815 c 0,13,14
 607 797 607 797 590 797 c 0,15,16
 583 797 583 797 578.5 802.5 c 128,-1,17
 574 808 574 808 575 815 c 0,18,19
 579 832 579 832 596 832 c 0,10,11
45 0 m 1,20,-1
 435 732 l 1,21,-1
 469 732 l 1,22,-1
 615 0 l 1,23,-1
 591 0 l 1,24,-1
 540 253 l 1,25,-1
 207 253 l 1,26,-1
 73 0 l 1,27,-1
 45 0 l 1,20,-1
220 277 m 1,28,-1
 535 277 l 1,29,-1
 449 709 l 1,30,-1
 220 277 l 1,28,-1
EndSplineSet
Substitution2: "'c2sc' Capitals to Small Capitals in Latin lookup 2 subtable" adieresis.smcp
EndChar

StartChar: Aring
Encoding: 197 197 134
Width: 643
GlyphClass: 2
Flags: W
LayerCount: 2
Fore
SplineSet
486.5 935 m 128,-1,1
 529 935 529 935 550.5 908.5 c 128,-1,2
 572 882 572 882 572 850 c 0,3,4
 572 797 572 797 534 763.5 c 128,-1,5
 496 730 496 730 453.5 730 c 128,-1,6
 411 730 411 730 388.5 756.5 c 128,-1,7
 366 783 366 783 366 815 c 0,8,9
 366 868 366 868 405 901.5 c 128,-1,0
 444 935 444 935 486.5 935 c 128,-1,1
381 817 m 0,10,11
 381 791 381 791 400.5 768 c 128,-1,12
 420 745 420 745 450 745 c 128,-1,13
 480 745 480 745 502 757 c 0,14,15
 558 787 558 787 558 847 c 0,16,17
 558 874 558 874 539 897 c 128,-1,18
 520 920 520 920 484 920 c 128,-1,19
 448 920 448 920 418 894 c 0,20,21
 381 862 381 862 381 817 c 0,10,11
45 0 m 1,22,-1
 435 732 l 1,23,-1
 469 732 l 1,24,-1
 615 0 l 1,25,-1
 591 0 l 1,26,-1
 540 253 l 1,27,-1
 207 253 l 1,28,-1
 73 0 l 1,29,-1
 45 0 l 1,22,-1
220 277 m 1,30,-1
 535 277 l 1,31,-1
 449 709 l 1,32,-1
 220 277 l 1,30,-1
EndSplineSet
Substitution2: "'c2sc' Capitals to Small Capitals in Latin lookup 2 subtable" aring.smcp
EndChar

StartChar: AE
Encoding: 198 198 135
Width: 896
GlyphClass: 2
Flags: W
LayerCount: 2
Fore
SplineSet
708 732 m 0,0,1
 714 732 714 732 720 732 c 2,2,-1
 985 722 l 1,3,-1
 983 708 l 1,4,-1
 716 708 l 2,5,6
 649 708 649 708 630 691 c 0,7,8
 622 683 622 683 617 679 c 128,-1,9
 612 675 612 675 608.5 661.5 c 128,-1,10
 605 648 605 648 603.5 642.5 c 128,-1,11
 602 637 602 637 599.5 618 c 128,-1,12
 597 599 597 599 596 592 c 2,13,-1
 561 375 l 1,14,-1
 890 370 l 1,15,-1
 887 356 l 1,16,-1
 558 351 l 1,17,-1
 521 123 l 2,18,19
 518 106 518 106 518 93 c 0,20,21
 518 56 518 56 541.5 38.5 c 128,-1,22
 565 21 565 21 617 21 c 2,23,-1
 874 21 l 1,24,-1
 872 7 l 1,25,-1
 622 -3 l 2,26,27
 616 -3 616 -3 603 -3 c 128,-1,28
 590 -3 590 -3 570 0 c 0,29,30
 495 14 495 14 495 90 c 0,31,32
 495 104 495 104 497 121 c 2,33,-1
 518 252 l 1,34,-1
 259 252 l 1,35,-1
 60 0 l 1,36,-1
 30 0 l 1,37,-1
 499 590 l 2,38,39
 564 672 564 672 588 692 c 0,40,41
 635 732 635 732 708 732 c 0,0,1
279 276 m 1,42,-1
 522 276 l 1,43,-1
 582 657 l 1,44,-1
 279 276 l 1,42,-1
EndSplineSet
EndChar

StartChar: Ccedilla
Encoding: 199 199 136
Width: 564
GlyphClass: 2
Flags: W
LayerCount: 2
Fore
SplineSet
290 716.5 m 128,-1,1
 342 740 342 740 422.5 740 c 128,-1,2
 503 740 503 740 629 716 c 1,3,-1
 627 702 l 1,4,5
 613 704 613 704 600.5 705 c 128,-1,6
 588 706 588 706 572 707.5 c 128,-1,7
 556 709 556 709 536.5 710.5 c 128,-1,8
 517 712 517 712 497 713 c 0,9,10
 437 716 437 716 415 716 c 0,11,12
 337 716 337 716 287 688 c 0,13,14
 183 628 183 628 141 366 c 0,15,16
 130 296 130 296 130 241 c 0,17,18
 130 18 130 18 306 18 c 0,19,20
 400 18 400 18 490 27 c 2,21,-1
 520 30 l 1,22,-1
 518 16 l 1,23,24
 396 -6 396 -6 301 -6 c 0,25,26
 105 -6 105 -6 105 240 c 0,27,28
 105 301 105 301 118.5 385 c 128,-1,29
 132 469 132 469 151 531 c 128,-1,30
 170 593 170 593 204 643 c 128,-1,0
 238 693 238 693 290 716.5 c 128,-1,1
225 -172 m 2,31,-1
 194 -172 l 1,32,-1
 195 -165 l 1,33,-1
 228 -160 l 2,34,35
 261 -155 261 -155 277 -148 c 128,-1,36
 293 -141 293 -141 308 -114.5 c 128,-1,37
 323 -88 323 -88 330 -36 c 1,38,-1
 347 -36 l 1,39,40
 335 -114 335 -114 310 -143 c 128,-1,41
 285 -172 285 -172 225 -172 c 2,31,-1
EndSplineSet
Substitution2: "'c2sc' Capitals to Small Capitals in Latin lookup 2 subtable" ccedilla.smcp
EndChar

StartChar: Egrave
Encoding: 200 200 137
Width: 561
GlyphClass: 2
Flags: W
LayerCount: 2
Fore
SplineSet
310 925 m 1,0,-1
 336 925 l 1,1,-1
 436 792 l 1,2,-1
 422 792 l 1,3,-1
 310 925 l 1,0,-1
313 732 m 0,4,5
 317 732 317 732 320 732 c 2,6,-1
 616 722 l 1,7,-1
 614 708 l 1,8,-1
 317 708 l 2,9,10
 215 708 215 708 198 602 c 2,11,-1
 162 375 l 1,12,-1
 520 370 l 1,13,-1
 518 356 l 1,14,-1
 158 351 l 1,15,-1
 122 123 l 2,16,17
 119 106 119 106 119 93 c 0,18,19
 119 56 119 56 142.5 38.5 c 128,-1,20
 166 21 166 21 218 21 c 2,21,-1
 505 21 l 1,22,-1
 503 7 l 1,23,-1
 214 -3 l 2,24,25
 210 -3 210 -3 206 -3 c 0,26,27
 95 -3 95 -3 95 91 c 0,28,29
 95 108 95 108 98 128 c 2,30,-1
 174 607 l 2,31,32
 185 675 185 675 224 703.5 c 128,-1,33
 263 732 263 732 313 732 c 0,4,5
EndSplineSet
Substitution2: "'c2sc' Capitals to Small Capitals in Latin lookup 2 subtable" egrave.smcp
EndChar

StartChar: Eacute
Encoding: 201 201 138
Width: 561
GlyphClass: 2
Flags: W
LayerCount: 2
Fore
SplineSet
408 792 m 1,0,-1
 550 925 l 1,1,-1
 576 925 l 1,2,-1
 422 792 l 1,3,-1
 408 792 l 1,0,-1
313 732 m 0,4,5
 317 732 317 732 320 732 c 2,6,-1
 616 722 l 1,7,-1
 614 708 l 1,8,-1
 317 708 l 2,9,10
 215 708 215 708 198 602 c 2,11,-1
 162 375 l 1,12,-1
 520 370 l 1,13,-1
 518 356 l 1,14,-1
 158 351 l 1,15,-1
 122 123 l 2,16,17
 119 106 119 106 119 93 c 0,18,19
 119 56 119 56 142.5 38.5 c 128,-1,20
 166 21 166 21 218 21 c 2,21,-1
 505 21 l 1,22,-1
 503 7 l 1,23,-1
 214 -3 l 2,24,25
 210 -3 210 -3 206 -3 c 0,26,27
 95 -3 95 -3 95 91 c 0,28,29
 95 108 95 108 98 128 c 2,30,-1
 174 607 l 2,31,32
 185 675 185 675 224 703.5 c 128,-1,33
 263 732 263 732 313 732 c 0,4,5
EndSplineSet
Substitution2: "'c2sc' Capitals to Small Capitals in Latin lookup 2 subtable" eacute.smcp
EndChar

StartChar: Ecircumflex
Encoding: 202 202 139
Width: 561
GlyphClass: 2
Flags: W
LayerCount: 2
Fore
SplineSet
294 792 m 1,0,-1
 447 922 l 1,1,-1
 468 922 l 1,2,-1
 566 792 l 1,3,-1
 549 792 l 1,4,-1
 455 907 l 1,5,-1
 312 792 l 1,6,-1
 294 792 l 1,0,-1
313 732 m 0,7,8
 317 732 317 732 320 732 c 2,9,-1
 616 722 l 1,10,-1
 614 708 l 1,11,-1
 317 708 l 2,12,13
 215 708 215 708 198 602 c 2,14,-1
 162 375 l 1,15,-1
 520 370 l 1,16,-1
 518 356 l 1,17,-1
 158 351 l 1,18,-1
 122 123 l 2,19,20
 119 106 119 106 119 93 c 0,21,22
 119 56 119 56 142.5 38.5 c 128,-1,23
 166 21 166 21 218 21 c 2,24,-1
 505 21 l 1,25,-1
 503 7 l 1,26,-1
 214 -3 l 2,27,28
 210 -3 210 -3 206 -3 c 0,29,30
 95 -3 95 -3 95 91 c 0,31,32
 95 108 95 108 98 128 c 2,33,-1
 174 607 l 2,34,35
 185 675 185 675 224 703.5 c 128,-1,36
 263 732 263 732 313 732 c 0,7,8
EndSplineSet
Substitution2: "'c2sc' Capitals to Small Capitals in Latin lookup 2 subtable" ecircumflex.smcp
EndChar

StartChar: Edieresis
Encoding: 203 203 140
Width: 561
GlyphClass: 2
Flags: W
LayerCount: 2
Fore
SplineSet
283 843 m 0,0,1
 286 860 286 860 303.5 860 c 128,-1,2
 321 860 321 860 318 843 c 0,3,4
 314 825 314 825 298 825 c 0,5,6
 290 825 290 825 286 830.5 c 128,-1,7
 282 836 282 836 283 843 c 0,0,1
538 843 m 0,8,9
 541 860 541 860 558.5 860 c 128,-1,10
 576 860 576 860 573 843 c 0,11,12
 569 825 569 825 553 825 c 0,13,14
 545 825 545 825 541 830.5 c 128,-1,15
 537 836 537 836 538 843 c 0,8,9
313 732 m 0,16,17
 317 732 317 732 320 732 c 2,18,-1
 616 722 l 1,19,-1
 614 708 l 1,20,-1
 317 708 l 2,21,22
 215 708 215 708 198 602 c 2,23,-1
 162 375 l 1,24,-1
 520 370 l 1,25,-1
 518 356 l 1,26,-1
 158 351 l 1,27,-1
 122 123 l 2,28,29
 119 106 119 106 119 93 c 0,30,31
 119 56 119 56 142.5 38.5 c 128,-1,32
 166 21 166 21 218 21 c 2,33,-1
 505 21 l 1,34,-1
 503 7 l 1,35,-1
 214 -3 l 2,36,37
 210 -3 210 -3 206 -3 c 0,38,39
 95 -3 95 -3 95 91 c 0,40,41
 95 108 95 108 98 128 c 2,42,-1
 174 607 l 2,43,44
 185 675 185 675 224 703.5 c 128,-1,45
 263 732 263 732 313 732 c 0,16,17
EndSplineSet
Substitution2: "'c2sc' Capitals to Small Capitals in Latin lookup 2 subtable" edieresis.smcp
EndChar

StartChar: Igrave
Encoding: 204 204 141
Width: 192
GlyphClass: 2
Flags: W
LayerCount: 2
Fore
SplineSet
109 930 m 1,0,-1
 135 930 l 1,1,-1
 235 797 l 1,2,-1
 221 797 l 1,3,-1
 109 930 l 1,0,-1
90 0 m 1,4,-1
 206 732 l 1,5,-1
 230 732 l 1,6,-1
 114 0 l 1,7,-1
 90 0 l 1,4,-1
EndSplineSet
Substitution2: "'c2sc' Capitals to Small Capitals in Latin lookup 2 subtable" igrave.smcp
EndChar

StartChar: Iacute
Encoding: 205 205 142
Width: 192
GlyphClass: 2
Flags: W
LayerCount: 2
Fore
SplineSet
221 797 m 1,0,-1
 363 930 l 1,1,-1
 389 930 l 1,2,-1
 235 797 l 1,3,-1
 221 797 l 1,0,-1
90 0 m 1,4,-1
 206 732 l 1,5,-1
 230 732 l 1,6,-1
 114 0 l 1,7,-1
 90 0 l 1,4,-1
EndSplineSet
Substitution2: "'c2sc' Capitals to Small Capitals in Latin lookup 2 subtable" iacute.smcp
EndChar

StartChar: Icircumflex
Encoding: 206 206 143
Width: 192
GlyphClass: 2
Flags: W
LayerCount: 2
Fore
SplineSet
92 797 m 1,0,-1
 245 927 l 1,1,-1
 266 927 l 1,2,-1
 364 797 l 1,3,-1
 347 797 l 1,4,-1
 253 912 l 1,5,-1
 110 797 l 1,6,-1
 92 797 l 1,0,-1
90 0 m 1,7,-1
 206 732 l 1,8,-1
 230 732 l 1,9,-1
 114 0 l 1,10,-1
 90 0 l 1,7,-1
EndSplineSet
Substitution2: "'c2sc' Capitals to Small Capitals in Latin lookup 2 subtable" icircumflex.smcp
EndChar

StartChar: Idieresis
Encoding: 207 207 144
Width: 192
GlyphClass: 2
Flags: W
LayerCount: 2
Fore
SplineSet
107 832 m 0,0,1
 115 832 115 832 119 827 c 128,-1,2
 123 822 123 822 121 815 c 0,3,4
 118 797 118 797 101 797 c 0,5,6
 94 797 94 797 90 801.5 c 128,-1,7
 86 806 86 806 86 811 c 0,8,9
 86 832 86 832 107 832 c 0,0,1
341 815 m 0,10,11
 345 832 345 832 361 832 c 128,-1,12
 377 832 377 832 377 819 c 0,13,14
 377 797 377 797 356 797 c 0,15,16
 349 797 349 797 344.5 802.5 c 128,-1,17
 340 808 340 808 341 815 c 0,10,11
90 0 m 1,18,-1
 206 732 l 1,19,-1
 230 732 l 1,20,-1
 114 0 l 1,21,-1
 90 0 l 1,18,-1
EndSplineSet
Substitution2: "'c2sc' Capitals to Small Capitals in Latin lookup 2 subtable" idieresis.smcp
EndChar

StartChar: Eth
Encoding: 208 208 145
Width: 686
GlyphClass: 2
Flags: W
LayerCount: 2
Fore
SplineSet
447 732 m 2,0,1
 512 732 512 732 557 706.5 c 128,-1,2
 602 681 602 681 624 642 c 0,3,4
 661 578 661 578 661 474 c 0,5,6
 661 422 661 422 648 350.5 c 128,-1,7
 635 279 635 279 611 217.5 c 128,-1,8
 587 156 587 156 550 106 c 0,9,10
 472 0 472 0 338 0 c 2,11,-1
 79 0 l 1,12,-1
 137 366 l 1,13,-1
 72 366 l 1,14,-1
 74 380 l 1,15,-1
 139 380 l 1,16,-1
 195 732 l 1,17,-1
 447 732 l 2,0,1
338 24 m 2,18,19
 403 24 403 24 455.5 55.5 c 128,-1,20
 508 87 508 87 541 140 c 0,21,22
 605 241 605 241 625 364 c 0,23,24
 636 430 636 430 636 482 c 0,25,26
 636 570 636 570 606 623 c 0,27,28
 558 708 558 708 442 708 c 2,29,-1
 215 708 l 1,30,-1
 163 380 l 1,31,-1
 322 380 l 1,32,-1
 320 366 l 1,33,-1
 161 366 l 1,34,-1
 107 24 l 1,35,-1
 338 24 l 2,18,19
EndSplineSet
Substitution2: "'c2sc' Capitals to Small Capitals in Latin lookup 2 subtable" eth.smcp
EndChar

StartChar: Ntilde
Encoding: 209 209 146
Width: 642
GlyphClass: 2
Flags: W
LayerCount: 2
Fore
SplineSet
401 886 m 0,0,1
 418 886 418 886 440.5 868 c 128,-1,2
 463 850 463 850 484 831.5 c 128,-1,3
 505 813 505 813 514.5 813 c 128,-1,4
 524 813 524 813 530.5 814 c 128,-1,5
 537 815 537 815 544 817.5 c 128,-1,6
 551 820 551 820 557 822.5 c 128,-1,7
 563 825 563 825 570 829 c 128,-1,8
 577 833 577 833 582 836 c 128,-1,9
 587 839 587 839 594.5 844 c 128,-1,10
 602 849 602 849 605.5 851.5 c 128,-1,11
 609 854 609 854 616 859.5 c 128,-1,12
 623 865 623 865 625 866 c 1,13,-1
 630 859 l 1,14,15
 572 810 572 810 551 803.5 c 128,-1,16
 530 797 530 797 515.5 797 c 128,-1,17
 501 797 501 797 484 808.5 c 128,-1,18
 467 820 467 820 454 834 c 0,19,20
 419 870 419 870 400 870 c 0,21,22
 366 870 366 870 307 831 c 0,23,24
 295 823 295 823 291 820 c 1,25,-1
 287 828 l 1,26,27
 362 886 362 886 401 886 c 0,0,1
80 0 m 1,28,-1
 196 732 l 1,29,-1
 221 732 l 1,30,-1
 551 43 l 1,31,-1
 661 732 l 1,32,-1
 685 732 l 1,33,-1
 569 0 l 1,34,-1
 545 0 l 1,35,-1
 214 690 l 1,36,-1
 104 0 l 1,37,-1
 80 0 l 1,28,-1
EndSplineSet
AlternateSubs2: "'salt' Stylistic Alternatives in Latin lookup 16 subtable" Ntilde.salt
Substitution2: "'c2sc' Capitals to Small Capitals in Latin lookup 2 subtable" ntilde.smcp
EndChar

StartChar: Ograve
Encoding: 210 210 147
Width: 684
GlyphClass: 2
Flags: W
LayerCount: 2
Fore
SplineSet
338 930 m 1,0,-1
 364 930 l 1,1,-1
 464 797 l 1,2,-1
 450 797 l 1,3,-1
 338 930 l 1,0,-1
351 731.5 m 128,-1,5
 388 737 388 737 441.5 737 c 128,-1,6
 495 737 495 737 527 732.5 c 128,-1,7
 559 728 559 728 589.5 714 c 128,-1,8
 620 700 620 700 636 674 c 0,9,10
 670 619 670 619 670 526 c 0,11,12
 670 459 670 459 654.5 358.5 c 128,-1,13
 639 258 639 258 617 192.5 c 128,-1,14
 595 127 595 127 569 88.5 c 128,-1,15
 543 50 543 50 503.5 29 c 128,-1,16
 464 8 464 8 425 2 c 128,-1,17
 386 -4 386 -4 326 -4 c 128,-1,18
 266 -4 266 -4 229.5 2.5 c 128,-1,19
 193 9 193 9 160.5 31 c 128,-1,20
 128 53 128 53 115 94.5 c 128,-1,21
 102 136 102 136 102 204 c 128,-1,22
 102 272 102 272 118 370.5 c 128,-1,23
 134 469 134 469 157.5 538 c 128,-1,24
 181 607 181 607 207 646 c 128,-1,25
 233 685 233 685 273.5 705.5 c 128,-1,4
 314 726 314 726 351 731.5 c 128,-1,5
164 472.5 m 128,-1,27
 152 423 152 423 140 347 c 128,-1,28
 128 271 128 271 127.5 238.5 c 128,-1,29
 127 206 127 206 127 177 c 128,-1,30
 127 148 127 148 137 111 c 128,-1,31
 147 74 147 74 175 54 c 128,-1,32
 203 34 203 34 238.5 27 c 128,-1,33
 274 20 274 20 330.5 20 c 128,-1,34
 387 20 387 20 424.5 27 c 128,-1,35
 462 34 462 34 496.5 54.5 c 128,-1,36
 531 75 531 75 554 113 c 0,37,38
 603 192 603 192 630 361 c 0,39,40
 645 454 645 454 645 519.5 c 128,-1,41
 645 585 645 585 633 624 c 128,-1,42
 621 663 621 663 591 682.5 c 128,-1,43
 561 702 561 702 528.5 707.5 c 128,-1,44
 496 713 496 713 452.5 713 c 128,-1,45
 409 713 409 713 388 711.5 c 128,-1,46
 367 710 367 710 340.5 705.5 c 128,-1,47
 314 701 314 701 296 690.5 c 128,-1,48
 278 680 278 680 257 663.5 c 128,-1,49
 236 647 236 647 221 620.5 c 128,-1,50
 206 594 206 594 191 558 c 128,-1,26
 176 522 176 522 164 472.5 c 128,-1,27
EndSplineSet
Substitution2: "'c2sc' Capitals to Small Capitals in Latin lookup 2 subtable" ograve.smcp
EndChar

StartChar: Oacute
Encoding: 211 211 148
Width: 684
GlyphClass: 2
Flags: W
LayerCount: 2
Fore
SplineSet
450 797 m 1,0,-1
 592 930 l 1,1,-1
 618 930 l 1,2,-1
 464 797 l 1,3,-1
 450 797 l 1,0,-1
351 731.5 m 128,-1,5
 388 737 388 737 441.5 737 c 128,-1,6
 495 737 495 737 527 732.5 c 128,-1,7
 559 728 559 728 589.5 714 c 128,-1,8
 620 700 620 700 636 674 c 0,9,10
 670 619 670 619 670 526 c 0,11,12
 670 459 670 459 654.5 358.5 c 128,-1,13
 639 258 639 258 617 192.5 c 128,-1,14
 595 127 595 127 569 88.5 c 128,-1,15
 543 50 543 50 503.5 29 c 128,-1,16
 464 8 464 8 425 2 c 128,-1,17
 386 -4 386 -4 326 -4 c 128,-1,18
 266 -4 266 -4 229.5 2.5 c 128,-1,19
 193 9 193 9 160.5 31 c 128,-1,20
 128 53 128 53 115 94.5 c 128,-1,21
 102 136 102 136 102 204 c 128,-1,22
 102 272 102 272 118 370.5 c 128,-1,23
 134 469 134 469 157.5 538 c 128,-1,24
 181 607 181 607 207 646 c 128,-1,25
 233 685 233 685 273.5 705.5 c 128,-1,4
 314 726 314 726 351 731.5 c 128,-1,5
164 472.5 m 128,-1,27
 152 423 152 423 140 347 c 128,-1,28
 128 271 128 271 127.5 238.5 c 128,-1,29
 127 206 127 206 127 177 c 128,-1,30
 127 148 127 148 137 111 c 128,-1,31
 147 74 147 74 175 54 c 128,-1,32
 203 34 203 34 238.5 27 c 128,-1,33
 274 20 274 20 330.5 20 c 128,-1,34
 387 20 387 20 424.5 27 c 128,-1,35
 462 34 462 34 496.5 54.5 c 128,-1,36
 531 75 531 75 554 113 c 0,37,38
 603 192 603 192 630 361 c 0,39,40
 645 454 645 454 645 519.5 c 128,-1,41
 645 585 645 585 633 624 c 128,-1,42
 621 663 621 663 591 682.5 c 128,-1,43
 561 702 561 702 528.5 707.5 c 128,-1,44
 496 713 496 713 452.5 713 c 128,-1,45
 409 713 409 713 388 711.5 c 128,-1,46
 367 710 367 710 340.5 705.5 c 128,-1,47
 314 701 314 701 296 690.5 c 128,-1,48
 278 680 278 680 257 663.5 c 128,-1,49
 236 647 236 647 221 620.5 c 128,-1,50
 206 594 206 594 191 558 c 128,-1,26
 176 522 176 522 164 472.5 c 128,-1,27
EndSplineSet
Substitution2: "'c2sc' Capitals to Small Capitals in Latin lookup 2 subtable" oacute.smcp
EndChar

StartChar: Ocircumflex
Encoding: 212 212 149
Width: 684
GlyphClass: 2
Flags: W
LayerCount: 2
Fore
SplineSet
321 797 m 1,0,-1
 474 927 l 1,1,-1
 495 927 l 1,2,-1
 593 797 l 1,3,-1
 576 797 l 1,4,-1
 482 912 l 1,5,-1
 339 797 l 1,6,-1
 321 797 l 1,0,-1
351 731.5 m 128,-1,8
 388 737 388 737 441.5 737 c 128,-1,9
 495 737 495 737 527 732.5 c 128,-1,10
 559 728 559 728 589.5 714 c 128,-1,11
 620 700 620 700 636 674 c 0,12,13
 670 619 670 619 670 526 c 0,14,15
 670 459 670 459 654.5 358.5 c 128,-1,16
 639 258 639 258 617 192.5 c 128,-1,17
 595 127 595 127 569 88.5 c 128,-1,18
 543 50 543 50 503.5 29 c 128,-1,19
 464 8 464 8 425 2 c 128,-1,20
 386 -4 386 -4 326 -4 c 128,-1,21
 266 -4 266 -4 229.5 2.5 c 128,-1,22
 193 9 193 9 160.5 31 c 128,-1,23
 128 53 128 53 115 94.5 c 128,-1,24
 102 136 102 136 102 204 c 128,-1,25
 102 272 102 272 118 370.5 c 128,-1,26
 134 469 134 469 157.5 538 c 128,-1,27
 181 607 181 607 207 646 c 128,-1,28
 233 685 233 685 273.5 705.5 c 128,-1,7
 314 726 314 726 351 731.5 c 128,-1,8
164 472.5 m 128,-1,30
 152 423 152 423 140 347 c 128,-1,31
 128 271 128 271 127.5 238.5 c 128,-1,32
 127 206 127 206 127 177 c 128,-1,33
 127 148 127 148 137 111 c 128,-1,34
 147 74 147 74 175 54 c 128,-1,35
 203 34 203 34 238.5 27 c 128,-1,36
 274 20 274 20 330.5 20 c 128,-1,37
 387 20 387 20 424.5 27 c 128,-1,38
 462 34 462 34 496.5 54.5 c 128,-1,39
 531 75 531 75 554 113 c 0,40,41
 603 192 603 192 630 361 c 0,42,43
 645 454 645 454 645 519.5 c 128,-1,44
 645 585 645 585 633 624 c 128,-1,45
 621 663 621 663 591 682.5 c 128,-1,46
 561 702 561 702 528.5 707.5 c 128,-1,47
 496 713 496 713 452.5 713 c 128,-1,48
 409 713 409 713 388 711.5 c 128,-1,49
 367 710 367 710 340.5 705.5 c 128,-1,50
 314 701 314 701 296 690.5 c 128,-1,51
 278 680 278 680 257 663.5 c 128,-1,52
 236 647 236 647 221 620.5 c 128,-1,53
 206 594 206 594 191 558 c 128,-1,29
 176 522 176 522 164 472.5 c 128,-1,30
EndSplineSet
Substitution2: "'c2sc' Capitals to Small Capitals in Latin lookup 2 subtable" ocircumflex.smcp
EndChar

StartChar: Otilde
Encoding: 213 213 150
Width: 684
GlyphClass: 2
Flags: W
LayerCount: 2
Fore
SplineSet
409 886 m 128,-1,1
 424 886 424 886 446.5 868 c 128,-1,2
 469 850 469 850 489.5 831.5 c 128,-1,3
 510 813 510 813 519.5 813 c 128,-1,4
 529 813 529 813 535.5 814 c 128,-1,5
 542 815 542 815 547.5 816.5 c 128,-1,6
 553 818 553 818 559 821 c 128,-1,7
 565 824 565 824 570.5 826.5 c 128,-1,8
 576 829 576 829 582 832.5 c 128,-1,9
 588 836 588 836 592.5 839 c 128,-1,10
 597 842 597 842 603.5 846.5 c 128,-1,11
 610 851 610 851 613 853.5 c 128,-1,12
 616 856 616 856 622 860 c 128,-1,13
 628 864 628 864 631 866 c 1,14,-1
 636 859 l 1,15,16
 577 810 577 810 556.5 803.5 c 128,-1,17
 536 797 536 797 521 797 c 128,-1,18
 506 797 506 797 489.5 808.5 c 128,-1,19
 473 820 473 820 460 834 c 0,20,21
 425 870 425 870 406 870 c 0,22,23
 372 870 372 870 313 831 c 0,24,25
 301 823 301 823 297 820 c 1,26,-1
 293 828 l 1,27,28
 351 873 351 873 372.5 879.5 c 128,-1,0
 394 886 394 886 409 886 c 128,-1,1
351 731.5 m 128,-1,30
 388 737 388 737 441.5 737 c 128,-1,31
 495 737 495 737 527 732.5 c 128,-1,32
 559 728 559 728 589.5 714 c 128,-1,33
 620 700 620 700 636 674 c 0,34,35
 670 619 670 619 670 526 c 0,36,37
 670 459 670 459 654.5 358.5 c 128,-1,38
 639 258 639 258 617 192.5 c 128,-1,39
 595 127 595 127 569 88.5 c 128,-1,40
 543 50 543 50 503.5 29 c 128,-1,41
 464 8 464 8 425 2 c 128,-1,42
 386 -4 386 -4 326 -4 c 128,-1,43
 266 -4 266 -4 229.5 2.5 c 128,-1,44
 193 9 193 9 160.5 31 c 128,-1,45
 128 53 128 53 115 94.5 c 128,-1,46
 102 136 102 136 102 204 c 128,-1,47
 102 272 102 272 118 370.5 c 128,-1,48
 134 469 134 469 157.5 538 c 128,-1,49
 181 607 181 607 207 646 c 128,-1,50
 233 685 233 685 273.5 705.5 c 128,-1,29
 314 726 314 726 351 731.5 c 128,-1,30
164 472.5 m 128,-1,52
 152 423 152 423 140 347 c 128,-1,53
 128 271 128 271 127.5 238.5 c 128,-1,54
 127 206 127 206 127 177 c 128,-1,55
 127 148 127 148 137 111 c 128,-1,56
 147 74 147 74 175 54 c 128,-1,57
 203 34 203 34 238.5 27 c 128,-1,58
 274 20 274 20 330.5 20 c 128,-1,59
 387 20 387 20 424.5 27 c 128,-1,60
 462 34 462 34 496.5 54.5 c 128,-1,61
 531 75 531 75 554 113 c 0,62,63
 603 192 603 192 630 361 c 0,64,65
 645 454 645 454 645 519.5 c 128,-1,66
 645 585 645 585 633 624 c 128,-1,67
 621 663 621 663 591 682.5 c 128,-1,68
 561 702 561 702 528.5 707.5 c 128,-1,69
 496 713 496 713 452.5 713 c 128,-1,70
 409 713 409 713 388 711.5 c 128,-1,71
 367 710 367 710 340.5 705.5 c 128,-1,72
 314 701 314 701 296 690.5 c 128,-1,73
 278 680 278 680 257 663.5 c 128,-1,74
 236 647 236 647 221 620.5 c 128,-1,75
 206 594 206 594 191 558 c 128,-1,51
 176 522 176 522 164 472.5 c 128,-1,52
EndSplineSet
Substitution2: "'c2sc' Capitals to Small Capitals in Latin lookup 2 subtable" otilde.smcp
EndChar

StartChar: Odieresis
Encoding: 214 214 151
Width: 684
GlyphClass: 2
Flags: W
LayerCount: 2
Fore
SplineSet
336 832 m 0,0,1
 343 832 343 832 347 827 c 128,-1,2
 351 822 351 822 350 815 c 0,3,4
 346 797 346 797 330 797 c 0,5,6
 322 797 322 797 317.5 802.5 c 128,-1,7
 313 808 313 808 315 815 c 0,8,9
 318 832 318 832 336 832 c 0,0,1
591 832 m 0,10,11
 598 832 598 832 602 827 c 128,-1,12
 606 822 606 822 605 815 c 0,13,14
 601 797 601 797 585 797 c 0,15,16
 577 797 577 797 572.5 802.5 c 128,-1,17
 568 808 568 808 570 815 c 0,18,19
 573 832 573 832 591 832 c 0,10,11
351 731.5 m 128,-1,21
 388 737 388 737 441.5 737 c 128,-1,22
 495 737 495 737 527 732.5 c 128,-1,23
 559 728 559 728 589.5 714 c 128,-1,24
 620 700 620 700 636 674 c 0,25,26
 670 619 670 619 670 526 c 0,27,28
 670 459 670 459 654.5 358.5 c 128,-1,29
 639 258 639 258 617 192.5 c 128,-1,30
 595 127 595 127 569 88.5 c 128,-1,31
 543 50 543 50 503.5 29 c 128,-1,32
 464 8 464 8 425 2 c 128,-1,33
 386 -4 386 -4 326 -4 c 128,-1,34
 266 -4 266 -4 229.5 2.5 c 128,-1,35
 193 9 193 9 160.5 31 c 128,-1,36
 128 53 128 53 115 94.5 c 128,-1,37
 102 136 102 136 102 204 c 128,-1,38
 102 272 102 272 118 370.5 c 128,-1,39
 134 469 134 469 157.5 538 c 128,-1,40
 181 607 181 607 207 646 c 128,-1,41
 233 685 233 685 273.5 705.5 c 128,-1,20
 314 726 314 726 351 731.5 c 128,-1,21
164 472.5 m 128,-1,43
 152 423 152 423 140 347 c 128,-1,44
 128 271 128 271 127.5 238.5 c 128,-1,45
 127 206 127 206 127 177 c 128,-1,46
 127 148 127 148 137 111 c 128,-1,47
 147 74 147 74 175 54 c 128,-1,48
 203 34 203 34 238.5 27 c 128,-1,49
 274 20 274 20 330.5 20 c 128,-1,50
 387 20 387 20 424.5 27 c 128,-1,51
 462 34 462 34 496.5 54.5 c 128,-1,52
 531 75 531 75 554 113 c 0,53,54
 603 192 603 192 630 361 c 0,55,56
 645 454 645 454 645 519.5 c 128,-1,57
 645 585 645 585 633 624 c 128,-1,58
 621 663 621 663 591 682.5 c 128,-1,59
 561 702 561 702 528.5 707.5 c 128,-1,60
 496 713 496 713 452.5 713 c 128,-1,61
 409 713 409 713 388 711.5 c 128,-1,62
 367 710 367 710 340.5 705.5 c 128,-1,63
 314 701 314 701 296 690.5 c 128,-1,64
 278 680 278 680 257 663.5 c 128,-1,65
 236 647 236 647 221 620.5 c 128,-1,66
 206 594 206 594 191 558 c 128,-1,42
 176 522 176 522 164 472.5 c 128,-1,43
EndSplineSet
Substitution2: "'c2sc' Capitals to Small Capitals in Latin lookup 2 subtable" odieresis.smcp
EndChar

StartChar: multiply
Encoding: 215 215 152
Width: 443
GlyphClass: 2
Flags: W
LayerCount: 2
Fore
SplineSet
93 228 m 1,0,-1
 241 356 l 1,1,-1
 134 484 l 1,2,-1
 151 499 l 1,3,-1
 259 371 l 1,4,-1
 409 501 l 1,5,-1
 423 484 l 1,6,-1
 273 354 l 1,7,-1
 381 226 l 1,8,-1
 363 211 l 1,9,-1
 256 339 l 1,10,-1
 107 211 l 1,11,-1
 93 228 l 1,0,-1
EndSplineSet
EndChar

StartChar: Oslash
Encoding: 216 216 153
Width: 684
GlyphClass: 2
Flags: W
LayerCount: 2
Fore
SplineSet
132 59 m 1,0,1
 103 103 103 103 103 186 c 128,-1,2
 103 269 103 269 116 353 c 128,-1,3
 129 437 129 437 144 492.5 c 128,-1,4
 159 548 159 548 175.5 588 c 128,-1,5
 192 628 192 628 214.5 655 c 128,-1,6
 237 682 237 682 259 698 c 128,-1,7
 281 714 281 714 312 723 c 0,8,9
 361 737 361 737 437.5 737 c 128,-1,10
 514 737 514 737 560 726 c 128,-1,11
 606 715 606 715 632 682 c 1,12,-1
 672 732 l 1,13,-1
 690 732 l 1,14,-1
 640 670 l 1,15,16
 670 622 670 622 670 537 c 128,-1,17
 670 452 670 452 654.5 355 c 128,-1,18
 639 258 639 258 617 192.5 c 128,-1,19
 595 127 595 127 569 88.5 c 128,-1,20
 543 50 543 50 503.5 29 c 128,-1,21
 464 8 464 8 425 2 c 128,-1,22
 386 -4 386 -4 319.5 -4 c 128,-1,23
 253 -4 253 -4 210 6 c 128,-1,24
 167 16 167 16 141 47 c 1,25,-1
 103 0 l 1,26,-1
 85 0 l 1,27,-1
 132 59 l 1,0,1
164 472.5 m 128,-1,29
 152 423 152 423 139.5 345 c 128,-1,30
 127 267 127 267 127 193 c 128,-1,31
 127 119 127 119 150 80 c 1,32,-1
 615 662 l 1,33,34
 592 694 592 694 551.5 703.5 c 128,-1,35
 511 713 511 713 460 713 c 128,-1,36
 409 713 409 713 388 711.5 c 128,-1,37
 367 710 367 710 340.5 705.5 c 128,-1,38
 314 701 314 701 296 690.5 c 128,-1,39
 278 680 278 680 257 663.5 c 128,-1,40
 236 647 236 647 221 620.5 c 128,-1,41
 206 594 206 594 191 558 c 128,-1,28
 176 522 176 522 164 472.5 c 128,-1,29
222.5 30 m 128,-1,43
 265 20 265 20 334.5 20 c 128,-1,44
 404 20 404 20 447.5 31.5 c 128,-1,45
 491 43 491 43 528.5 79 c 128,-1,46
 566 115 566 115 589 182.5 c 128,-1,47
 612 250 612 250 628.5 353.5 c 128,-1,48
 645 457 645 457 645 532 c 128,-1,49
 645 607 645 607 623 649 c 1,50,-1
 158 68 l 1,51,42
 180 40 180 40 222.5 30 c 128,-1,43
EndSplineSet
Substitution2: "'c2sc' Capitals to Small Capitals in Latin lookup 2 subtable" oslash.smcp
EndChar

StartChar: Ugrave
Encoding: 217 217 154
Width: 681
GlyphClass: 2
Flags: W
LayerCount: 2
Fore
SplineSet
341 930 m 1,0,-1
 367 930 l 1,1,-1
 467 797 l 1,2,-1
 453 797 l 1,3,-1
 341 930 l 1,0,-1
155 320 m 2,4,5
 142 240 142 240 142 212 c 128,-1,6
 142 184 142 184 143.5 164.5 c 128,-1,7
 145 145 145 145 148 123 c 128,-1,8
 151 101 151 101 160.5 85 c 128,-1,9
 170 69 170 69 178 57.5 c 128,-1,10
 186 46 186 46 202.5 39 c 128,-1,11
 219 32 219 32 230 27.5 c 128,-1,12
 241 23 241 23 263 22 c 0,13,14
 300 19 300 19 335 19 c 128,-1,15
 370 19 370 19 391.5 20.5 c 128,-1,16
 413 22 413 22 440 29 c 128,-1,17
 467 36 467 36 486 48 c 128,-1,18
 505 60 505 60 526 82 c 128,-1,19
 547 104 547 104 562 136 c 0,20,21
 598 210 598 210 614 320 c 1,22,-1
 679 732 l 1,23,-1
 703 732 l 1,24,-1
 638 320 l 1,25,26
 621 219 621 219 604 175.5 c 128,-1,27
 587 132 587 132 575 107.5 c 128,-1,28
 563 83 563 83 546.5 66 c 128,-1,29
 530 49 530 49 516.5 36.5 c 128,-1,30
 503 24 503 24 483 16.5 c 128,-1,31
 463 9 463 9 449.5 4.5 c 128,-1,32
 436 0 436 0 414 -2 c 0,33,34
 380 -5 380 -5 311 -5 c 128,-1,35
 242 -5 242 -5 205 10 c 0,36,37
 119 43 119 43 119 188 c 0,38,39
 119 244 119 244 131 320 c 2,40,-1
 196 732 l 1,41,-1
 220 732 l 1,42,-1
 155 320 l 2,4,5
EndSplineSet
Substitution2: "'c2sc' Capitals to Small Capitals in Latin lookup 2 subtable" ugrave.smcp
EndChar

StartChar: Uacute
Encoding: 218 218 155
Width: 681
GlyphClass: 2
Flags: W
LayerCount: 2
Fore
SplineSet
453 797 m 1,0,-1
 595 930 l 1,1,-1
 621 930 l 1,2,-1
 467 797 l 1,3,-1
 453 797 l 1,0,-1
155 320 m 2,4,5
 142 240 142 240 142 212 c 128,-1,6
 142 184 142 184 143.5 164.5 c 128,-1,7
 145 145 145 145 148 123 c 128,-1,8
 151 101 151 101 160.5 85 c 128,-1,9
 170 69 170 69 178 57.5 c 128,-1,10
 186 46 186 46 202.5 39 c 128,-1,11
 219 32 219 32 230 27.5 c 128,-1,12
 241 23 241 23 263 22 c 0,13,14
 300 19 300 19 335 19 c 128,-1,15
 370 19 370 19 391.5 20.5 c 128,-1,16
 413 22 413 22 440 29 c 128,-1,17
 467 36 467 36 486 48 c 128,-1,18
 505 60 505 60 526 82 c 128,-1,19
 547 104 547 104 562 136 c 0,20,21
 598 210 598 210 614 320 c 1,22,-1
 679 732 l 1,23,-1
 703 732 l 1,24,-1
 638 320 l 1,25,26
 621 219 621 219 604 175.5 c 128,-1,27
 587 132 587 132 575 107.5 c 128,-1,28
 563 83 563 83 546.5 66 c 128,-1,29
 530 49 530 49 516.5 36.5 c 128,-1,30
 503 24 503 24 483 16.5 c 128,-1,31
 463 9 463 9 449.5 4.5 c 128,-1,32
 436 0 436 0 414 -2 c 0,33,34
 380 -5 380 -5 311 -5 c 128,-1,35
 242 -5 242 -5 205 10 c 0,36,37
 119 43 119 43 119 188 c 0,38,39
 119 244 119 244 131 320 c 2,40,-1
 196 732 l 1,41,-1
 220 732 l 1,42,-1
 155 320 l 2,4,5
EndSplineSet
Substitution2: "'c2sc' Capitals to Small Capitals in Latin lookup 2 subtable" uacute.smcp
EndChar

StartChar: Ucircumflex
Encoding: 219 219 156
Width: 681
GlyphClass: 2
Flags: W
LayerCount: 2
Fore
SplineSet
324 797 m 1,0,-1
 477 927 l 1,1,-1
 498 927 l 1,2,-1
 596 797 l 1,3,-1
 579 797 l 1,4,-1
 485 912 l 1,5,-1
 342 797 l 1,6,-1
 324 797 l 1,0,-1
155 320 m 2,7,8
 142 240 142 240 142 212 c 128,-1,9
 142 184 142 184 143.5 164.5 c 128,-1,10
 145 145 145 145 148 123 c 128,-1,11
 151 101 151 101 160.5 85 c 128,-1,12
 170 69 170 69 178 57.5 c 128,-1,13
 186 46 186 46 202.5 39 c 128,-1,14
 219 32 219 32 230 27.5 c 128,-1,15
 241 23 241 23 263 22 c 0,16,17
 300 19 300 19 335 19 c 128,-1,18
 370 19 370 19 391.5 20.5 c 128,-1,19
 413 22 413 22 440 29 c 128,-1,20
 467 36 467 36 486 48 c 128,-1,21
 505 60 505 60 526 82 c 128,-1,22
 547 104 547 104 562 136 c 0,23,24
 598 210 598 210 614 320 c 1,25,-1
 679 732 l 1,26,-1
 703 732 l 1,27,-1
 638 320 l 1,28,29
 621 219 621 219 604 175.5 c 128,-1,30
 587 132 587 132 575 107.5 c 128,-1,31
 563 83 563 83 546.5 66 c 128,-1,32
 530 49 530 49 516.5 36.5 c 128,-1,33
 503 24 503 24 483 16.5 c 128,-1,34
 463 9 463 9 449.5 4.5 c 128,-1,35
 436 0 436 0 414 -2 c 0,36,37
 380 -5 380 -5 311 -5 c 128,-1,38
 242 -5 242 -5 205 10 c 0,39,40
 119 43 119 43 119 188 c 0,41,42
 119 244 119 244 131 320 c 2,43,-1
 196 732 l 1,44,-1
 220 732 l 1,45,-1
 155 320 l 2,7,8
EndSplineSet
Substitution2: "'c2sc' Capitals to Small Capitals in Latin lookup 2 subtable" ucircumflex.smcp
EndChar

StartChar: Udieresis
Encoding: 220 220 157
Width: 681
GlyphClass: 2
Flags: W
LayerCount: 2
Fore
SplineSet
339 832 m 0,0,1
 346 832 346 832 350 827 c 128,-1,2
 354 822 354 822 353 815 c 0,3,4
 349 797 349 797 333 797 c 0,5,6
 325 797 325 797 320.5 802.5 c 128,-1,7
 316 808 316 808 318 815 c 0,8,9
 321 832 321 832 339 832 c 0,0,1
594 832 m 0,10,11
 601 832 601 832 605 827 c 128,-1,12
 609 822 609 822 608 815 c 0,13,14
 604 797 604 797 588 797 c 0,15,16
 580 797 580 797 575.5 802.5 c 128,-1,17
 571 808 571 808 573 815 c 0,18,19
 576 832 576 832 594 832 c 0,10,11
155 320 m 2,20,21
 142 240 142 240 142 212 c 128,-1,22
 142 184 142 184 143.5 164.5 c 128,-1,23
 145 145 145 145 148 123 c 128,-1,24
 151 101 151 101 160.5 85 c 128,-1,25
 170 69 170 69 178 57.5 c 128,-1,26
 186 46 186 46 202.5 39 c 128,-1,27
 219 32 219 32 230 27.5 c 128,-1,28
 241 23 241 23 263 22 c 0,29,30
 300 19 300 19 335 19 c 128,-1,31
 370 19 370 19 391.5 20.5 c 128,-1,32
 413 22 413 22 440 29 c 128,-1,33
 467 36 467 36 486 48 c 128,-1,34
 505 60 505 60 526 82 c 128,-1,35
 547 104 547 104 562 136 c 0,36,37
 598 210 598 210 614 320 c 1,38,-1
 679 732 l 1,39,-1
 703 732 l 1,40,-1
 638 320 l 1,41,42
 621 219 621 219 604 175.5 c 128,-1,43
 587 132 587 132 575 107.5 c 128,-1,44
 563 83 563 83 546.5 66 c 128,-1,45
 530 49 530 49 516.5 36.5 c 128,-1,46
 503 24 503 24 483 16.5 c 128,-1,47
 463 9 463 9 449.5 4.5 c 128,-1,48
 436 0 436 0 414 -2 c 0,49,50
 380 -5 380 -5 311 -5 c 128,-1,51
 242 -5 242 -5 205 10 c 0,52,53
 119 43 119 43 119 188 c 0,54,55
 119 244 119 244 131 320 c 2,56,-1
 196 732 l 1,57,-1
 220 732 l 1,58,-1
 155 320 l 2,20,21
EndSplineSet
Substitution2: "'c2sc' Capitals to Small Capitals in Latin lookup 2 subtable" udieresis.smcp
EndChar

StartChar: Yacute
Encoding: 221 221 158
Width: 628
GlyphClass: 2
Flags: W
LayerCount: 2
Fore
SplineSet
418 797 m 1,0,-1
 560 930 l 1,1,-1
 586 930 l 1,2,-1
 432 797 l 1,3,-1
 418 797 l 1,0,-1
150 732 m 1,4,-1
 177 732 l 1,5,-1
 333 292 l 1,6,-1
 651 732 l 1,7,-1
 680 732 l 1,8,-1
 342 260 l 1,9,-1
 301 0 l 1,10,-1
 277 0 l 1,11,-1
 318 260 l 1,12,-1
 150 732 l 1,4,-1
EndSplineSet
Substitution2: "'c2sc' Capitals to Small Capitals in Latin lookup 2 subtable" yacute.smcp
EndChar

StartChar: Thorn
Encoding: 222 222 159
Width: 553
GlyphClass: 2
Flags: W
LayerCount: 2
Fore
SplineSet
60 0 m 1,0,1
 60 0 60 0 175 729 c 1,2,-1
 199 729 l 1,3,-1
 177 588 l 1,4,-1
 394 588 l 2,5,6
 446 588 446 588 486 563 c 0,7,8
 528 537 528 537 540 462 c 0,9,10
 543 447 543 447 543 425 c 128,-1,11
 543 403 543 403 535.5 357.5 c 128,-1,12
 528 312 528 312 509.5 269.5 c 128,-1,13
 491 227 491 227 470.5 204.5 c 128,-1,14
 450 182 450 182 422 169 c 0,15,16
 379 149 379 149 325 149 c 1,17,18
 147 153 147 153 109 159 c 1,19,-1
 84 0 l 1,20,-1
 60 0 l 1,0,1
328 173 m 2,21,22
 403 173 403 173 449 219 c 128,-1,23
 495 265 495 265 513 377 c 1,24,25
 519 406 519 406 519 426 c 128,-1,26
 519 446 519 446 514.5 469.5 c 128,-1,27
 510 493 510 493 500 513 c 128,-1,28
 490 533 490 533 470 544 c 0,29,30
 435 564 435 564 390 564 c 2,31,-1
 173 564 l 1,32,-1
 111 173 l 1,33,-1
 328 173 l 2,21,22
EndSplineSet
Substitution2: "'c2sc' Capitals to Small Capitals in Latin lookup 2 subtable" thorn.smcp
EndChar

StartChar: germandbls
Encoding: 223 223 160
Width: 548
GlyphClass: 2
Flags: W
LayerCount: 2
Fore
SplineSet
388 777 m 0,0,1
 579 777 579 777 579 657 c 0,2,3
 579 592 579 592 516 520 c 0,4,5
 489 490 489 490 463 473 c 128,-1,6
 437 456 437 456 404.5 436 c 128,-1,7
 372 416 372 416 358 407 c 0,8,9
 315 379 315 379 315 338 c 0,10,11
 315 292 315 292 396 281 c 0,12,13
 434 276 434 276 470.5 269.5 c 128,-1,14
 507 263 507 263 528 243 c 128,-1,15
 549 223 549 223 549 194 c 0,16,17
 549 186 549 186 548 178 c 2,18,-1
 541 129 l 2,19,20
 531 62 531 62 484 27 c 128,-1,21
 437 -8 437 -8 364 -8 c 0,22,23
 263 -8 263 -8 190 7 c 1,24,-1
 192 21 l 1,25,26
 284 16 284 16 344.5 16 c 128,-1,27
 405 16 405 16 435 27.5 c 128,-1,28
 465 39 465 39 482 58 c 0,29,30
 511 93 511 93 517 132 c 2,31,-1
 524 178 l 2,32,33
 525 185 525 185 525 191 c 0,34,35
 525 216 525 216 503.5 231.5 c 128,-1,36
 482 247 482 247 445 252 c 128,-1,37
 408 257 408 257 370.5 263 c 128,-1,38
 333 269 333 269 312.5 288 c 128,-1,39
 292 307 292 307 292 335 c 0,40,41
 292 355 292 355 300 374 c 128,-1,42
 308 393 308 393 317 401 c 128,-1,43
 326 409 326 409 332 414.5 c 128,-1,44
 338 420 338 420 353 430 c 128,-1,45
 368 440 368 440 378 446 c 0,46,47
 431 480 431 480 453.5 494 c 128,-1,48
 476 508 476 508 505 543 c 0,49,50
 557 606 557 606 557 661 c 0,51,52
 557 695 557 695 533 716 c 0,53,54
 492 753 492 753 396 753 c 128,-1,55
 300 753 300 753 244 704.5 c 128,-1,56
 188 656 188 656 174 566 c 2,57,-1
 84 0 l 1,58,-1
 60 0 l 1,59,-1
 150 566 l 2,60,61
 164 659 164 659 225.5 718 c 128,-1,62
 287 777 287 777 388 777 c 0,0,1
EndSplineSet
Substitution2: "'smcp' Lowercase to Small Capitals lookup 1 subtable" germandbls.smcp
EndChar

StartChar: agrave
Encoding: 224 224 161
Width: 545
GlyphClass: 2
Flags: W
LayerCount: 2
Fore
SplineSet
233 736 m 1,0,-1
 259 736 l 1,1,-1
 359 603 l 1,2,-1
 345 603 l 1,3,-1
 233 736 l 1,0,-1
259 532 m 128,-1,5
 280 537 280 537 303 540 c 128,-1,6
 326 543 326 543 355.5 543 c 128,-1,7
 385 543 385 543 442 528.5 c 128,-1,8
 499 514 499 514 536 479 c 1,9,-1
 466 0 l 1,10,-1
 452 0 l 1,11,-1
 453 60 l 1,12,13
 422 40 422 40 359.5 16.5 c 128,-1,14
 297 -7 297 -7 253 -7 c 128,-1,15
 209 -7 209 -7 182 0.5 c 128,-1,16
 155 8 155 8 130 26.5 c 128,-1,17
 105 45 105 45 94 77 c 0,18,19
 79 121 79 121 79 172 c 128,-1,20
 79 223 79 223 90.5 284 c 128,-1,21
 102 345 102 345 121 393 c 128,-1,22
 140 441 140 441 160.5 467 c 128,-1,23
 181 493 181 493 209.5 510 c 128,-1,4
 238 527 238 527 259 532 c 128,-1,5
103 175 m 0,24,25
 103 16 103 16 238 16 c 0,26,27
 276 16 276 16 301.5 22 c 128,-1,28
 327 28 327 28 336.5 29.5 c 128,-1,29
 346 31 346 31 368.5 40 c 128,-1,30
 391 49 391 49 395 50.5 c 128,-1,31
 399 52 399 52 425.5 63.5 c 128,-1,32
 452 75 452 75 453 75 c 2,33,-1
 511 476 l 1,34,35
 440 520 440 520 355 520 c 0,36,37
 232 520 232 520 176 446 c 0,38,39
 131 388 131 388 109 246 c 0,40,41
 103 207 103 207 103 175 c 0,24,25
EndSplineSet
AlternateSubs2: "'salt' Stylistic Alternatives in Latin lookup 16 subtable" agrave.salt
Substitution2: "'smcp' Lowercase to Small Capitals lookup 1 subtable" agrave.smcp
EndChar

StartChar: aacute
Encoding: 225 225 162
Width: 545
GlyphClass: 2
Flags: W
LayerCount: 2
Fore
SplineSet
345 603 m 1,0,-1
 487 736 l 1,1,-1
 513 736 l 1,2,-1
 359 603 l 1,3,-1
 345 603 l 1,0,-1
259 532 m 128,-1,5
 280 537 280 537 303 540 c 128,-1,6
 326 543 326 543 355.5 543 c 128,-1,7
 385 543 385 543 442 528.5 c 128,-1,8
 499 514 499 514 536 479 c 1,9,-1
 466 0 l 1,10,-1
 452 0 l 1,11,-1
 453 60 l 1,12,13
 422 40 422 40 359.5 16.5 c 128,-1,14
 297 -7 297 -7 253 -7 c 128,-1,15
 209 -7 209 -7 182 0.5 c 128,-1,16
 155 8 155 8 130 26.5 c 128,-1,17
 105 45 105 45 94 77 c 0,18,19
 79 121 79 121 79 172 c 128,-1,20
 79 223 79 223 90.5 284 c 128,-1,21
 102 345 102 345 121 393 c 128,-1,22
 140 441 140 441 160.5 467 c 128,-1,23
 181 493 181 493 209.5 510 c 128,-1,4
 238 527 238 527 259 532 c 128,-1,5
103 175 m 0,24,25
 103 16 103 16 238 16 c 0,26,27
 276 16 276 16 301.5 22 c 128,-1,28
 327 28 327 28 336.5 29.5 c 128,-1,29
 346 31 346 31 368.5 40 c 128,-1,30
 391 49 391 49 395 50.5 c 128,-1,31
 399 52 399 52 425.5 63.5 c 128,-1,32
 452 75 452 75 453 75 c 2,33,-1
 511 476 l 1,34,35
 440 520 440 520 355 520 c 0,36,37
 232 520 232 520 176 446 c 0,38,39
 131 388 131 388 109 246 c 0,40,41
 103 207 103 207 103 175 c 0,24,25
EndSplineSet
AlternateSubs2: "'salt' Stylistic Alternatives in Latin lookup 16 subtable" aacute.salt
Substitution2: "'smcp' Lowercase to Small Capitals lookup 1 subtable" aacute.smcp
EndChar

StartChar: acircumflex
Encoding: 226 226 163
Width: 545
GlyphClass: 2
Flags: W
LayerCount: 2
Fore
SplineSet
216 603 m 1,0,-1
 369 733 l 1,1,-1
 390 733 l 1,2,-1
 488 603 l 1,3,-1
 471 603 l 1,4,-1
 377 718 l 1,5,-1
 234 603 l 1,6,-1
 216 603 l 1,0,-1
259 532 m 128,-1,8
 280 537 280 537 303 540 c 128,-1,9
 326 543 326 543 355.5 543 c 128,-1,10
 385 543 385 543 442 528.5 c 128,-1,11
 499 514 499 514 536 479 c 1,12,-1
 466 0 l 1,13,-1
 452 0 l 1,14,-1
 453 60 l 1,15,16
 422 40 422 40 359.5 16.5 c 128,-1,17
 297 -7 297 -7 253 -7 c 128,-1,18
 209 -7 209 -7 182 0.5 c 128,-1,19
 155 8 155 8 130 26.5 c 128,-1,20
 105 45 105 45 94 77 c 0,21,22
 79 121 79 121 79 172 c 128,-1,23
 79 223 79 223 90.5 284 c 128,-1,24
 102 345 102 345 121 393 c 128,-1,25
 140 441 140 441 160.5 467 c 128,-1,26
 181 493 181 493 209.5 510 c 128,-1,7
 238 527 238 527 259 532 c 128,-1,8
103 175 m 0,27,28
 103 16 103 16 238 16 c 0,29,30
 276 16 276 16 301.5 22 c 128,-1,31
 327 28 327 28 336.5 29.5 c 128,-1,32
 346 31 346 31 368.5 40 c 128,-1,33
 391 49 391 49 395 50.5 c 128,-1,34
 399 52 399 52 425.5 63.5 c 128,-1,35
 452 75 452 75 453 75 c 2,36,-1
 511 476 l 1,37,38
 440 520 440 520 355 520 c 0,39,40
 232 520 232 520 176 446 c 0,41,42
 131 388 131 388 109 246 c 0,43,44
 103 207 103 207 103 175 c 0,27,28
EndSplineSet
AlternateSubs2: "'salt' Stylistic Alternatives in Latin lookup 16 subtable" acircumflex.salt
Substitution2: "'smcp' Lowercase to Small Capitals lookup 1 subtable" acircumflex.smcp
EndChar

StartChar: atilde
Encoding: 227 227 164
Width: 545
GlyphClass: 2
Flags: W
LayerCount: 2
Fore
SplineSet
304.5 692 m 128,-1,1
 320 692 320 692 342 673.5 c 128,-1,2
 364 655 364 655 385 637 c 128,-1,3
 406 619 406 619 416 619 c 128,-1,4
 426 619 426 619 432.5 620 c 128,-1,5
 439 621 439 621 446 623.5 c 128,-1,6
 453 626 453 626 458.5 628.5 c 128,-1,7
 464 631 464 631 471.5 635 c 128,-1,8
 479 639 479 639 483.5 642 c 128,-1,9
 488 645 488 645 495.5 650 c 128,-1,10
 503 655 503 655 506.5 657.5 c 128,-1,11
 510 660 510 660 517 665.5 c 128,-1,12
 524 671 524 671 526 672 c 1,13,-1
 531 665 l 1,14,15
 484 625 484 625 469 617 c 1,16,17
 438 603 438 603 420 603 c 128,-1,18
 402 603 402 603 385 614.5 c 128,-1,19
 368 626 368 626 355 639 c 0,20,21
 321 676 321 676 301 676 c 0,22,23
 268 676 268 676 209 637 c 0,24,25
 197 629 197 629 192 626 c 1,26,-1
 188 634 l 1,27,28
 247 679 247 679 268 685.5 c 128,-1,0
 289 692 289 692 304.5 692 c 128,-1,1
259 532 m 128,-1,30
 280 537 280 537 303 540 c 128,-1,31
 326 543 326 543 355.5 543 c 128,-1,32
 385 543 385 543 442 528.5 c 128,-1,33
 499 514 499 514 536 479 c 1,34,-1
 466 0 l 1,35,-1
 452 0 l 1,36,-1
 453 60 l 1,37,38
 422 40 422 40 359.5 16.5 c 128,-1,39
 297 -7 297 -7 253 -7 c 128,-1,40
 209 -7 209 -7 182 0.5 c 128,-1,41
 155 8 155 8 130 26.5 c 128,-1,42
 105 45 105 45 94 77 c 0,43,44
 79 121 79 121 79 172 c 128,-1,45
 79 223 79 223 90.5 284 c 128,-1,46
 102 345 102 345 121 393 c 128,-1,47
 140 441 140 441 160.5 467 c 128,-1,48
 181 493 181 493 209.5 510 c 128,-1,29
 238 527 238 527 259 532 c 128,-1,30
103 175 m 0,49,50
 103 16 103 16 238 16 c 0,51,52
 276 16 276 16 301.5 22 c 128,-1,53
 327 28 327 28 336.5 29.5 c 128,-1,54
 346 31 346 31 368.5 40 c 128,-1,55
 391 49 391 49 395 50.5 c 128,-1,56
 399 52 399 52 425.5 63.5 c 128,-1,57
 452 75 452 75 453 75 c 2,58,-1
 511 476 l 1,59,60
 440 520 440 520 355 520 c 0,61,62
 232 520 232 520 176 446 c 0,63,64
 131 388 131 388 109 246 c 0,65,66
 103 207 103 207 103 175 c 0,49,50
EndSplineSet
AlternateSubs2: "'salt' Stylistic Alternatives in Latin lookup 16 subtable" atilde.salt
Substitution2: "'smcp' Lowercase to Small Capitals lookup 1 subtable" atilde.smcp
EndChar

StartChar: adieresis
Encoding: 228 228 165
Width: 545
GlyphClass: 2
Flags: W
LayerCount: 2
Fore
SplineSet
231 638 m 0,0,1
 239 638 239 638 243 633 c 128,-1,2
 247 628 247 628 245 621 c 0,3,4
 242 603 242 603 225 603 c 0,5,6
 218 603 218 603 213.5 608.5 c 128,-1,7
 209 614 209 614 210 621 c 0,8,9
 214 638 214 638 231 638 c 0,0,1
486 638 m 0,10,11
 494 638 494 638 498 633 c 128,-1,12
 502 628 502 628 500 621 c 0,13,14
 497 603 497 603 480 603 c 0,15,16
 473 603 473 603 468.5 608.5 c 128,-1,17
 464 614 464 614 465 621 c 0,18,19
 469 638 469 638 486 638 c 0,10,11
259 532 m 128,-1,21
 280 537 280 537 303 540 c 128,-1,22
 326 543 326 543 355.5 543 c 128,-1,23
 385 543 385 543 442 528.5 c 128,-1,24
 499 514 499 514 536 479 c 1,25,-1
 466 0 l 1,26,-1
 452 0 l 1,27,-1
 453 60 l 1,28,29
 422 40 422 40 359.5 16.5 c 128,-1,30
 297 -7 297 -7 253 -7 c 128,-1,31
 209 -7 209 -7 182 0.5 c 128,-1,32
 155 8 155 8 130 26.5 c 128,-1,33
 105 45 105 45 94 77 c 0,34,35
 79 121 79 121 79 172 c 128,-1,36
 79 223 79 223 90.5 284 c 128,-1,37
 102 345 102 345 121 393 c 128,-1,38
 140 441 140 441 160.5 467 c 128,-1,39
 181 493 181 493 209.5 510 c 128,-1,20
 238 527 238 527 259 532 c 128,-1,21
103 175 m 0,40,41
 103 16 103 16 238 16 c 0,42,43
 276 16 276 16 301.5 22 c 128,-1,44
 327 28 327 28 336.5 29.5 c 128,-1,45
 346 31 346 31 368.5 40 c 128,-1,46
 391 49 391 49 395 50.5 c 128,-1,47
 399 52 399 52 425.5 63.5 c 128,-1,48
 452 75 452 75 453 75 c 2,49,-1
 511 476 l 1,50,51
 440 520 440 520 355 520 c 0,52,53
 232 520 232 520 176 446 c 0,54,55
 131 388 131 388 109 246 c 0,56,57
 103 207 103 207 103 175 c 0,40,41
EndSplineSet
AlternateSubs2: "'salt' Stylistic Alternatives in Latin lookup 16 subtable" adieresis.salt
Substitution2: "'smcp' Lowercase to Small Capitals lookup 1 subtable" adieresis.smcp
EndChar

StartChar: aring
Encoding: 229 229 166
Width: 545
GlyphClass: 2
Flags: W
LayerCount: 2
Fore
SplineSet
386 808 m 128,-1,1
 428 808 428 808 450 781 c 128,-1,2
 472 754 472 754 472 723 c 0,3,4
 472 685 472 685 451 657 c 0,5,6
 412 603 412 603 353 603 c 0,7,8
 311 603 311 603 288.5 629.5 c 128,-1,9
 266 656 266 656 266 688 c 0,10,11
 266 741 266 741 305 774.5 c 128,-1,0
 344 808 344 808 386 808 c 128,-1,1
281 690 m 0,12,13
 281 664 281 664 300.5 641 c 128,-1,14
 320 618 320 618 356 618 c 128,-1,15
 392 618 392 618 421 643 c 0,16,17
 457 675 457 675 457 720 c 0,18,19
 457 747 457 747 438 770 c 128,-1,20
 419 793 419 793 383 793 c 128,-1,21
 347 793 347 793 318 767 c 0,22,23
 281 735 281 735 281 690 c 0,12,13
259 532 m 128,-1,25
 280 537 280 537 303 540 c 128,-1,26
 326 543 326 543 355.5 543 c 128,-1,27
 385 543 385 543 442 528.5 c 128,-1,28
 499 514 499 514 536 479 c 1,29,-1
 466 0 l 1,30,-1
 452 0 l 1,31,-1
 453 60 l 1,32,33
 422 40 422 40 359.5 16.5 c 128,-1,34
 297 -7 297 -7 253 -7 c 128,-1,35
 209 -7 209 -7 182 0.5 c 128,-1,36
 155 8 155 8 130 26.5 c 128,-1,37
 105 45 105 45 94 77 c 0,38,39
 79 121 79 121 79 172 c 128,-1,40
 79 223 79 223 90.5 284 c 128,-1,41
 102 345 102 345 121 393 c 128,-1,42
 140 441 140 441 160.5 467 c 128,-1,43
 181 493 181 493 209.5 510 c 128,-1,24
 238 527 238 527 259 532 c 128,-1,25
103 175 m 0,44,45
 103 16 103 16 238 16 c 0,46,47
 276 16 276 16 301.5 22 c 128,-1,48
 327 28 327 28 336.5 29.5 c 128,-1,49
 346 31 346 31 368.5 40 c 128,-1,50
 391 49 391 49 395 50.5 c 128,-1,51
 399 52 399 52 425.5 63.5 c 128,-1,52
 452 75 452 75 453 75 c 2,53,-1
 511 476 l 1,54,55
 440 520 440 520 355 520 c 0,56,57
 232 520 232 520 176 446 c 0,58,59
 131 388 131 388 109 246 c 0,60,61
 103 207 103 207 103 175 c 0,44,45
EndSplineSet
AlternateSubs2: "'salt' Stylistic Alternatives in Latin lookup 16 subtable" aring.salt
Substitution2: "'smcp' Lowercase to Small Capitals lookup 1 subtable" aring.smcp
EndChar

StartChar: ae
Encoding: 230 230 167
Width: 963
GlyphClass: 2
Flags: W
LayerCount: 2
Fore
SplineSet
731.5 239 m 128,-1,1
 676 228 676 228 592 228 c 128,-1,2
 508 228 508 228 460 247 c 1,3,4
 454 198 454 198 454 168 c 128,-1,5
 454 138 454 138 456 120 c 0,6,7
 461 69 461 69 488 44 c 0,8,9
 516 17 516 17 585.5 17 c 128,-1,10
 655 17 655 17 804 38 c 1,11,-1
 801 22 l 1,12,13
 695 -7 695 -7 568 -7 c 0,14,15
 467 -7 467 -7 440 74 c 1,16,17
 436 72 436 72 412.5 59 c 128,-1,18
 389 46 389 46 377.5 40.5 c 128,-1,19
 366 35 366 35 341.5 24 c 128,-1,20
 317 13 317 13 298 8 c 0,21,22
 168 -31 168 -31 90 26 c 0,23,24
 65 45 65 45 54 77 c 0,25,26
 39 121 39 121 39 172 c 128,-1,27
 39 223 39 223 50.5 284 c 128,-1,28
 62 345 62 345 81.5 393 c 128,-1,29
 101 441 101 441 121.5 467 c 128,-1,30
 142 493 142 493 171 510 c 128,-1,31
 200 527 200 527 221 532 c 0,32,33
 265 542 265 542 302 542 c 128,-1,34
 339 542 339 542 403.5 525 c 128,-1,35
 468 508 468 508 510 475 c 1,36,37
 567 541 567 541 693 541 c 0,38,39
 794 541 794 541 843 506 c 0,40,41
 883 477 883 477 883 417 c 0,42,43
 883 335 883 335 830 288 c 0,44,0
 787 250 787 250 731.5 239 c 128,-1,1
63 175 m 0,45,46
 63 16 63 16 198 16 c 0,47,48
 227 16 227 16 264.5 25.5 c 128,-1,49
 302 35 302 35 319.5 41.5 c 128,-1,50
 337 48 337 48 385 69.5 c 128,-1,51
 433 91 433 91 435 92 c 1,52,53
 429 119 429 119 429 163 c 128,-1,54
 429 207 429 207 445.5 303 c 128,-1,55
 462 399 462 399 498 461 c 1,56,57
 392 519 392 519 304 519 c 0,58,59
 286 519 286 519 269 517 c 0,60,61
 180 505 180 505 135.5 446.5 c 128,-1,62
 91 388 91 388 69 246 c 0,63,64
 63 207 63 207 63 175 c 0,45,46
609.5 249 m 128,-1,66
 645 249 645 249 689.5 256 c 128,-1,67
 734 263 734 263 767.5 277 c 128,-1,68
 801 291 801 291 826 320 c 0,69,70
 858 356 858 356 858 409.5 c 128,-1,71
 858 463 858 463 821 490 c 128,-1,72
 784 517 784 517 714.5 517 c 128,-1,73
 645 517 645 517 605.5 503 c 128,-1,74
 566 489 566 489 544 474 c 128,-1,75
 522 459 522 459 504.5 418 c 128,-1,76
 487 377 487 377 481.5 354.5 c 128,-1,77
 476 332 476 332 469.5 298 c 128,-1,78
 463 264 463 264 462 261 c 1,79,80
 470 260 470 260 483 257.5 c 128,-1,81
 496 255 496 255 535 252 c 128,-1,65
 574 249 574 249 609.5 249 c 128,-1,66
EndSplineSet
Substitution2: "'smcp' Lowercase to Small Capitals lookup 1 subtable" ae.smcp
EndChar

StartChar: ccedilla
Encoding: 231 231 168
Width: 494
GlyphClass: 2
Flags: W
LayerCount: 2
Fore
SplineSet
237 527 m 128,-1,1
 267 536 267 536 330 536 c 128,-1,2
 393 536 393 536 504 510 c 1,3,-1
 501 496 l 1,4,5
 395 512 395 512 331.5 512 c 128,-1,6
 268 512 268 512 241.5 503 c 128,-1,7
 215 494 215 494 190 468 c 1,8,9
 139 418 139 418 115 262 c 1,10,11
 105 212 105 212 105 188.5 c 128,-1,12
 105 165 105 165 106.5 140 c 128,-1,13
 108 115 108 115 115.5 87.5 c 128,-1,14
 123 60 123 60 142 45 c 0,15,16
 174 19 174 19 221 19 c 0,17,18
 304 19 304 19 404 35 c 2,19,-1
 436 40 l 1,20,-1
 434 24 l 1,21,22
 332 -4 332 -4 224 -5 c 0,23,24
 117 -5 117 -5 94 74 c 0,25,26
 81 118 81 118 81 167.5 c 128,-1,27
 81 217 81 217 92 273 c 1,28,29
 118 439 118 439 178 492 c 0,30,0
 207 518 207 518 237 527 c 128,-1,1
145 -171 m 2,31,-1
 114 -171 l 1,32,-1
 115 -164 l 1,33,-1
 149 -159 l 2,34,35
 182 -154 182 -154 198 -147 c 128,-1,36
 214 -140 214 -140 229 -113.5 c 128,-1,37
 244 -87 244 -87 251 -35 c 1,38,-1
 268 -35 l 1,39,40
 256 -112 256 -112 231 -141.5 c 128,-1,41
 206 -171 206 -171 145 -171 c 2,31,-1
EndSplineSet
Substitution2: "'smcp' Lowercase to Small Capitals lookup 1 subtable" ccedilla.smcp
EndChar

StartChar: egrave
Encoding: 232 232 169
Width: 537
GlyphClass: 2
Flags: W
LayerCount: 2
Fore
SplineSet
230 734 m 1,0,-1
 256 734 l 1,1,-1
 356 601 l 1,2,-1
 342 601 l 1,3,-1
 230 734 l 1,0,-1
377.5 239 m 128,-1,5
 322 228 322 228 238 228 c 128,-1,6
 154 228 154 228 106 247 c 1,7,8
 99 197 99 197 99 150.5 c 128,-1,9
 99 104 99 104 112 72 c 0,10,11
 135 17 135 17 218 17 c 128,-1,12
 301 17 301 17 450 38 c 1,13,-1
 447 22 l 1,14,15
 341 -7 341 -7 214 -7 c 0,16,17
 120 -7 120 -7 91 62 c 0,18,19
 75 98 75 98 75 153.5 c 128,-1,20
 75 209 75 209 85.5 270.5 c 128,-1,21
 96 332 96 332 104.5 365 c 128,-1,22
 113 398 113 398 131 435.5 c 128,-1,23
 149 473 149 473 174 494 c 0,24,25
 232 541 232 541 336 541 c 128,-1,26
 440 541 440 541 489 506 c 0,27,28
 529 477 529 477 529 417 c 0,29,30
 529 335 529 335 476 288 c 0,31,4
 433 250 433 250 377.5 239 c 128,-1,5
255.5 249 m 128,-1,33
 291 249 291 249 335.5 256 c 128,-1,34
 380 263 380 263 413.5 277 c 128,-1,35
 447 291 447 291 472 320 c 0,36,37
 504 356 504 356 504 409.5 c 128,-1,38
 504 463 504 463 467 490 c 128,-1,39
 430 517 430 517 347 517 c 0,40,41
 279 517 279 517 222 494 c 0,42,43
 190 482 190 482 156 432 c 0,44,45
 147 418 147 418 137 386 c 0,46,47
 117 323 117 323 108 261 c 1,48,49
 116 260 116 260 129 257.5 c 128,-1,50
 142 255 142 255 181 252 c 128,-1,32
 220 249 220 249 255.5 249 c 128,-1,33
EndSplineSet
Substitution2: "'smcp' Lowercase to Small Capitals lookup 1 subtable" egrave.smcp
EndChar

StartChar: eacute
Encoding: 233 233 170
Width: 537
GlyphClass: 2
Flags: W
LayerCount: 2
Fore
SplineSet
342 601 m 1,0,-1
 484 734 l 1,1,-1
 510 734 l 1,2,-1
 356 601 l 1,3,-1
 342 601 l 1,0,-1
377.5 239 m 128,-1,5
 322 228 322 228 238 228 c 128,-1,6
 154 228 154 228 106 247 c 1,7,8
 99 197 99 197 99 150.5 c 128,-1,9
 99 104 99 104 112 72 c 0,10,11
 135 17 135 17 218 17 c 128,-1,12
 301 17 301 17 450 38 c 1,13,-1
 447 22 l 1,14,15
 341 -7 341 -7 214 -7 c 0,16,17
 120 -7 120 -7 91 62 c 0,18,19
 75 98 75 98 75 153.5 c 128,-1,20
 75 209 75 209 85.5 270.5 c 128,-1,21
 96 332 96 332 104.5 365 c 128,-1,22
 113 398 113 398 131 435.5 c 128,-1,23
 149 473 149 473 174 494 c 0,24,25
 232 541 232 541 336 541 c 128,-1,26
 440 541 440 541 489 506 c 0,27,28
 529 477 529 477 529 417 c 0,29,30
 529 335 529 335 476 288 c 0,31,4
 433 250 433 250 377.5 239 c 128,-1,5
255.5 249 m 128,-1,33
 291 249 291 249 335.5 256 c 128,-1,34
 380 263 380 263 413.5 277 c 128,-1,35
 447 291 447 291 472 320 c 0,36,37
 504 356 504 356 504 409.5 c 128,-1,38
 504 463 504 463 467 490 c 128,-1,39
 430 517 430 517 347 517 c 0,40,41
 279 517 279 517 222 494 c 0,42,43
 190 482 190 482 156 432 c 0,44,45
 147 418 147 418 137 386 c 0,46,47
 117 323 117 323 108 261 c 1,48,49
 116 260 116 260 129 257.5 c 128,-1,50
 142 255 142 255 181 252 c 128,-1,32
 220 249 220 249 255.5 249 c 128,-1,33
EndSplineSet
Substitution2: "'smcp' Lowercase to Small Capitals lookup 1 subtable" eacute.smcp
EndChar

StartChar: ecircumflex
Encoding: 234 234 171
Width: 537
GlyphClass: 2
Flags: W
LayerCount: 2
Fore
SplineSet
213 601 m 1,0,-1
 366 731 l 1,1,-1
 387 731 l 1,2,-1
 485 601 l 1,3,-1
 468 601 l 1,4,-1
 374 716 l 1,5,-1
 231 601 l 1,6,-1
 213 601 l 1,0,-1
377.5 239 m 128,-1,8
 322 228 322 228 238 228 c 128,-1,9
 154 228 154 228 106 247 c 1,10,11
 99 197 99 197 99 150.5 c 128,-1,12
 99 104 99 104 112 72 c 0,13,14
 135 17 135 17 218 17 c 128,-1,15
 301 17 301 17 450 38 c 1,16,-1
 447 22 l 1,17,18
 341 -7 341 -7 214 -7 c 0,19,20
 120 -7 120 -7 91 62 c 0,21,22
 75 98 75 98 75 153.5 c 128,-1,23
 75 209 75 209 85.5 270.5 c 128,-1,24
 96 332 96 332 104.5 365 c 128,-1,25
 113 398 113 398 131 435.5 c 128,-1,26
 149 473 149 473 174 494 c 0,27,28
 232 541 232 541 336 541 c 128,-1,29
 440 541 440 541 489 506 c 0,30,31
 529 477 529 477 529 417 c 0,32,33
 529 335 529 335 476 288 c 0,34,7
 433 250 433 250 377.5 239 c 128,-1,8
255.5 249 m 128,-1,36
 291 249 291 249 335.5 256 c 128,-1,37
 380 263 380 263 413.5 277 c 128,-1,38
 447 291 447 291 472 320 c 0,39,40
 504 356 504 356 504 409.5 c 128,-1,41
 504 463 504 463 467 490 c 128,-1,42
 430 517 430 517 347 517 c 0,43,44
 279 517 279 517 222 494 c 0,45,46
 190 482 190 482 156 432 c 0,47,48
 147 418 147 418 137 386 c 0,49,50
 117 323 117 323 108 261 c 1,51,52
 116 260 116 260 129 257.5 c 128,-1,53
 142 255 142 255 181 252 c 128,-1,35
 220 249 220 249 255.5 249 c 128,-1,36
EndSplineSet
Substitution2: "'smcp' Lowercase to Small Capitals lookup 1 subtable" ecircumflex.smcp
EndChar

StartChar: edieresis
Encoding: 235 235 172
Width: 537
GlyphClass: 2
Flags: W
LayerCount: 2
Fore
SplineSet
228 636 m 0,0,1
 235 636 235 636 239 631 c 128,-1,2
 243 626 243 626 242 619 c 0,3,4
 238 601 238 601 222 601 c 0,5,6
 214 601 214 601 209.5 606.5 c 128,-1,7
 205 612 205 612 207 619 c 0,8,9
 210 636 210 636 228 636 c 0,0,1
483 636 m 0,10,11
 490 636 490 636 494 631 c 128,-1,12
 498 626 498 626 497 619 c 0,13,14
 493 601 493 601 477 601 c 0,15,16
 469 601 469 601 464.5 606.5 c 128,-1,17
 460 612 460 612 462 619 c 0,18,19
 465 636 465 636 483 636 c 0,10,11
377.5 239 m 128,-1,21
 322 228 322 228 238 228 c 128,-1,22
 154 228 154 228 106 247 c 1,23,24
 99 197 99 197 99 150.5 c 128,-1,25
 99 104 99 104 112 72 c 0,26,27
 135 17 135 17 218 17 c 128,-1,28
 301 17 301 17 450 38 c 1,29,-1
 447 22 l 1,30,31
 341 -7 341 -7 214 -7 c 0,32,33
 120 -7 120 -7 91 62 c 0,34,35
 75 98 75 98 75 153.5 c 128,-1,36
 75 209 75 209 85.5 270.5 c 128,-1,37
 96 332 96 332 104.5 365 c 128,-1,38
 113 398 113 398 131 435.5 c 128,-1,39
 149 473 149 473 174 494 c 0,40,41
 232 541 232 541 336 541 c 128,-1,42
 440 541 440 541 489 506 c 0,43,44
 529 477 529 477 529 417 c 0,45,46
 529 335 529 335 476 288 c 0,47,20
 433 250 433 250 377.5 239 c 128,-1,21
255.5 249 m 128,-1,49
 291 249 291 249 335.5 256 c 128,-1,50
 380 263 380 263 413.5 277 c 128,-1,51
 447 291 447 291 472 320 c 0,52,53
 504 356 504 356 504 409.5 c 128,-1,54
 504 463 504 463 467 490 c 128,-1,55
 430 517 430 517 347 517 c 0,56,57
 279 517 279 517 222 494 c 0,58,59
 190 482 190 482 156 432 c 0,60,61
 147 418 147 418 137 386 c 0,62,63
 117 323 117 323 108 261 c 1,64,65
 116 260 116 260 129 257.5 c 128,-1,66
 142 255 142 255 181 252 c 128,-1,48
 220 249 220 249 255.5 249 c 128,-1,49
EndSplineSet
Substitution2: "'smcp' Lowercase to Small Capitals lookup 1 subtable" edieresis.smcp
EndChar

StartChar: igrave
Encoding: 236 236 173
Width: 165
GlyphClass: 2
Flags: W
LayerCount: 2
Fore
SplineSet
5 729 m 1,0,-1
 31 729 l 1,1,-1
 131 596 l 1,2,-1
 117 596 l 1,3,-1
 5 729 l 1,0,-1
60 0 m 1,4,-1
 144 531 l 1,5,-1
 168 531 l 1,6,-1
 84 0 l 1,7,-1
 60 0 l 1,4,-1
EndSplineSet
Substitution2: "'smcp' Lowercase to Small Capitals lookup 1 subtable" igrave.smcp
EndChar

StartChar: iacute
Encoding: 237 237 174
Width: 165
GlyphClass: 2
Flags: W
LayerCount: 2
Fore
SplineSet
117 596 m 1,0,-1
 259 729 l 1,1,-1
 285 729 l 1,2,-1
 131 596 l 1,3,-1
 117 596 l 1,0,-1
60 0 m 1,4,-1
 144 531 l 1,5,-1
 168 531 l 1,6,-1
 84 0 l 1,7,-1
 60 0 l 1,4,-1
EndSplineSet
Substitution2: "'smcp' Lowercase to Small Capitals lookup 1 subtable" iacute.smcp
EndChar

StartChar: icircumflex
Encoding: 238 238 175
Width: 165
GlyphClass: 2
Flags: W
LayerCount: 2
Fore
SplineSet
-12 596 m 1,0,-1
 141 726 l 1,1,-1
 162 726 l 1,2,-1
 260 596 l 1,3,-1
 243 596 l 1,4,-1
 149 711 l 1,5,-1
 6 596 l 1,6,-1
 -12 596 l 1,0,-1
60 0 m 1,7,-1
 144 531 l 1,8,-1
 168 531 l 1,9,-1
 84 0 l 1,10,-1
 60 0 l 1,7,-1
EndSplineSet
Substitution2: "'smcp' Lowercase to Small Capitals lookup 1 subtable" icircumflex.smcp
EndChar

StartChar: idieresis
Encoding: 239 239 176
Width: 165
GlyphClass: 2
Flags: W
LayerCount: 2
Fore
SplineSet
3 631 m 0,0,1
 11 631 11 631 15 626 c 128,-1,2
 19 621 19 621 17 614 c 0,3,4
 14 596 14 596 -3 596 c 0,5,6
 -10 596 -10 596 -14 600.5 c 128,-1,7
 -18 605 -18 605 -18 610 c 0,8,9
 -18 631 -18 631 3 631 c 0,0,1
237 614 m 0,10,11
 241 631 241 631 257 631 c 128,-1,12
 273 631 273 631 273 618 c 0,13,14
 273 596 273 596 252 596 c 0,15,16
 245 596 245 596 240.5 601.5 c 128,-1,17
 236 607 236 607 237 614 c 0,10,11
60 0 m 1,18,-1
 144 531 l 1,19,-1
 168 531 l 1,20,-1
 84 0 l 1,21,-1
 60 0 l 1,18,-1
EndSplineSet
Substitution2: "'smcp' Lowercase to Small Capitals lookup 1 subtable" idieresis.smcp
EndChar

StartChar: eth
Encoding: 240 240 177
Width: 547
GlyphClass: 2
Flags: W
LayerCount: 2
Fore
SplineSet
300 531 m 2,0,-1
 370 531 l 2,1,2
 427 531 427 531 460 508.5 c 128,-1,3
 493 486 493 486 500 465 c 1,4,5
 495 610 495 610 433 684 c 1,6,-1
 261 620 l 1,7,-1
 259 634 l 1,8,-1
 422 695 l 1,9,10
 355 761 355 761 243 762 c 1,11,-1
 246 783 l 1,12,13
 374 782 374 782 447 704 c 1,14,-1
 584 755 l 1,15,-1
 588 741 l 1,16,-1
 457 693 l 1,17,18
 524 607 524 607 524 441 c 0,19,20
 524 359 524 359 508 258 c 0,21,22
 485 117 485 117 429 58.5 c 128,-1,23
 373 0 373 0 286 0 c 2,24,-1
 216 0 l 2,25,26
 117 0 117 0 88 65 c 0,27,28
 71 102 71 102 71 156 c 128,-1,29
 71 210 71 210 80 270 c 0,30,31
 101 403 101 403 151.5 467 c 128,-1,32
 202 531 202 531 300 531 c 2,0,-1
95 142 m 128,-1,34
 95 95 95 95 113.5 69.5 c 128,-1,35
 132 44 132 44 156.5 35 c 128,-1,36
 181 26 181 26 220 26 c 2,37,-1
 290 26 l 2,38,39
 382 26 382 26 427 96 c 0,40,41
 493 200 493 200 493 376 c 0,42,43
 493 428 493 428 464 468 c 1,44,45
 437 507 437 507 367 507 c 2,46,-1
 297 507 l 2,47,48
 222 507 222 507 174 456 c 128,-1,49
 126 405 126 405 104 264 c 1,50,33
 95 189 95 189 95 142 c 128,-1,34
EndSplineSet
Substitution2: "'smcp' Lowercase to Small Capitals lookup 1 subtable" eth.smcp
EndChar

StartChar: ntilde
Encoding: 241 241 178
Width: 540
GlyphClass: 2
Flags: W
LayerCount: 2
Fore
SplineSet
307 689 m 0,0,1
 325 689 325 689 347 670.5 c 128,-1,2
 369 652 369 652 390 634 c 128,-1,3
 411 616 411 616 421 616 c 128,-1,4
 431 616 431 616 437.5 617 c 128,-1,5
 444 618 444 618 450.5 620.5 c 128,-1,6
 457 623 457 623 463 625.5 c 128,-1,7
 469 628 469 628 476.5 632 c 128,-1,8
 484 636 484 636 488.5 639 c 128,-1,9
 493 642 493 642 500.5 647 c 128,-1,10
 508 652 508 652 511.5 654.5 c 128,-1,11
 515 657 515 657 522 662.5 c 128,-1,12
 529 668 529 668 531 669 c 1,13,-1
 536 662 l 1,14,15
 511 640 511 640 497 630 c 0,16,17
 458 600 458 600 421 600 c 0,18,19
 395 600 395 600 360.5 636.5 c 128,-1,20
 326 673 326 673 306 673 c 0,21,22
 273 673 273 673 212 632 c 0,23,24
 202 626 202 626 197 623 c 1,25,-1
 193 631 l 1,26,27
 269 689 269 689 307 689 c 0,0,1
158 531 m 1,28,-1
 158 469 l 1,29,30
 279 540 279 540 386 540 c 0,31,32
 462 540 462 540 498 490 c 0,33,34
 526 452 526 452 526 402 c 0,35,36
 526 386 526 386 523 370 c 2,37,-1
 464 0 l 1,38,-1
 440 0 l 1,39,-1
 499 370 l 2,40,41
 501 385 501 385 501 399 c 0,42,43
 501 442 501 442 478 474 c 0,44,45
 447 516 447 516 383.5 516 c 128,-1,46
 320 516 320 516 270.5 502 c 128,-1,47
 221 488 221 488 156 455 c 1,48,-1
 84 0 l 1,49,-1
 60 0 l 1,50,-1
 144 531 l 1,51,-1
 158 531 l 1,28,-1
EndSplineSet
AlternateSubs2: "'salt' Stylistic Alternatives in Latin lookup 16 subtable" ntilde.salt
Substitution2: "'smcp' Lowercase to Small Capitals lookup 1 subtable" ntilde.smcp
EndChar

StartChar: ograve
Encoding: 242 242 179
Width: 560
GlyphClass: 2
Flags: W
LayerCount: 2
Fore
SplineSet
245 729 m 1,0,-1
 271 729 l 1,1,-1
 371 596 l 1,2,-1
 357 596 l 1,3,-1
 245 729 l 1,0,-1
173.5 480 m 128,-1,5
 231 536 231 536 355 536 c 128,-1,6
 479 536 479 536 516 468 c 0,7,8
 538 426 538 426 538 367.5 c 128,-1,9
 538 309 538 309 529 251 c 0,10,11
 506 105 506 105 450 50 c 128,-1,12
 394 -5 394 -5 267 -5 c 128,-1,13
 140 -5 140 -5 104 56 c 0,14,15
 82 93 82 93 82 150 c 128,-1,16
 82 207 82 207 91 265 c 0,17,4
 116 424 116 424 173.5 480 c 128,-1,5
149.5 395.5 m 128,-1,19
 129 343 129 343 117.5 271 c 128,-1,20
 106 199 106 199 106 162 c 128,-1,21
 106 125 106 125 113.5 100.5 c 128,-1,22
 121 76 121 76 133.5 59.5 c 128,-1,23
 146 43 146 43 168 34 c 0,24,25
 206 19 206 19 265.5 19 c 128,-1,26
 325 19 325 19 359.5 28 c 128,-1,27
 394 37 394 37 424 62 c 0,28,29
 481 110 481 110 505 258 c 1,30,31
 515 306 515 306 515 331 c 128,-1,32
 515 356 515 356 512 384.5 c 128,-1,33
 509 413 509 413 499.5 441 c 128,-1,34
 490 469 490 469 466 485 c 0,35,36
 425 512 425 512 361.5 512 c 128,-1,37
 298 512 298 512 266 504.5 c 128,-1,38
 234 497 234 497 202 472.5 c 128,-1,18
 170 448 170 448 149.5 395.5 c 128,-1,19
EndSplineSet
Substitution2: "'smcp' Lowercase to Small Capitals lookup 1 subtable" ograve.smcp
EndChar

StartChar: oacute
Encoding: 243 243 180
Width: 560
GlyphClass: 2
Flags: W
LayerCount: 2
Fore
SplineSet
357 596 m 1,0,-1
 499 729 l 1,1,-1
 525 729 l 1,2,-1
 371 596 l 1,3,-1
 357 596 l 1,0,-1
173.5 480 m 128,-1,5
 231 536 231 536 355 536 c 128,-1,6
 479 536 479 536 516 468 c 0,7,8
 538 426 538 426 538 367.5 c 128,-1,9
 538 309 538 309 529 251 c 0,10,11
 506 105 506 105 450 50 c 128,-1,12
 394 -5 394 -5 267 -5 c 128,-1,13
 140 -5 140 -5 104 56 c 0,14,15
 82 93 82 93 82 150 c 128,-1,16
 82 207 82 207 91 265 c 0,17,4
 116 424 116 424 173.5 480 c 128,-1,5
149.5 395.5 m 128,-1,19
 129 343 129 343 117.5 271 c 128,-1,20
 106 199 106 199 106 162 c 128,-1,21
 106 125 106 125 113.5 100.5 c 128,-1,22
 121 76 121 76 133.5 59.5 c 128,-1,23
 146 43 146 43 168 34 c 0,24,25
 206 19 206 19 265.5 19 c 128,-1,26
 325 19 325 19 359.5 28 c 128,-1,27
 394 37 394 37 424 62 c 0,28,29
 481 110 481 110 505 258 c 1,30,31
 515 306 515 306 515 331 c 128,-1,32
 515 356 515 356 512 384.5 c 128,-1,33
 509 413 509 413 499.5 441 c 128,-1,34
 490 469 490 469 466 485 c 0,35,36
 425 512 425 512 361.5 512 c 128,-1,37
 298 512 298 512 266 504.5 c 128,-1,38
 234 497 234 497 202 472.5 c 128,-1,18
 170 448 170 448 149.5 395.5 c 128,-1,19
EndSplineSet
Substitution2: "'smcp' Lowercase to Small Capitals lookup 1 subtable" oacute.smcp
EndChar

StartChar: ocircumflex
Encoding: 244 244 181
Width: 560
GlyphClass: 2
Flags: W
LayerCount: 2
Fore
SplineSet
228 596 m 1,0,-1
 381 726 l 1,1,-1
 402 726 l 1,2,-1
 500 596 l 1,3,-1
 483 596 l 1,4,-1
 389 711 l 1,5,-1
 246 596 l 1,6,-1
 228 596 l 1,0,-1
173.5 480 m 128,-1,8
 231 536 231 536 355 536 c 128,-1,9
 479 536 479 536 516 468 c 0,10,11
 538 426 538 426 538 367.5 c 128,-1,12
 538 309 538 309 529 251 c 0,13,14
 506 105 506 105 450 50 c 128,-1,15
 394 -5 394 -5 267 -5 c 128,-1,16
 140 -5 140 -5 104 56 c 0,17,18
 82 93 82 93 82 150 c 128,-1,19
 82 207 82 207 91 265 c 0,20,7
 116 424 116 424 173.5 480 c 128,-1,8
149.5 395.5 m 128,-1,22
 129 343 129 343 117.5 271 c 128,-1,23
 106 199 106 199 106 162 c 128,-1,24
 106 125 106 125 113.5 100.5 c 128,-1,25
 121 76 121 76 133.5 59.5 c 128,-1,26
 146 43 146 43 168 34 c 0,27,28
 206 19 206 19 265.5 19 c 128,-1,29
 325 19 325 19 359.5 28 c 128,-1,30
 394 37 394 37 424 62 c 0,31,32
 481 110 481 110 505 258 c 1,33,34
 515 306 515 306 515 331 c 128,-1,35
 515 356 515 356 512 384.5 c 128,-1,36
 509 413 509 413 499.5 441 c 128,-1,37
 490 469 490 469 466 485 c 0,38,39
 425 512 425 512 361.5 512 c 128,-1,40
 298 512 298 512 266 504.5 c 128,-1,41
 234 497 234 497 202 472.5 c 128,-1,21
 170 448 170 448 149.5 395.5 c 128,-1,22
EndSplineSet
Substitution2: "'smcp' Lowercase to Small Capitals lookup 1 subtable" ocircumflex.smcp
EndChar

StartChar: otilde
Encoding: 245 245 182
Width: 560
GlyphClass: 2
Flags: W
LayerCount: 2
Fore
SplineSet
314 685 m 0,0,1
 331 685 331 685 353.5 666.5 c 128,-1,2
 376 648 376 648 396.5 630 c 128,-1,3
 417 612 417 612 427.5 612 c 128,-1,4
 438 612 438 612 445.5 613.5 c 128,-1,5
 453 615 453 615 459.5 617 c 128,-1,6
 466 619 466 619 475 623.5 c 128,-1,7
 484 628 484 628 489 631 c 128,-1,8
 494 634 494 634 503 640 c 128,-1,9
 512 646 512 646 515 648.5 c 128,-1,10
 518 651 518 651 527 657.5 c 128,-1,11
 536 664 536 664 538 665 c 1,12,-1
 543 658 l 1,13,14
 484 609 484 609 463.5 602.5 c 128,-1,15
 443 596 443 596 426.5 596 c 128,-1,16
 410 596 410 596 388 614 c 128,-1,17
 366 632 366 632 346 650.5 c 128,-1,18
 326 669 326 669 315.5 669 c 128,-1,19
 305 669 305 669 297 668 c 128,-1,20
 289 667 289 667 281 663.5 c 128,-1,21
 273 660 273 660 267 657.5 c 128,-1,22
 261 655 261 655 251 649 c 128,-1,23
 241 643 241 643 236.5 640.5 c 128,-1,24
 232 638 232 638 220 630 c 128,-1,25
 208 622 208 622 204 619 c 1,26,-1
 200 627 l 1,27,28
 275 685 275 685 314 685 c 0,0,1
173.5 480 m 128,-1,30
 231 536 231 536 355 536 c 128,-1,31
 479 536 479 536 516 468 c 0,32,33
 538 426 538 426 538 367.5 c 128,-1,34
 538 309 538 309 529 251 c 0,35,36
 506 105 506 105 450 50 c 128,-1,37
 394 -5 394 -5 267 -5 c 128,-1,38
 140 -5 140 -5 104 56 c 0,39,40
 82 93 82 93 82 150 c 128,-1,41
 82 207 82 207 91 265 c 0,42,29
 116 424 116 424 173.5 480 c 128,-1,30
149.5 395.5 m 128,-1,44
 129 343 129 343 117.5 271 c 128,-1,45
 106 199 106 199 106 162 c 128,-1,46
 106 125 106 125 113.5 100.5 c 128,-1,47
 121 76 121 76 133.5 59.5 c 128,-1,48
 146 43 146 43 168 34 c 0,49,50
 206 19 206 19 265.5 19 c 128,-1,51
 325 19 325 19 359.5 28 c 128,-1,52
 394 37 394 37 424 62 c 0,53,54
 481 110 481 110 505 258 c 1,55,56
 515 306 515 306 515 331 c 128,-1,57
 515 356 515 356 512 384.5 c 128,-1,58
 509 413 509 413 499.5 441 c 128,-1,59
 490 469 490 469 466 485 c 0,60,61
 425 512 425 512 361.5 512 c 128,-1,62
 298 512 298 512 266 504.5 c 128,-1,63
 234 497 234 497 202 472.5 c 128,-1,43
 170 448 170 448 149.5 395.5 c 128,-1,44
EndSplineSet
Substitution2: "'smcp' Lowercase to Small Capitals lookup 1 subtable" otilde.smcp
EndChar

StartChar: odieresis
Encoding: 246 246 183
Width: 560
GlyphClass: 2
Flags: W
LayerCount: 2
Fore
SplineSet
243 631 m 0,0,1
 250 631 250 631 254 626 c 128,-1,2
 258 621 258 621 257 614 c 0,3,4
 253 596 253 596 237 596 c 0,5,6
 229 596 229 596 224.5 601.5 c 128,-1,7
 220 607 220 607 222 614 c 0,8,9
 225 631 225 631 243 631 c 0,0,1
498 631 m 0,10,11
 505 631 505 631 509 626 c 128,-1,12
 513 621 513 621 512 614 c 0,13,14
 508 596 508 596 492 596 c 0,15,16
 484 596 484 596 479.5 601.5 c 128,-1,17
 475 607 475 607 477 614 c 0,18,19
 480 631 480 631 498 631 c 0,10,11
173.5 480 m 128,-1,21
 231 536 231 536 355 536 c 128,-1,22
 479 536 479 536 516 468 c 0,23,24
 538 426 538 426 538 367.5 c 128,-1,25
 538 309 538 309 529 251 c 0,26,27
 506 105 506 105 450 50 c 128,-1,28
 394 -5 394 -5 267 -5 c 128,-1,29
 140 -5 140 -5 104 56 c 0,30,31
 82 93 82 93 82 150 c 128,-1,32
 82 207 82 207 91 265 c 0,33,20
 116 424 116 424 173.5 480 c 128,-1,21
149.5 395.5 m 128,-1,35
 129 343 129 343 117.5 271 c 128,-1,36
 106 199 106 199 106 162 c 128,-1,37
 106 125 106 125 113.5 100.5 c 128,-1,38
 121 76 121 76 133.5 59.5 c 128,-1,39
 146 43 146 43 168 34 c 0,40,41
 206 19 206 19 265.5 19 c 128,-1,42
 325 19 325 19 359.5 28 c 128,-1,43
 394 37 394 37 424 62 c 0,44,45
 481 110 481 110 505 258 c 1,46,47
 515 306 515 306 515 331 c 128,-1,48
 515 356 515 356 512 384.5 c 128,-1,49
 509 413 509 413 499.5 441 c 128,-1,50
 490 469 490 469 466 485 c 0,51,52
 425 512 425 512 361.5 512 c 128,-1,53
 298 512 298 512 266 504.5 c 128,-1,54
 234 497 234 497 202 472.5 c 128,-1,34
 170 448 170 448 149.5 395.5 c 128,-1,35
EndSplineSet
Substitution2: "'smcp' Lowercase to Small Capitals lookup 1 subtable" odieresis.smcp
EndChar

StartChar: divide
Encoding: 247 247 184
Width: 556
GlyphClass: 2
Flags: W
LayerCount: 2
Fore
SplineSet
100 341 m 1,0,-1
 104 365 l 1,1,-1
 520 365 l 1,2,-1
 516 341 l 1,3,-1
 100 341 l 1,0,-1
286 213 m 2,4,-1
 298 213 l 2,5,6
 309 213 309 213 307 201 c 2,7,-1
 301 159 l 2,8,9
 300 147 300 147 287 147 c 2,10,-1
 276 147 l 2,11,12
 264 147 264 147 266 159 c 2,13,-1
 272 201 l 2,14,15
 274 213 274 213 286 213 c 2,4,-1
339 549 m 2,16,-1
 351 549 l 2,17,18
 362 549 362 549 360 537 c 2,19,-1
 354 494 l 2,20,21
 353 483 353 483 340 483 c 2,22,-1
 329 483 l 2,23,24
 317 483 317 483 319 494 c 2,25,-1
 325 537 l 2,26,27
 326 549 326 549 339 549 c 2,16,-1
EndSplineSet
EndChar

StartChar: oslash
Encoding: 248 248 185
Width: 540
GlyphClass: 2
Flags: W
LayerCount: 2
Fore
SplineSet
96 50 m 1,0,1
 72 85 72 85 72 145.5 c 128,-1,2
 72 206 72 206 82 269 c 0,3,4
 107 427 107 427 164 481.5 c 128,-1,5
 221 536 221 536 335 536 c 128,-1,6
 449 536 449 536 492 490 c 1,7,-1
 529 531 l 1,8,-1
 547 531 l 1,9,-1
 500 479 l 1,10,11
 529 438 529 438 529 356 c 0,12,13
 529 310 529 310 520 250 c 0,14,15
 497 104 497 104 443 50 c 128,-1,16
 389 -4 389 -4 268 -4.5 c 128,-1,17
 147 -5 147 -5 105 40 c 1,18,-1
 69 0 l 1,19,-1
 51 0 l 1,20,-1
 96 50 l 1,0,1
341 512 m 0,21,22
 290 512 290 512 258 504.5 c 128,-1,23
 226 497 226 497 193.5 472 c 128,-1,24
 161 447 161 447 140.5 394.5 c 128,-1,25
 120 342 120 342 108.5 271.5 c 128,-1,26
 97 201 97 201 97 151 c 128,-1,27
 97 101 97 101 114 71 c 1,28,-1
 476 471 l 1,29,30
 442 512 442 512 341 512 c 0,21,22
263 19 m 0,32,33
 315 19 315 19 349.5 27.5 c 128,-1,34
 384 36 384 36 414 61 c 0,35,36
 472 108 472 108 496 258 c 0,37,38
 505 316 505 316 505 371 c 128,-1,39
 505 426 505 426 484 460 c 1,40,-1
 122 59 l 1,41,31
 154 19 154 19 263 19 c 0,32,33
EndSplineSet
Substitution2: "'smcp' Lowercase to Small Capitals lookup 1 subtable" oslash.smcp
EndChar

StartChar: ugrave
Encoding: 249 249 186
Width: 539
GlyphClass: 2
Flags: W
LayerCount: 2
Fore
SplineSet
227 729 m 1,0,-1
 253 729 l 1,1,-1
 353 596 l 1,2,-1
 339 596 l 1,3,-1
 227 729 l 1,0,-1
97 133 m 0,4,5
 97 90 97 90 120 58 c 0,6,7
 151 16 151 16 214.5 16 c 128,-1,8
 278 16 278 16 327.5 30 c 128,-1,9
 377 44 377 44 442 77 c 1,10,-1
 514 532 l 1,11,-1
 538 532 l 1,12,-1
 454 1 l 1,13,-1
 440 1 l 1,14,-1
 440 63 l 1,15,16
 319 -8 319 -8 213 -8 c 0,17,18
 137 -8 137 -8 100 42 c 0,19,20
 72 80 72 80 72 131 c 0,21,22
 72 146 72 146 75 162 c 2,23,-1
 134 532 l 1,24,-1
 158 532 l 1,25,-1
 99 162 l 2,26,27
 97 147 97 147 97 133 c 0,4,5
EndSplineSet
AlternateSubs2: "'salt' Stylistic Alternatives in Latin lookup 16 subtable" ugrave.salt
Substitution2: "'smcp' Lowercase to Small Capitals lookup 1 subtable" ugrave.smcp
EndChar

StartChar: uacute
Encoding: 250 250 187
Width: 539
GlyphClass: 2
Flags: W
LayerCount: 2
Fore
SplineSet
339 596 m 1,0,-1
 481 729 l 1,1,-1
 507 729 l 1,2,-1
 353 596 l 1,3,-1
 339 596 l 1,0,-1
97 133 m 0,4,5
 97 90 97 90 120 58 c 0,6,7
 151 16 151 16 214.5 16 c 128,-1,8
 278 16 278 16 327.5 30 c 128,-1,9
 377 44 377 44 442 77 c 1,10,-1
 514 532 l 1,11,-1
 538 532 l 1,12,-1
 454 1 l 1,13,-1
 440 1 l 1,14,-1
 440 63 l 1,15,16
 319 -8 319 -8 213 -8 c 0,17,18
 137 -8 137 -8 100 42 c 0,19,20
 72 80 72 80 72 131 c 0,21,22
 72 146 72 146 75 162 c 2,23,-1
 134 532 l 1,24,-1
 158 532 l 1,25,-1
 99 162 l 2,26,27
 97 147 97 147 97 133 c 0,4,5
EndSplineSet
AlternateSubs2: "'salt' Stylistic Alternatives in Latin lookup 16 subtable" uacute.salt
Substitution2: "'smcp' Lowercase to Small Capitals lookup 1 subtable" uacute.smcp
EndChar

StartChar: ucircumflex
Encoding: 251 251 188
Width: 539
GlyphClass: 2
Flags: W
LayerCount: 2
Fore
SplineSet
210 596 m 1,0,-1
 363 726 l 1,1,-1
 384 726 l 1,2,-1
 482 596 l 1,3,-1
 465 596 l 1,4,-1
 371 711 l 1,5,-1
 228 596 l 1,6,-1
 210 596 l 1,0,-1
97 133 m 0,7,8
 97 90 97 90 120 58 c 0,9,10
 151 16 151 16 214.5 16 c 128,-1,11
 278 16 278 16 327.5 30 c 128,-1,12
 377 44 377 44 442 77 c 1,13,-1
 514 532 l 1,14,-1
 538 532 l 1,15,-1
 454 1 l 1,16,-1
 440 1 l 1,17,-1
 440 63 l 1,18,19
 319 -8 319 -8 213 -8 c 0,20,21
 137 -8 137 -8 100 42 c 0,22,23
 72 80 72 80 72 131 c 0,24,25
 72 146 72 146 75 162 c 2,26,-1
 134 532 l 1,27,-1
 158 532 l 1,28,-1
 99 162 l 2,29,30
 97 147 97 147 97 133 c 0,7,8
EndSplineSet
AlternateSubs2: "'salt' Stylistic Alternatives in Latin lookup 16 subtable" ucircumflex.salt
Substitution2: "'smcp' Lowercase to Small Capitals lookup 1 subtable" ucircumflex.smcp
EndChar

StartChar: udieresis
Encoding: 252 252 189
Width: 539
GlyphClass: 2
Flags: W
LayerCount: 2
Fore
SplineSet
225 631 m 0,0,1
 233 631 233 631 237 626 c 128,-1,2
 241 621 241 621 239 614 c 0,3,4
 236 596 236 596 219 596 c 0,5,6
 212 596 212 596 207.5 601.5 c 128,-1,7
 203 607 203 607 204 614 c 0,8,9
 208 631 208 631 225 631 c 0,0,1
480 631 m 0,10,11
 488 631 488 631 492 626 c 128,-1,12
 496 621 496 621 494 614 c 0,13,14
 491 596 491 596 474 596 c 0,15,16
 467 596 467 596 462.5 601.5 c 128,-1,17
 458 607 458 607 459 614 c 0,18,19
 463 631 463 631 480 631 c 0,10,11
97 133 m 0,20,21
 97 90 97 90 120 58 c 0,22,23
 151 16 151 16 214.5 16 c 128,-1,24
 278 16 278 16 327.5 30 c 128,-1,25
 377 44 377 44 442 77 c 1,26,-1
 514 532 l 1,27,-1
 538 532 l 1,28,-1
 454 1 l 1,29,-1
 440 1 l 1,30,-1
 440 63 l 1,31,32
 319 -8 319 -8 213 -8 c 0,33,34
 137 -8 137 -8 100 42 c 0,35,36
 72 80 72 80 72 131 c 0,37,38
 72 146 72 146 75 162 c 2,39,-1
 134 532 l 1,40,-1
 158 532 l 1,41,-1
 99 162 l 2,42,43
 97 147 97 147 97 133 c 0,20,21
EndSplineSet
AlternateSubs2: "'salt' Stylistic Alternatives in Latin lookup 16 subtable" udieresis.salt
Substitution2: "'smcp' Lowercase to Small Capitals lookup 1 subtable" udieresis.smcp
EndChar

StartChar: yacute
Encoding: 253 253 190
Width: 536
GlyphClass: 2
Flags: W
LayerCount: 2
Fore
SplineSet
315 591 m 1,0,-1
 457 724 l 1,1,-1
 483 724 l 1,2,-1
 329 591 l 1,3,-1
 315 591 l 1,0,-1
545 522 m 0,4,5
 545 493 545 493 523 446 c 2,6,-1
 310 1 l 1,7,8
 232 -171 232 -171 156 -240 c 0,9,10
 124 -269 124 -269 97 -269 c 1,11,-1
 97 -255 l 1,12,13
 117 -255 117 -255 143.5 -229 c 128,-1,14
 170 -203 170 -203 194 -166 c 0,15,16
 240 -92 240 -92 270 -26 c 1,17,-1
 283 0 l 1,18,19
 198 8 198 8 177 110 c 2,20,-1
 94 531 l 1,21,-1
 118 531 l 1,22,-1
 200 116 l 2,23,24
 218 25 218 25 295 25 c 1,25,-1
 500 454 l 1,26,27
 523 505 523 505 528 538 c 1,28,-1
 543 538 l 1,29,30
 545 531 545 531 545 522 c 0,4,5
EndSplineSet
Substitution2: "'smcp' Lowercase to Small Capitals lookup 1 subtable" yacute.smcp
EndChar

StartChar: thorn
Encoding: 254 254 191
Width: 531
GlyphClass: 2
Flags: W
LayerCount: 2
Fore
SplineSet
394 540 m 0,0,1
 534 540 534 540 534 340 c 0,2,3
 534 300 534 300 525.5 250 c 128,-1,4
 517 200 517 200 503.5 157.5 c 128,-1,5
 490 115 490 115 466 74 c 0,6,7
 418 -10 418 -10 307 -10 c 0,8,9
 267 -10 267 -10 203 0.5 c 128,-1,10
 139 11 139 11 98 29 c 1,11,-1
 51 -270 l 1,12,-1
 27 -270 l 1,13,-1
 194 782 l 1,14,-1
 218 782 l 1,15,-1
 168 471 l 1,16,17
 195 489 195 489 271.5 514.5 c 128,-1,18
 348 540 348 540 394 540 c 0,0,1
311 14 m 0,19,20
 391 14 391 14 436 75 c 128,-1,21
 481 136 481 136 502 269 c 0,22,23
 510 318 510 318 510 368 c 128,-1,24
 510 418 510 418 491 455 c 0,25,26
 460 516 460 516 390 516 c 0,27,28
 334 516 334 516 259 490 c 0,29,30
 236 482 236 482 228 479.5 c 128,-1,31
 220 477 220 477 194.5 467.5 c 128,-1,32
 169 458 169 458 166 457 c 1,33,-1
 101 43 l 1,34,35
 199 14 199 14 311 14 c 0,19,20
EndSplineSet
Substitution2: "'smcp' Lowercase to Small Capitals lookup 1 subtable" thorn.smcp
EndChar

StartChar: ydieresis
Encoding: 255 255 192
Width: 536
GlyphClass: 2
Flags: W
LayerCount: 2
Fore
SplineSet
185 642 m 0,0,1
 188 659 188 659 205.5 659 c 128,-1,2
 223 659 223 659 220 642 c 0,3,4
 216 624 216 624 200 624 c 0,5,6
 192 624 192 624 188 629.5 c 128,-1,7
 184 635 184 635 185 642 c 0,0,1
440 642 m 0,8,9
 443 659 443 659 460.5 659 c 128,-1,10
 478 659 478 659 475 642 c 0,11,12
 471 624 471 624 455 624 c 0,13,14
 447 624 447 624 443 629.5 c 128,-1,15
 439 635 439 635 440 642 c 0,8,9
545 522 m 0,16,17
 545 493 545 493 523 446 c 2,18,-1
 310 1 l 1,19,20
 232 -171 232 -171 156 -240 c 0,21,22
 124 -269 124 -269 97 -269 c 1,23,-1
 97 -255 l 1,24,25
 117 -255 117 -255 143.5 -229 c 128,-1,26
 170 -203 170 -203 194 -166 c 0,27,28
 240 -92 240 -92 270 -26 c 1,29,-1
 283 0 l 1,30,31
 198 8 198 8 177 110 c 2,32,-1
 94 531 l 1,33,-1
 118 531 l 1,34,-1
 200 116 l 2,35,36
 218 25 218 25 295 25 c 1,37,-1
 500 454 l 1,38,39
 523 505 523 505 528 538 c 1,40,-1
 543 538 l 1,41,42
 545 531 545 531 545 522 c 0,16,17
EndSplineSet
Substitution2: "'smcp' Lowercase to Small Capitals lookup 1 subtable" ydieresis.smcp
EndChar

StartChar: Amacron
Encoding: 256 256 193
Width: 643
GlyphClass: 2
Flags: W
LayerCount: 2
Fore
SplineSet
337 797 m 1,0,-1
 339 812 l 1,1,-1
 591 812 l 1,2,-1
 589 797 l 1,3,-1
 337 797 l 1,0,-1
45 0 m 1,4,-1
 435 732 l 1,5,-1
 469 732 l 1,6,-1
 615 0 l 1,7,-1
 591 0 l 1,8,-1
 540 253 l 1,9,-1
 207 253 l 1,10,-1
 73 0 l 1,11,-1
 45 0 l 1,4,-1
220 277 m 1,12,-1
 535 277 l 1,13,-1
 449 709 l 1,14,-1
 220 277 l 1,12,-1
EndSplineSet
Substitution2: "'c2sc' Capitals to Small Capitals in Latin lookup 2 subtable" amacron.smcp
EndChar

StartChar: amacron
Encoding: 257 257 194
Width: 545
GlyphClass: 2
Flags: W
LayerCount: 2
Fore
SplineSet
227 603 m 1,0,-1
 229 618 l 1,1,-1
 481 618 l 1,2,-1
 479 603 l 1,3,-1
 227 603 l 1,0,-1
259 532 m 128,-1,5
 280 537 280 537 303 540 c 128,-1,6
 326 543 326 543 355.5 543 c 128,-1,7
 385 543 385 543 442 528.5 c 128,-1,8
 499 514 499 514 536 479 c 1,9,-1
 466 0 l 1,10,-1
 452 0 l 1,11,-1
 453 60 l 1,12,13
 422 40 422 40 359.5 16.5 c 128,-1,14
 297 -7 297 -7 253 -7 c 128,-1,15
 209 -7 209 -7 182 0.5 c 128,-1,16
 155 8 155 8 130 26.5 c 128,-1,17
 105 45 105 45 94 77 c 0,18,19
 79 121 79 121 79 172 c 128,-1,20
 79 223 79 223 90.5 284 c 128,-1,21
 102 345 102 345 121 393 c 128,-1,22
 140 441 140 441 160.5 467 c 128,-1,23
 181 493 181 493 209.5 510 c 128,-1,4
 238 527 238 527 259 532 c 128,-1,5
103 175 m 0,24,25
 103 16 103 16 238 16 c 0,26,27
 276 16 276 16 301.5 22 c 128,-1,28
 327 28 327 28 336.5 29.5 c 128,-1,29
 346 31 346 31 368.5 40 c 128,-1,30
 391 49 391 49 395 50.5 c 128,-1,31
 399 52 399 52 425.5 63.5 c 128,-1,32
 452 75 452 75 453 75 c 2,33,-1
 511 476 l 1,34,35
 440 520 440 520 355 520 c 0,36,37
 232 520 232 520 176 446 c 0,38,39
 131 388 131 388 109 246 c 0,40,41
 103 207 103 207 103 175 c 0,24,25
EndSplineSet
AlternateSubs2: "'salt' Stylistic Alternatives in Latin lookup 16 subtable" amacron.salt
Substitution2: "'smcp' Lowercase to Small Capitals lookup 1 subtable" amacron.smcp
EndChar

StartChar: Abreve
Encoding: 258 258 195
Width: 643
GlyphClass: 2
Flags: W
LayerCount: 2
Fore
SplineSet
378 894 m 0,0,1
 378 862 378 862 400 836.5 c 128,-1,2
 422 811 422 811 461 811 c 0,3,4
 507 811 507 811 541 840 c 0,5,6
 575 868 575 868 582 911 c 1,7,-1
 596 911 l 1,8,9
 587 858 587 858 547.5 827.5 c 128,-1,10
 508 797 508 797 463 797 c 128,-1,11
 418 797 418 797 391 825 c 128,-1,12
 364 853 364 853 364 891 c 0,13,14
 364 900 364 900 366 911 c 1,15,-1
 380 911 l 1,16,17
 378 902 378 902 378 894 c 0,0,1
45 0 m 1,18,-1
 435 732 l 1,19,-1
 469 732 l 1,20,-1
 615 0 l 1,21,-1
 591 0 l 1,22,-1
 540 253 l 1,23,-1
 207 253 l 1,24,-1
 73 0 l 1,25,-1
 45 0 l 1,18,-1
220 277 m 1,26,-1
 535 277 l 1,27,-1
 449 709 l 1,28,-1
 220 277 l 1,26,-1
EndSplineSet
Substitution2: "'c2sc' Capitals to Small Capitals in Latin lookup 2 subtable" abreve.smcp
EndChar

StartChar: abreve
Encoding: 259 259 196
Width: 545
GlyphClass: 2
Flags: W
LayerCount: 2
Fore
SplineSet
268 700 m 0,0,1
 268 668 268 668 290 642.5 c 128,-1,2
 312 617 312 617 351 617 c 0,3,4
 397 617 397 617 431 645.5 c 128,-1,5
 465 674 465 674 471 717 c 1,6,-1
 485 717 l 1,7,8
 477 664 477 664 437.5 633.5 c 128,-1,9
 398 603 398 603 353 603 c 128,-1,10
 308 603 308 603 281 631 c 128,-1,11
 254 659 254 659 254 697 c 0,12,13
 254 706 254 706 255 717 c 1,14,-1
 269 717 l 1,15,16
 268 708 268 708 268 700 c 0,0,1
259 532 m 128,-1,18
 280 537 280 537 303 540 c 128,-1,19
 326 543 326 543 355.5 543 c 128,-1,20
 385 543 385 543 442 528.5 c 128,-1,21
 499 514 499 514 536 479 c 1,22,-1
 466 0 l 1,23,-1
 452 0 l 1,24,-1
 453 60 l 1,25,26
 422 40 422 40 359.5 16.5 c 128,-1,27
 297 -7 297 -7 253 -7 c 128,-1,28
 209 -7 209 -7 182 0.5 c 128,-1,29
 155 8 155 8 130 26.5 c 128,-1,30
 105 45 105 45 94 77 c 0,31,32
 79 121 79 121 79 172 c 128,-1,33
 79 223 79 223 90.5 284 c 128,-1,34
 102 345 102 345 121 393 c 128,-1,35
 140 441 140 441 160.5 467 c 128,-1,36
 181 493 181 493 209.5 510 c 128,-1,17
 238 527 238 527 259 532 c 128,-1,18
103 175 m 0,37,38
 103 16 103 16 238 16 c 0,39,40
 276 16 276 16 301.5 22 c 128,-1,41
 327 28 327 28 336.5 29.5 c 128,-1,42
 346 31 346 31 368.5 40 c 128,-1,43
 391 49 391 49 395 50.5 c 128,-1,44
 399 52 399 52 425.5 63.5 c 128,-1,45
 452 75 452 75 453 75 c 2,46,-1
 511 476 l 1,47,48
 440 520 440 520 355 520 c 0,49,50
 232 520 232 520 176 446 c 0,51,52
 131 388 131 388 109 246 c 0,53,54
 103 207 103 207 103 175 c 0,37,38
EndSplineSet
Substitution2: "'smcp' Lowercase to Small Capitals lookup 1 subtable" abreve.smcp
EndChar

StartChar: Aogonek
Encoding: 260 260 197
Width: 922
GlyphClass: 2
Flags: W
LayerCount: 2
Fore
SplineSet
602 -110 m 0,0,1
 602 -41 602 -41 701 0 c 1,2,-1
 713 0 l 1,3,4
 656 -22 656 -22 632 -63 c 1,5,6
 621 -84 621 -84 621 -102 c 128,-1,7
 621 -120 621 -120 632 -136 c 0,8,9
 654 -167 654 -167 714 -167 c 0,10,11
 716 -167 716 -167 718 -167 c 1,12,-1
 716 -181 l 1,13,14
 704 -183 704 -183 693 -183 c 0,15,16
 651 -183 651 -183 626.5 -160 c 128,-1,17
 602 -137 602 -137 602 -110 c 0,0,1
147 0 m 1,18,-1
 537 732 l 1,19,-1
 571 732 l 1,20,-1
 717 0 l 1,21,-1
 693 0 l 1,22,-1
 642 253 l 1,23,-1
 309 253 l 1,24,-1
 175 0 l 1,25,-1
 147 0 l 1,18,-1
322 277 m 1,26,-1
 637 277 l 1,27,-1
 551 709 l 1,28,-1
 322 277 l 1,26,-1
EndSplineSet
Substitution2: "'c2sc' Capitals to Small Capitals in Latin lookup 2 subtable" aogonek.smcp
EndChar

StartChar: aogonek
Encoding: 261 261 198
Width: 545
GlyphClass: 2
Flags: W
LayerCount: 2
Fore
SplineSet
355 -110 m 0,0,1
 355 -41 355 -41 454 0 c 1,2,-1
 466 0 l 1,3,4
 432 -13 432 -13 409 -35 c 0,5,6
 376 -65 376 -65 376 -102 c 0,7,8
 376 -138 376 -138 409 -155 c 0,9,10
 432 -167 432 -167 466 -167 c 0,11,12
 469 -167 469 -167 471 -167 c 1,13,-1
 469 -181 l 1,14,15
 457 -182 457 -182 447 -182 c 0,16,17
 404 -182 404 -182 379.5 -159.5 c 128,-1,18
 355 -137 355 -137 355 -110 c 0,0,1
259 532 m 128,-1,20
 280 537 280 537 303 540 c 128,-1,21
 326 543 326 543 355.5 543 c 128,-1,22
 385 543 385 543 442 528.5 c 128,-1,23
 499 514 499 514 536 479 c 1,24,-1
 466 0 l 1,25,-1
 452 0 l 1,26,-1
 453 60 l 1,27,28
 422 40 422 40 359.5 16.5 c 128,-1,29
 297 -7 297 -7 253 -7 c 128,-1,30
 209 -7 209 -7 182 0.5 c 128,-1,31
 155 8 155 8 130 26.5 c 128,-1,32
 105 45 105 45 94 77 c 0,33,34
 79 121 79 121 79 172 c 128,-1,35
 79 223 79 223 90.5 284 c 128,-1,36
 102 345 102 345 121 393 c 128,-1,37
 140 441 140 441 160.5 467 c 128,-1,38
 181 493 181 493 209.5 510 c 128,-1,19
 238 527 238 527 259 532 c 128,-1,20
103 175 m 0,39,40
 103 16 103 16 238 16 c 0,41,42
 276 16 276 16 301.5 22 c 128,-1,43
 327 28 327 28 336.5 29.5 c 128,-1,44
 346 31 346 31 368.5 40 c 128,-1,45
 391 49 391 49 395 50.5 c 128,-1,46
 399 52 399 52 425.5 63.5 c 128,-1,47
 452 75 452 75 453 75 c 2,48,-1
 511 476 l 1,49,50
 440 520 440 520 355 520 c 0,51,52
 232 520 232 520 176 446 c 0,53,54
 131 388 131 388 109 246 c 0,55,56
 103 207 103 207 103 175 c 0,39,40
EndSplineSet
AlternateSubs2: "'salt' Stylistic Alternatives in Latin lookup 16 subtable" aogonek.salt
Substitution2: "'smcp' Lowercase to Small Capitals lookup 1 subtable" aogonek.smcp
EndChar

StartChar: Cacute
Encoding: 262 262 199
Width: 564
GlyphClass: 2
Flags: W
LayerCount: 2
Fore
SplineSet
420 800 m 1,0,-1
 562 933 l 1,1,-1
 588 933 l 1,2,-1
 434 800 l 1,3,-1
 420 800 l 1,0,-1
290 716.5 m 128,-1,5
 342 740 342 740 422.5 740 c 128,-1,6
 503 740 503 740 629 716 c 1,7,-1
 627 702 l 1,8,9
 613 704 613 704 600.5 705 c 128,-1,10
 588 706 588 706 572 707.5 c 128,-1,11
 556 709 556 709 536.5 710.5 c 128,-1,12
 517 712 517 712 497 713 c 0,13,14
 437 716 437 716 415 716 c 0,15,16
 337 716 337 716 287 688 c 0,17,18
 183 628 183 628 141 366 c 0,19,20
 130 296 130 296 130 241 c 0,21,22
 130 18 130 18 306 18 c 0,23,24
 400 18 400 18 490 27 c 2,25,-1
 520 30 l 1,26,-1
 518 16 l 1,27,28
 396 -6 396 -6 301 -6 c 0,29,30
 105 -6 105 -6 105 240 c 0,31,32
 105 301 105 301 118.5 385 c 128,-1,33
 132 469 132 469 151 531 c 128,-1,34
 170 593 170 593 204 643 c 128,-1,4
 238 693 238 693 290 716.5 c 128,-1,5
EndSplineSet
Substitution2: "'c2sc' Capitals to Small Capitals in Latin lookup 2 subtable" cacute.smcp
EndChar

StartChar: cacute
Encoding: 263 263 200
Width: 491
GlyphClass: 2
Flags: W
LayerCount: 2
Fore
SplineSet
341 596 m 1,0,-1
 483 729 l 1,1,-1
 509 729 l 1,2,-1
 355 596 l 1,3,-1
 341 596 l 1,0,-1
235 527 m 128,-1,5
 265 536 265 536 328 536 c 128,-1,6
 391 536 391 536 502 510 c 1,7,-1
 499 496 l 1,8,9
 393 512 393 512 329.5 512 c 128,-1,10
 266 512 266 512 239.5 503 c 128,-1,11
 213 494 213 494 188 468 c 1,12,13
 137 418 137 418 113 262 c 1,14,15
 103 212 103 212 103 188.5 c 128,-1,16
 103 165 103 165 104.5 140 c 128,-1,17
 106 115 106 115 113.5 87.5 c 128,-1,18
 121 60 121 60 140 45 c 0,19,20
 172 19 172 19 219 19 c 0,21,22
 302 19 302 19 402 35 c 2,23,-1
 434 40 l 1,24,-1
 432 24 l 1,25,26
 330 -4 330 -4 222 -5 c 0,27,28
 115 -5 115 -5 92 74 c 0,29,30
 79 118 79 118 79 167.5 c 128,-1,31
 79 217 79 217 90 273 c 1,32,33
 116 439 116 439 176 492 c 0,34,4
 205 518 205 518 235 527 c 128,-1,5
EndSplineSet
Substitution2: "'smcp' Lowercase to Small Capitals lookup 1 subtable" cacute.smcp
EndChar

StartChar: Ccircumflex
Encoding: 264 264 201
Width: 564
GlyphClass: 2
Flags: W
LayerCount: 2
Fore
SplineSet
291 800 m 1,0,-1
 444 930 l 1,1,-1
 465 930 l 1,2,-1
 563 800 l 1,3,-1
 546 800 l 1,4,-1
 452 915 l 1,5,-1
 309 800 l 1,6,-1
 291 800 l 1,0,-1
290 716.5 m 128,-1,8
 342 740 342 740 422.5 740 c 128,-1,9
 503 740 503 740 629 716 c 1,10,-1
 627 702 l 1,11,12
 613 704 613 704 600.5 705 c 128,-1,13
 588 706 588 706 572 707.5 c 128,-1,14
 556 709 556 709 536.5 710.5 c 128,-1,15
 517 712 517 712 497 713 c 0,16,17
 437 716 437 716 415 716 c 0,18,19
 337 716 337 716 287 688 c 0,20,21
 183 628 183 628 141 366 c 0,22,23
 130 296 130 296 130 241 c 0,24,25
 130 18 130 18 306 18 c 0,26,27
 400 18 400 18 490 27 c 2,28,-1
 520 30 l 1,29,-1
 518 16 l 1,30,31
 396 -6 396 -6 301 -6 c 0,32,33
 105 -6 105 -6 105 240 c 0,34,35
 105 301 105 301 118.5 385 c 128,-1,36
 132 469 132 469 151 531 c 128,-1,37
 170 593 170 593 204 643 c 128,-1,7
 238 693 238 693 290 716.5 c 128,-1,8
EndSplineSet
Substitution2: "'c2sc' Capitals to Small Capitals in Latin lookup 2 subtable" ccircumflex.smcp
EndChar

StartChar: ccircumflex
Encoding: 265 265 202
Width: 491
GlyphClass: 2
Flags: W
LayerCount: 2
Fore
SplineSet
182 596 m 1,0,-1
 335 726 l 1,1,-1
 356 726 l 1,2,-1
 454 596 l 1,3,-1
 437 596 l 1,4,-1
 343 711 l 1,5,-1
 200 596 l 1,6,-1
 182 596 l 1,0,-1
235 527 m 128,-1,8
 265 536 265 536 328 536 c 128,-1,9
 391 536 391 536 502 510 c 1,10,-1
 499 496 l 1,11,12
 393 512 393 512 329.5 512 c 128,-1,13
 266 512 266 512 239.5 503 c 128,-1,14
 213 494 213 494 188 468 c 1,15,16
 137 418 137 418 113 262 c 1,17,18
 103 212 103 212 103 188.5 c 128,-1,19
 103 165 103 165 104.5 140 c 128,-1,20
 106 115 106 115 113.5 87.5 c 128,-1,21
 121 60 121 60 140 45 c 0,22,23
 172 19 172 19 219 19 c 0,24,25
 302 19 302 19 402 35 c 2,26,-1
 434 40 l 1,27,-1
 432 24 l 1,28,29
 330 -4 330 -4 222 -5 c 0,30,31
 115 -5 115 -5 92 74 c 0,32,33
 79 118 79 118 79 167.5 c 128,-1,34
 79 217 79 217 90 273 c 1,35,36
 116 439 116 439 176 492 c 0,37,7
 205 518 205 518 235 527 c 128,-1,8
EndSplineSet
Substitution2: "'smcp' Lowercase to Small Capitals lookup 1 subtable" ccircumflex.smcp
EndChar

StartChar: Cdotaccent
Encoding: 266 266 203
Width: 564
GlyphClass: 2
Flags: W
LayerCount: 2
Fore
SplineSet
425 886 m 2,0,-1
 436 886 l 2,1,2
 448 886 448 886 446 874 c 2,3,-1
 436 812 l 2,4,5
 434 800 434 800 422 800 c 2,6,-1
 411 800 l 2,7,8
 399 800 399 800 401 812 c 2,9,-1
 411 874 l 2,10,11
 413 886 413 886 425 886 c 2,0,-1
290 716.5 m 128,-1,13
 342 740 342 740 422.5 740 c 128,-1,14
 503 740 503 740 629 716 c 1,15,-1
 627 702 l 1,16,17
 613 704 613 704 600.5 705 c 128,-1,18
 588 706 588 706 572 707.5 c 128,-1,19
 556 709 556 709 536.5 710.5 c 128,-1,20
 517 712 517 712 497 713 c 0,21,22
 437 716 437 716 415 716 c 0,23,24
 337 716 337 716 287 688 c 0,25,26
 183 628 183 628 141 366 c 0,27,28
 130 296 130 296 130 241 c 0,29,30
 130 18 130 18 306 18 c 0,31,32
 400 18 400 18 490 27 c 2,33,-1
 520 30 l 1,34,-1
 518 16 l 1,35,36
 396 -6 396 -6 301 -6 c 0,37,38
 105 -6 105 -6 105 240 c 0,39,40
 105 301 105 301 118.5 385 c 128,-1,41
 132 469 132 469 151 531 c 128,-1,42
 170 593 170 593 204 643 c 128,-1,12
 238 693 238 693 290 716.5 c 128,-1,13
EndSplineSet
Substitution2: "'c2sc' Capitals to Small Capitals in Latin lookup 2 subtable" cdotaccent.smcp
EndChar

StartChar: cdotaccent
Encoding: 267 267 204
Width: 491
GlyphClass: 2
Flags: W
LayerCount: 2
Fore
SplineSet
294 663 m 2,0,-1
 305 663 l 2,1,2
 317 663 317 663 315 651 c 2,3,-1
 305 589 l 2,4,5
 303 577 303 577 291 577 c 2,6,-1
 280 577 l 2,7,8
 268 577 268 577 270 589 c 2,9,-1
 280 651 l 2,10,11
 282 663 282 663 294 663 c 2,0,-1
235 527 m 128,-1,13
 265 536 265 536 328 536 c 128,-1,14
 391 536 391 536 502 510 c 1,15,-1
 499 496 l 1,16,17
 393 512 393 512 329.5 512 c 128,-1,18
 266 512 266 512 239.5 503 c 128,-1,19
 213 494 213 494 188 468 c 1,20,21
 137 418 137 418 113 262 c 1,22,23
 103 212 103 212 103 188.5 c 128,-1,24
 103 165 103 165 104.5 140 c 128,-1,25
 106 115 106 115 113.5 87.5 c 128,-1,26
 121 60 121 60 140 45 c 0,27,28
 172 19 172 19 219 19 c 0,29,30
 302 19 302 19 402 35 c 2,31,-1
 434 40 l 1,32,-1
 432 24 l 1,33,34
 330 -4 330 -4 222 -5 c 0,35,36
 115 -5 115 -5 92 74 c 0,37,38
 79 118 79 118 79 167.5 c 128,-1,39
 79 217 79 217 90 273 c 1,40,41
 116 439 116 439 176 492 c 0,42,12
 205 518 205 518 235 527 c 128,-1,13
EndSplineSet
Substitution2: "'smcp' Lowercase to Small Capitals lookup 1 subtable" cdotaccent.smcp
EndChar

